<?xml version="1.0" encoding="UTF-8"?>
<svg id="Ebene_1" data-name="Ebene 1" xmlns="http://www.w3.org/2000/svg" viewBox="0 0 300 303.72">
  <defs>
    <style>
      .cls-1 {
        fill: #bf4c0c;
      }

      .cls-1, .cls-2, .cls-3 {
        stroke-width: 0px;
      }

      .cls-2 {
        fill: #3d503a;
      }

      .cls-3 {
        fill: #fff;
      }
    </style>
  </defs>
  <path class="cls-3" d="M299.73,150.94c-.53-15.55-2.37-30.97-5.53-46.27-4.22-25.3-22.47-48.53-39.86-66.99-8.96-12.13-26.49-22.7-34.74-26.14-14.08-5.87-21.88-6.24-36.11-8.87-9.49-2.11-18.97-2.9-28.46-2.37-9.5.53-18.98,1.33-28.47,2.37-12.13-1.05-23.34.92-33.61,5.93-10.28,5.01-20.69,10.15-31.23,15.42-4.75,2.64-15.82,10.88-18.91,16.76-2.38,4.52-10.32,13.41-12.04,16.85-2.19,4.39-9.24,13.14-11.35,17.89-6.33,12.13-7.62,22.17-12.73,35.08-5.11,12.92-7.23,26.24-6.18,39.94.71,7.58,1.13,15.1,1.27,22.57-.04.01-.08.02-.12.02.52,11.08,4.43,21.62,5.49,32.95,1.05,11.34,5.01,21.75,11.86,31.23,6.32,8.96,13.18,17.14,20.55,24.52,7.38,7.38,15.56,13.71,24.52,18.97,8.96,5.8,18.58,10.28,28.86,13.44,10.28,3.17,20.7,6.06,31.24,8.69,6.85,1.05,13.83.79,20.94-.78,7.11-1.59,14.1-1.85,20.96-.79,6.32,1.05,12.25.51,17.79-1.58,5.53-2.12,11.2-3.43,17-3.96,4.75-.52,9.36-1.97,13.84-4.35,4.48-2.36,8.83-4.6,13.04-6.72,11.59-5.8,21.75-13.05,30.44-21.75,8.69-8.69,16.47-18.32,23.34-28.87,4.21-10.01,7.37-20.29,9.49-30.83,2.11-10.54,4.21-20.82,6.32-30.84.47-2.91.76-5.82.93-8.73.74-4.21,1.59-8.37,1.44-12.81Z"/>
  <g>
    <rect class="cls-1" x="39.51" y="105.1" width="220.14" height="97.69"/>
    <path class="cls-2" d="M260.07,205.17H39.93c-1.9,0-3.44-1.54-3.44-3.44v-99.75c0-1.9,1.54-3.44,3.44-3.44h220.14c1.9,0,3.44,1.54,3.44,3.44v99.75c0,1.9-1.54,3.44-3.44,3.44ZM43.37,198.29h213.26v-92.87H43.37v92.87Z"/>
    <path class="cls-3" d="M136.88,150.58q-.21,3.41,2.73,3.41c5.38,0,10.77-.03,16.15.02,2.54.02,4.15,1.41,4.2,3.45.05,2.08-1.52,3.52-4.05,3.54-5.3.04-10.61.01-16.36.01.47.8.73,1.38,1.12,1.87,6.04,7.68,17.53,8.83,25.06,2.51,2.9-2.43,4.63-2.68,6.25-.87,1.61,1.8,1.01,3.95-1.77,6.29-12.01,10.12-30.59,6.34-37.72-7.71-.64-1.26-1.26-2.02-2.8-2.34-.94-.2-2.09-1.51-2.31-2.51-.21-1,.32-2.49,1.05-3.3,1.77-1.96,1.89-3.41-.1-5.29-1.97-1.88-1.44-5.14,1.19-5.81,1.59-.41,2.03-1.36,2.59-2.55,7.06-14.94,26.97-18.86,38.91-7.68,2.02,1.89,2.39,3.88,1.03,5.5-1.44,1.7-3.53,1.59-5.72-.29-8.47-7.29-21.01-5.68-26.72,3.43-.19.31-.33.65-.64,1.28,5.1,0,9.9,0,14.71,0,.86,0,1.72-.03,2.57.02,2.19.12,3.68,1.5,3.72,3.43.04,2-1.51,3.54-3.82,3.56-5.54.05-11.08.02-16.62.02-.84,0-1.68,0-2.64,0Z"/>
  </g>
</svg>