<?xml version="1.0" encoding="UTF-8"?>
<svg id="Ebene_1" data-name="Ebene 1" xmlns="http://www.w3.org/2000/svg" viewBox="0 0 300 303.72">
  <defs>
    <style>
      .cls-1 {
        fill: #bf4c0c;
      }

      .cls-1, .cls-2, .cls-3 {
        stroke-width: 0px;
      }

      .cls-2 {
        fill: #3d503a;
      }

      .cls-3 {
        fill: #fff;
      }
    </style>
  </defs>
  <path class="cls-3" d="M299.73,150.94c-.53-15.55-2.37-30.97-5.53-46.27-4.22-25.3-22.47-48.53-39.86-66.99-8.96-12.13-26.49-22.7-34.74-26.14-14.08-5.87-21.88-6.24-36.11-8.87-9.49-2.11-18.97-2.9-28.46-2.37-9.5.53-18.98,1.33-28.47,2.37-12.13-1.05-23.34.92-33.61,5.93-10.28,5.01-20.69,10.15-31.23,15.42-4.75,2.64-15.82,10.88-18.91,16.76-2.38,4.52-10.32,13.41-12.04,16.85-2.19,4.39-9.24,13.14-11.35,17.89-6.33,12.13-7.62,22.17-12.73,35.08-5.11,12.92-7.23,26.24-6.18,39.94.71,7.58,1.13,15.1,1.27,22.57-.04.01-.08.02-.12.02.52,11.08,4.43,21.62,5.49,32.95,1.05,11.34,5.01,21.75,11.86,31.23,6.32,8.96,13.18,17.14,20.55,24.52,7.38,7.38,15.56,13.71,24.52,18.97,8.96,5.8,18.58,10.28,28.86,13.44,10.28,3.17,20.7,6.06,31.24,8.69,6.85,1.05,13.83.79,20.94-.78,7.11-1.59,14.1-1.85,20.96-.79,6.32,1.05,12.25.51,17.79-1.58,5.53-2.12,11.2-3.43,17-3.96,4.75-.52,9.36-1.97,13.84-4.35,4.48-2.36,8.83-4.6,13.04-6.72,11.59-5.8,21.75-13.05,30.44-21.75s16.47-18.32,23.34-28.87c4.21-10.01,7.37-20.29,9.49-30.83,2.11-10.54,4.21-20.82,6.32-30.84.47-2.91.76-5.82.93-8.73.74-4.21,1.59-8.37,1.44-12.81Z"/>
  <g>
    <path class="cls-1" d="M187.44,148.18l-7.41-7.41v-19.95c0-1.18-.67-2.25-1.72-2.77-1.05-.52-2.31-.4-3.25.31l-62.18,47.27c-.77.59-1.22,1.5-1.22,2.46v35.76c0,1.18.67,2.25,1.72,2.77.44.22.91.32,1.38.32.66,0,1.32-.21,1.87-.63l70.49-53.49c.71-.54,1.16-1.36,1.22-2.26.06-.89-.27-1.77-.9-2.4Z"/>
    <path class="cls-2" d="M187.68,143.46l-7.3-7.3v-42.95c0-1.84-1.45-3.34-3.28-3.42v-6.38c0-1.36-.79-2.54-1.94-3.1-1.19-.74-7.44-5.03-12.96-8.85-.58-.4-1.26-.61-1.96-.61h0v-6.88c0-1.9-1.54-3.44-3.44-3.44h-14.45c-1.9,0-3.44,1.54-3.44,3.44v6.88c-.73,0-1.45.23-2.04.67l-12.38,9.12c-.88.65-1.4,1.68-1.4,2.77v6.37c-1.88.02-3.4,1.55-3.4,3.44v42.64l-7.37,7.37c-.65.65-1.01,1.52-1.01,2.43v90.64c0,1.9,1.54,3.44,3.44,3.44h70.49c1.9,0,3.44-1.54,3.44-3.44v-90.41c0-.91-.36-1.79-1.01-2.43ZM145.8,67.42h7.57v3.44h-7.57v-3.44ZM129.98,85.15l10.07-7.41h19.12c1.21.84,3.49,2.41,5.78,3.98,1.94,1.33,3.5,2.4,4.63,3.15.23.15.44.3.64.43v3.79h-40.24v-3.94ZM181.81,232.86h-63.61v-85.78l7.37-7.37c.64-.65,1.01-1.52,1.01-2.43v-40.63h46.92v40.93c0,.91.36,1.79,1.01,2.43l7.3,7.31v85.54Z"/>
  </g>
</svg>