<?xml version="1.0" encoding="UTF-8"?>
<svg id="Ebene_1" data-name="Ebene 1" xmlns="http://www.w3.org/2000/svg" viewBox="0 0 59.17 28.51">
  <defs>
    <style>
      .cls-1 {
        fill: none;
      }

      .cls-1, .cls-2 {
        stroke-width: 0px;
      }

      .cls-2 {
        fill: #bf4c0c;
      }
    </style>
  </defs>
  <path class="cls-1" d="M59.04.09H8.93c1.74.01,3.47.25,5.16.7,1.72.24,3.46.3,5.2.18,1.73-.12,3.47-.24,5.2-.37,2.17-.36,4.39-.36,6.56,0,2.17.37,4.36.55,6.56.55,2.08.12,4.17.03,6.24-.27,2.03-.3,4.09-.27,6.11.09,1.33.36,2.72.45,4.09.27,1.36-.18,2.73.18,3.83,1,.42.22.71.62.78,1.09.09.54.13,1.09.13,1.64.09,2.06.11,4.06.06,6-.04,1.94-.02,3.94.07,6,.25,1.55.02,3.13-.65,4.55-.52.98-.92,2.02-1.17,3.09-.23,1.05-.78,2-1.56,2.73-2.51.24-4.98.51-7.41.82-2.46.3-4.94.33-7.41.09-2.34-.36-4.72-.49-7.08-.36-2.37.12-4.74,0-7.08-.36-1.52-.36-3.1-.36-4.61,0-1.47.36-2.98.48-4.48.36H0v.53h59.04V.09Z"/>
  <path class="cls-1" d="M7.14.16c.57-.05,1.13-.06,1.7-.06H0v.51c2.4-.12,4.78-.27,7.14-.45Z"/>
  <path class="cls-2" d="M0,.6v27.29h17.47c1.5.12,3.02,0,4.48-.36,1.52-.36,3.1-.36,4.61,0,2.34.36,4.72.49,7.08.36,2.37-.12,4.74,0,7.08.36,2.47.24,4.95.21,7.41-.09,2.42-.3,4.89-.58,7.41-.82.78-.73,1.33-1.68,1.56-2.73.25-1.08.65-2.12,1.17-3.09.67-1.42.9-3,.65-4.55-.09-2.06-.11-4.06-.07-6,.04-1.94.02-3.94-.06-6,0-.55-.04-1.1-.13-1.64-.07-.47-.36-.87-.78-1.09-1.1-.82-2.47-1.18-3.83-1-1.37.18-2.76.09-4.09-.27-2.02-.36-4.08-.4-6.11-.09-2.07.3-4.16.39-6.24.27-2.2,0-4.4-.18-6.56-.55-2.17-.36-4.39-.36-6.56,0-1.73.12-3.47.24-5.2.37-1.73.12-3.48.06-5.2-.18-1.69-.45-3.42-.69-5.16-.7h-.09c-.57,0-1.13.02-1.7.06C4.78.33,2.4.48,0,.6Z"/>
</svg>