<?xml version="1.0" encoding="UTF-8"?>
<svg id="Ebene_1" data-name="Ebene 1" xmlns="http://www.w3.org/2000/svg" xmlns:xlink="http://www.w3.org/1999/xlink" viewBox="0 0 139.71 32.67">
  <defs>
    <style>
      .cls-1 {
        clip-path: url(#clippath);
      }

      .cls-2 {
        fill: none;
      }

      .cls-2, .cls-3 {
        stroke-width: 0px;
      }

      .cls-3 {
        fill: #bf4c0c;
      }
    </style>
    <clipPath id="clippath">
      <rect class="cls-2" y=".1" width="139.71" height="32.47"/>
    </clipPath>
  </defs>
  <g id="Gruppe_79" data-name="Gruppe 79">
    <g class="cls-1">
      <g id="Gruppe_69" data-name="Gruppe 69">
        <path id="Pfad_91" data-name="Pfad 91" class="cls-3" d="M139.37,5.7c.12,2.36.15,4.65.09,6.88-.06,2.23-.03,4.52.09,6.88.35,1.79.02,3.65-.93,5.21-.73,1.09-1.3,2.28-1.67,3.54-.38,1.26-1.16,2.36-2.23,3.13-3.6.28-7.13.59-10.6.94-3.52.34-7.07.38-10.6.1-3.36-.42-6.75-.56-10.14-.42-3.38.14-6.78,0-10.14-.42-2.18-.42-4.42-.42-6.6,0-2.11.41-4.27.55-6.42.42h-31.62c-4.03-.28-8.07-.21-12.09.21-4.08.42-8.19.42-12.28,0-3.35-.14-6.63-.17-9.86-.1-3.24.07-6.48-.18-9.67-.73-1.57-.92-2.86-2.25-3.72-3.86-.98-1.67-1.25-3.66-.74-5.52.61-2.31.77-4.72.46-7.09-.31-2.34.04-4.73,1.02-6.88.41-1.81,1.43-3.43,2.88-4.59,1.34-1.07,2.9-1.85,4.56-2.29,2-.27,4.02-.38,6.04-.31,1.92.07,3.94.1,6.04.1,5.58-.28,11.19-.49,16.83-.62,5.64-.14,11.31,0,17.01.42,3.47-.14,6.92-.31,10.33-.52,3.33-.22,6.68.03,9.95.73,2.47.28,4.96.35,7.44.21,2.48-.14,4.96-.28,7.44-.41,3.12-.42,6.28-.42,9.39,0,3.11.42,6.25.63,9.39.62,2.98.14,5.97.03,8.93-.31,2.91-.35,5.85-.32,8.74.1,1.92.41,3.9.52,5.86.31,1.9-.21,3.83.19,5.49,1.15.56.21.97.67,1.12,1.25.13.62.19,1.25.19,1.88"/>
      </g>
    </g>
  </g>
</svg>