<?xml version="1.0" encoding="UTF-8"?>
<svg id="Ebene_1" data-name="Ebene 1" xmlns="http://www.w3.org/2000/svg" viewBox="0 0 300 303.72">
  <defs>
    <style>
      .cls-1 {
        fill: #bf4c0c;
      }

      .cls-1, .cls-2, .cls-3 {
        stroke-width: 0px;
      }

      .cls-2 {
        fill: #3d503a;
      }

      .cls-3 {
        fill: #fff;
      }
    </style>
  </defs>
  <path class="cls-1" d="M299.59,150.94c-.53-15.53-2.37-30.94-5.52-46.22-4.22-25.28-22.45-48.49-39.82-66.92-8.95-12.11-26.46-22.68-34.71-26.12-14.07-5.86-21.86-6.23-36.08-8.86-9.48-2.1-18.95-2.9-28.43-2.37-9.49.53-18.96,1.32-28.44,2.37-12.11-1.05-23.32.92-33.58,5.92-10.27,5.01-20.67,10.14-31.2,15.4-4.74,2.64-15.8,10.87-18.89,16.74-2.38,4.52-10.31,13.4-12.03,16.84-2.19,4.38-9.23,13.13-11.34,17.87-6.32,12.11-7.61,22.14-12.71,35.05C1.72,123.55-.39,136.86.66,150.54c.71,7.57,1.13,15.08,1.27,22.55-.04.01-.08.02-.12.02.52,11.07,4.43,21.6,5.49,32.92,1.05,11.32,5,21.72,11.85,31.2,6.31,8.95,13.16,17.12,20.53,24.5,7.37,7.37,15.54,13.7,24.5,18.95,8.95,5.79,18.56,10.27,28.83,13.43,10.27,3.16,20.68,6.06,31.21,8.69,6.84,1.05,13.82.79,20.92-.78,7.11-1.59,14.09-1.85,20.94-.79,6.31,1.05,12.24.51,17.77-1.58,5.52-2.11,11.19-3.43,16.98-3.95,4.74-.52,9.35-1.97,13.83-4.34,4.48-2.36,8.82-4.6,13.03-6.71,11.58-5.79,21.72-13.04,30.41-21.72s16.46-18.31,23.32-28.84c4.21-10,7.36-20.27,9.48-30.8,2.1-10.53,4.21-20.8,6.31-30.81.47-2.91.76-5.82.93-8.72.74-4.2,1.59-8.37,1.44-12.79Z"/>
  <path class="cls-2" d="M221.34,139.45c-26.97,0-48.9,21.94-48.9,48.9s21.94,48.9,48.9,48.9,48.9-21.94,48.9-48.9-21.94-48.9-48.9-48.9Z"/>
  <path class="cls-2" d="M78.66,139.45c-26.97,0-48.9,21.94-48.9,48.9s21.94,48.9,48.9,48.9,48.9-21.94,48.9-48.9-21.94-48.9-48.9-48.9Z"/>
  <path class="cls-3" d="M220.63,173.24l-33.1-33.1.63-38.77c.02-1.4-.81-2.67-2.1-3.22-1.29-.55-2.78-.26-3.77.73l-47.91,47.91-20.23-20.23,47.57-47.57c1.34-1.34,1.34-3.52,0-4.86-1.34-1.34-3.52-1.34-4.86,0l-50,50c-1.34,1.34-1.34,3.52,0,4.86l24.08,24.08v91.59c0,1.9,1.54,3.44,3.44,3.44s3.44-1.54,3.44-3.44v-27l31.29-31.29c1.34-1.34,1.34-3.52,0-4.86l-29.87-29.87,41.9-41.9-.52,31.74c-.02.93.35,1.83,1.01,2.49l34.13,34.13c1.34,1.34,3.52,1.34,4.86,0,1.34-1.34,1.34-3.52,0-4.86ZM137.83,207.96v-48l24,24-24,24Z"/>
  <path class="cls-3" d="M213.26,70.73h-8.58c-1.62-8.59-9.17-15.12-18.23-15.12-10.23,0-18.56,8.32-18.56,18.56s8.32,18.56,18.56,18.56c9.06,0,16.62-6.52,18.23-15.12h8.58c1.9,0,3.44-1.54,3.44-3.44s-1.54-3.44-3.44-3.44ZM186.45,85.85c-5.25,0-9.7-3.48-11.17-8.25h22.33c-1.47,4.77-5.92,8.25-11.17,8.25ZM175.28,70.73c1.47-4.77,5.92-8.25,11.17-8.25s9.7,3.48,11.17,8.25h-22.33Z"/>
</svg>