<?xml version="1.0" encoding="UTF-8"?>
<svg id="Ebene_1" data-name="Ebene 1" xmlns="http://www.w3.org/2000/svg" viewBox="0 0 300 303.72">
  <defs>
    <style>
      .cls-1 {
        fill: #bf4c0c;
      }

      .cls-1, .cls-2, .cls-3 {
        stroke-width: 0px;
      }

      .cls-2 {
        fill: #3d503a;
      }

      .cls-3 {
        fill: #fff;
      }
    </style>
  </defs>
  <path class="cls-3" d="M299.59,150.94c-.53-15.52-2.71-30.91-5.86-46.17-4.21-25.25-22.42-48.43-39.77-66.85-8.94-12.1-26.43-22.65-34.67-26.09-14.05-5.86-21.84-6.22-36.04-8.85-9.47-2.1-18.93-2.89-28.4-2.37-9.48.53-18.94,1.32-28.41,2.37-12.1-1.05-23.29.92-33.54,5.92-10.26,5-20.64,10.13-31.17,15.38-4.74,2.64-15.79,10.86-18.87,16.72-2.38,4.51-10.3,13.39-12.01,16.82-2.19,4.38-9.22,13.11-11.33,17.85-6.32,12.1-7.6,22.12-12.7,35.01C1.72,123.58-.39,136.87.66,150.54c.71,7.56,1.13,15.07,1.27,22.52-.04.01-.08.02-.12.02.52,11.05,4.43,21.58,5.48,32.88,1.05,11.31,4.99,21.7,11.83,31.17,6.31,8.94,13.15,17.11,20.51,24.47,7.36,7.36,15.53,13.68,24.47,18.93,8.94,5.78,18.54,10.26,28.8,13.41,10.26,3.16,20.65,6.05,31.18,8.68,6.83,1.05,13.8.79,20.9-.78,7.1-1.59,14.07-1.85,20.92-.79,6.31,1.05,12.22.51,17.75-1.58,5.52-2.11,11.18-3.42,16.96-3.95,4.74-.52,9.34-1.97,13.81-4.34,4.47-2.36,8.81-4.6,13.01-6.71,11.57-5.78,21.7-13.02,30.38-21.7,8.68-8.68,16.44-18.28,23.29-28.81,4.2-9.99,7.35-20.24,9.47-30.77,2.1-10.52,4.2-20.78,6.31-30.78.47-2.91.76-5.81.93-8.71.74-4.2,1.93-8.36,1.78-12.78Z"/>
  <g>
    <path class="cls-2" d="M218.59,60.32H84.51v-3.39c0-1.9-1.54-3.43-3.43-3.43s-3.43,1.54-3.43,3.43v189.85c0,1.9,1.54,3.43,3.43,3.43s3.43-1.54,3.43-3.43v-98h134.08c1.9,0,3.43-1.54,3.43-3.43V63.75c0-1.9-1.54-3.43-3.43-3.43ZM215.16,141.92H84.51v-74.74h130.65v74.74Z"/>
    <rect class="cls-3" x="84.32" y="67.01" width="18.77" height="18.77"/>
    <rect class="cls-3" x="84.32" y="104.56" width="18.77" height="18.77"/>
    <rect class="cls-3" x="103.1" y="123.33" width="18.77" height="18.77"/>
    <rect class="cls-3" x="103.1" y="85.78" width="18.77" height="18.77"/>
    <rect class="cls-3" x="196.81" y="67.01" width="18.77" height="18.77"/>
    <rect class="cls-3" x="159.42" y="67.01" width="18.77" height="18.77"/>
    <rect class="cls-3" x="121.87" y="67.01" width="18.77" height="18.77"/>
    <rect class="cls-1" x="140.65" y="67.01" width="18.77" height="18.77"/>
    <rect class="cls-1" x="178.03" y="67.01" width="18.77" height="18.77"/>
    <rect class="cls-3" x="140.65" y="85.78" width="18.77" height="18.77"/>
    <rect class="cls-1" x="121.87" y="85.78" width="18.77" height="18.77"/>
    <rect class="cls-1" x="159.42" y="85.78" width="18.77" height="18.77"/>
    <rect class="cls-1" x="196.81" y="85.78" width="18.77" height="18.77"/>
    <rect class="cls-1" x="103.1" y="67.01" width="18.77" height="18.77"/>
    <rect class="cls-3" x="196.81" y="104.56" width="18.77" height="18.77"/>
    <rect class="cls-3" x="159.42" y="104.56" width="18.77" height="18.77"/>
    <rect class="cls-3" x="121.87" y="104.56" width="18.77" height="18.77"/>
    <rect class="cls-1" x="140.65" y="104.56" width="18.77" height="18.77"/>
    <rect class="cls-1" x="178.03" y="104.56" width="18.77" height="18.77"/>
    <rect class="cls-1" x="103.1" y="104.56" width="18.77" height="18.77"/>
    <rect class="cls-1" x="84.32" y="85.78" width="18.77" height="18.77"/>
    <rect class="cls-1" x="84.32" y="123.33" width="18.77" height="18.77"/>
    <rect class="cls-3" x="178.03" y="85.78" width="18.77" height="18.77"/>
    <rect class="cls-3" x="140.65" y="123.33" width="18.77" height="18.77"/>
    <rect class="cls-1" x="121.87" y="123.33" width="18.77" height="18.77"/>
    <rect class="cls-1" x="159.42" y="123.33" width="18.77" height="18.77"/>
    <rect class="cls-1" x="196.81" y="123.33" width="18.77" height="18.77"/>
    <rect class="cls-3" x="178.03" y="123.33" width="18.77" height="18.77"/>
  </g>
</svg>