<?xml version="1.0" standalone="no"?>
<!DOCTYPE svg PUBLIC "-//W3C//DTD SVG 20010904//EN"
 "http://www.w3.org/TR/2001/REC-SVG-20010904/DTD/svg10.dtd">
<svg version="1.0" xmlns="http://www.w3.org/2000/svg"
 width="1134.000000pt" height="2016.000000pt" viewBox="0 0 1134.000000 2016.000000"
 preserveAspectRatio="xMidYMid meet">
<metadata>
Created by potrace 1.16, written by Peter Selinger 2001-2019
</metadata>
<g transform="translate(0.000000,2016.000000) scale(0.100000,-0.100000)"
fill="#000000" stroke="none">
<path d="M280 20123 c0 -49 -25 -129 -52 -168 -27 -41 -88 -67 -165 -73 l-63
-4 0 -6038 0 -6037 40 -18 c21 -10 38 -20 37 -24 -1 -3 7 -19 18 -36 16 -23
21 -50 23 -126 4 -108 3 -110 -78 -134 l-35 -11 -3 -1638 c-2 -1457 0 -1637
13 -1626 8 7 15 23 15 37 0 36 29 73 56 73 18 0 24 5 24 23 0 12 11 31 25 41
14 10 25 26 25 35 0 18 48 51 73 51 39 0 173 88 187 123 5 12 20 34 34 49 14
15 26 32 26 38 0 5 5 10 10 10 6 0 20 20 32 45 12 25 26 45 30 45 4 0 8 9 8
20 0 11 4 20 8 20 5 0 15 18 22 40 7 22 17 40 22 40 4 0 8 9 8 20 0 11 4 20 8
20 22 0 100 219 127 360 18 88 78 246 140 365 38 72 75 138 83 148 8 9 20 26
26 36 29 50 98 141 106 141 6 0 10 4 10 9 0 16 97 123 147 162 104 83 154 119
163 119 5 0 10 3 10 8 0 4 13 21 28 38 61 70 71 83 83 106 10 19 35 50 133
168 7 8 28 29 47 46 54 49 104 106 124 142 11 17 22 32 26 32 4 0 10 11 13 25
4 14 11 25 16 25 6 0 10 5 10 12 0 21 165 160 295 249 112 76 165 129 165 163
0 15 10 42 22 59 13 17 24 43 26 57 2 14 12 39 22 55 42 66 50 85 54 129 4 46
28 96 45 96 15 0 71 60 71 76 0 8 6 14 14 14 7 0 19 7 26 15 9 10 9 15 1 15
-20 0 -12 42 9 47 11 3 20 9 20 14 0 5 8 9 19 9 10 0 25 7 32 16 12 15 11 16
-11 9 l-25 -7 23 19 c12 11 22 28 22 37 0 14 -6 16 -35 10 -23 -4 -35 -2 -35
5 0 6 7 11 15 11 8 0 15 5 15 10 0 6 10 10 23 10 14 0 30 12 43 33 l22 34 -25
45 c-15 28 -40 54 -64 67 -29 17 -39 29 -39 47 0 14 -7 27 -15 30 -12 5 -10
10 9 25 17 13 40 19 78 19 29 0 58 4 64 8 19 12 12 43 -13 53 -29 11 -30 37
-1 49 23 9 23 9 -2 10 -25 1 -25 1 -5 16 19 14 17 15 -27 9 -40 -6 -48 -5 -48
9 0 11 9 16 27 16 26 0 26 0 6 17 -11 10 -22 25 -25 34 -4 9 -23 19 -47 23
-22 3 -52 16 -66 29 -21 18 -25 27 -19 55 5 26 9 30 20 21 8 -6 14 -9 14 -7 0
11 -52 106 -72 130 -18 24 -20 31 -10 53 7 14 12 37 12 51 0 36 28 28 57 -15
22 -32 27 -34 77 -35 30 -1 49 2 43 6 -7 4 -19 8 -28 8 -15 0 -49 30 -49 43 0
3 10 7 23 9 26 4 27 19 1 33 -86 46 -135 98 -134 142 1 15 3 14 13 -5 15 -26
74 -65 87 -57 4 3 11 -3 14 -12 6 -14 9 -15 15 -4 7 10 13 11 32 1 13 -6 5 5
-19 25 -23 20 -54 61 -67 89 -26 54 -33 116 -14 116 6 0 35 20 66 45 30 25 59
45 65 45 5 0 -4 14 -21 30 -32 33 -32 65 0 57 23 -6 25 9 2 21 -12 7 -14 17
-10 41 8 38 -18 97 -44 104 -30 8 -23 37 11 43 17 4 30 13 30 20 0 8 4 14 9
14 5 0 11 7 15 15 3 8 0 14 -7 12 -9 -1 -12 20 -12 73 0 41 -4 81 -8 88 -5 7
-9 26 -9 43 -1 32 2 32 -65 13 -35 -10 -28 14 11 37 28 16 37 29 45 70 6 28
11 64 11 82 1 18 7 43 15 57 20 35 18 50 -5 50 -53 0 0 101 65 124 l40 13 -35
16 -35 15 40 1 40 2 -27 16 c-30 19 -44 53 -26 65 9 5 7 12 -6 26 -15 17 -16
23 -4 44 7 12 18 26 25 30 6 5 9 16 6 26 -2 10 6 27 21 41 41 38 31 74 -13 47
-8 -5 -16 -4 -21 4 -9 15 31 80 44 72 5 -3 6 0 2 6 -4 7 -2 12 5 12 7 0 9 3 6
6 -4 4 -18 -1 -31 -10 -37 -23 -47 -21 -36 9 13 34 107 172 123 182 43 25 80
66 82 92 1 15 5 33 9 39 3 6 2 13 -4 17 -5 3 -10 2 -10 -3 0 -5 -8 -12 -19
-15 -17 -4 -19 3 -24 57 -6 71 7 133 40 195 13 24 23 50 23 57 0 7 7 17 16 22
21 12 170 149 246 226 61 62 75 93 37 81 -27 -9 40 56 79 76 15 8 36 22 46 32
11 9 26 17 33 17 7 0 13 5 13 10 0 6 9 10 20 10 11 0 20 5 20 10 0 6 7 10 15
10 8 0 23 8 33 18 28 26 59 42 82 42 11 0 29 9 40 20 11 11 25 20 30 20 6 0
10 4 10 8 0 5 44 37 98 71 98 64 162 131 162 169 0 11 18 42 40 68 22 27 40
52 40 57 0 16 173 177 190 177 5 0 14 8 19 18 5 10 28 27 50 37 41 18 53 39
29 48 -7 3 4 6 25 6 24 1 40 7 43 16 4 8 12 15 20 15 7 0 21 11 30 25 9 14 21
24 27 22 6 -2 22 8 36 21 14 13 50 40 79 59 59 39 72 58 72 102 0 16 4 33 10
36 6 3 10 19 10 36 0 16 5 29 13 29 9 0 8 3 -2 9 -15 10 -6 91 10 91 5 0 9 15
9 34 0 19 7 62 16 95 8 34 16 76 18 93 1 18 8 44 15 57 12 22 12 23 -4 17 -13
-5 -16 -2 -11 10 3 8 6 22 6 31 0 10 6 13 16 9 13 -5 15 -2 11 13 -3 11 0 22
7 24 8 3 8 8 -1 17 -12 13 -7 76 7 95 4 6 11 25 15 43 8 38 30 84 36 77 3 -2
6 9 7 25 2 21 -2 30 -13 30 -22 0 -15 50 12 83 26 33 30 52 8 43 -8 -3 -15 -1
-15 3 0 5 7 12 16 15 10 4 14 14 11 26 -3 10 0 21 5 22 11 4 26 67 33 133 3
22 9 67 14 100 5 33 9 86 9 119 0 32 4 61 9 65 10 6 22 56 30 121 2 19 6 52 9
73 4 22 2 37 -4 37 -5 0 -10 -6 -9 -12 1 -31 -4 -48 -13 -48 -5 0 -10 7 -10
15 0 8 5 15 10 15 6 0 8 10 4 24 -3 14 -2 31 2 38 5 7 7 32 7 55 -1 24 2 43 6
43 4 0 8 6 8 13 0 6 3 36 7 66 6 49 5 53 -8 41 -14 -11 -16 -8 -11 31 6 44 11
56 20 47 3 -3 1 -17 -4 -32 -8 -20 -7 -26 2 -26 8 0 14 15 15 40 2 24 -2 40
-8 40 -8 0 -9 15 -4 48 7 49 23 91 24 63 0 -35 20 8 25 54 4 41 3 44 -4 17
-13 -48 -21 -51 -21 -6 0 48 15 76 29 55 12 -19 17 1 31 124 6 55 17 127 25
160 17 74 22 103 41 235 9 58 22 128 29 155 8 28 17 70 20 95 12 96 17 128 36
202 10 42 19 91 19 110 0 18 7 43 15 55 14 20 32 124 42 243 2 30 5 65 6 77 1
11 5 19 9 17 11 -7 15 20 7 56 -6 26 -4 44 10 71 11 20 19 51 19 70 0 19 8 52
18 74 10 22 18 49 19 60 2 73 20 181 31 193 8 7 14 22 14 33 0 10 5 19 11 19
6 0 8 9 4 21 -7 20 -1 39 31 101 8 14 14 34 14 43 0 18 23 94 47 155 7 19 18
59 23 89 6 30 15 60 20 66 6 7 8 19 5 27 -4 9 0 22 8 29 14 14 20 35 37 119
17 89 110 436 130 488 11 29 20 65 20 81 0 33 28 56 82 66 30 6 38 3 51 -15 9
-12 13 -28 10 -36 -3 -8 0 -35 6 -61 17 -74 23 -122 27 -203 2 -41 6 -104 9
-140 3 -36 8 -89 10 -119 2 -29 8 -58 13 -65 9 -11 21 -80 28 -166 2 -25 13
-103 24 -175 12 -71 25 -168 30 -214 6 -47 13 -87 16 -90 8 -8 -7 171 -16 189
-4 8 -10 60 -14 115 -4 55 -13 143 -21 195 -7 52 -16 127 -20 165 -4 39 -15
125 -25 191 -18 116 -17 154 5 208 6 13 3 23 -10 32 -13 10 -19 29 -21 74 -3
55 6 75 21 50 3 -5 11 -38 16 -72 6 -35 26 -96 45 -136 19 -40 43 -110 54
-155 26 -104 26 -101 45 -167 8 -30 20 -73 24 -95 5 -22 18 -71 29 -110 11
-38 29 -110 40 -160 12 -49 42 -178 68 -285 25 -107 52 -220 59 -250 7 -30 37
-152 68 -271 69 -264 85 -348 97 -509 9 -130 27 -275 55 -445 8 -55 18 -118
20 -141 7 -68 35 -220 51 -276 13 -48 41 -172 94 -418 29 -133 50 -248 50
-274 0 -14 4 -26 10 -28 5 -2 11 -19 13 -38 2 -19 7 -42 9 -50 41 -126 63
-244 72 -391 2 -36 9 -75 15 -87 6 -11 11 -34 11 -51 0 -16 4 -31 10 -33 5 -2
11 -34 14 -73 2 -38 10 -83 16 -100 13 -33 15 -89 3 -108 -9 -15 -12 -97 -4
-97 9 0 35 -196 27 -208 -3 -4 1 -44 9 -88 8 -43 21 -117 30 -164 8 -47 15
-104 15 -127 0 -24 3 -43 8 -43 4 0 5 -21 3 -46 -3 -42 0 -49 35 -85 21 -21
44 -39 51 -39 7 0 13 -5 13 -11 0 -5 14 -15 31 -21 18 -6 26 -13 20 -18 -13
-8 41 -60 62 -60 8 0 21 -8 30 -18 13 -14 14 -21 5 -30 -9 -9 -5 -12 17 -12
39 0 72 -19 35 -20 -24 -1 -24 -1 -6 -15 11 -8 35 -18 55 -21 19 -4 54 -21 77
-39 23 -18 54 -35 68 -39 14 -3 26 -13 26 -20 0 -8 7 -17 16 -20 12 -5 14 -10
5 -19 -8 -11 -4 -17 17 -27 15 -8 38 -25 52 -37 95 -88 158 -136 219 -168 47
-24 280 -259 293 -296 5 -16 13 -29 17 -29 5 0 16 -17 25 -38 14 -31 27 -41
75 -60 32 -12 87 -26 122 -31 67 -10 238 -59 277 -80 24 -13 30 -31 10 -31
-18 -1 31 -39 65 -52 29 -11 78 -74 103 -133 l14 -36 -25 7 c-32 8 -32 -9 0
-26 26 -14 34 -30 13 -26 -7 1 -20 6 -28 11 -26 16 -80 16 -80 -1 0 -8 5 -14
11 -14 5 0 8 -4 4 -9 -3 -5 9 -19 26 -31 16 -12 28 -28 25 -35 -3 -10 12 -13
61 -13 77 -1 92 -9 35 -18 -58 -9 -41 -27 19 -22 32 3 49 1 49 -6 0 -6 13 -11
29 -12 35 -1 91 -23 91 -35 0 -5 -13 -9 -29 -9 -17 0 -32 -4 -36 -9 -3 -6 9
-7 30 -4 44 7 45 -3 3 -21 -21 -9 -26 -15 -15 -15 14 -1 16 -5 8 -20 -7 -13
-25 -20 -61 -23 -28 -3 -56 -10 -61 -15 -16 -16 1 -43 27 -43 14 0 35 -9 47
-20 12 -12 32 -23 44 -26 27 -7 31 -33 6 -35 -10 -1 -36 -1 -58 0 l-40 2 33
-20 c30 -20 41 -32 25 -30 -18 3 -47 -3 -37 -7 7 -3 10 -14 7 -25 -4 -12 1
-25 12 -33 27 -19 9 -39 -29 -32 l-31 5 37 -33 c38 -33 40 -46 6 -46 -10 0
-18 -4 -18 -9 0 -4 -12 -6 -27 -3 -27 5 -27 4 -12 -14 9 -10 19 -31 23 -46 3
-16 12 -28 19 -28 30 -1 110 -100 93 -117 -4 -4 -21 0 -37 9 -21 12 -29 14
-29 5 0 -23 23 -37 61 -37 41 0 58 -15 39 -33 -10 -9 -11 -9 -6 1 5 8 -2 12
-23 12 -28 0 -30 -2 -19 -19 7 -11 22 -22 35 -26 13 -3 23 -10 23 -16 0 -6 -9
-8 -19 -4 -33 10 -18 -52 19 -83 16 -14 30 -29 30 -35 0 -5 6 -15 14 -21 16
-13 49 -113 42 -125 -3 -5 3 -16 14 -26 24 -22 34 -68 20 -94 -9 -18 -7 -21
16 -27 14 -4 54 -4 87 -2 34 3 54 3 45 1 -10 -3 -18 -9 -18 -14 0 -12 27 -12
35 1 8 13 25 13 25 0 0 -5 -6 -10 -14 -10 -8 0 -18 -5 -22 -12 -5 -8 0 -9 14
-6 20 6 21 3 16 -25 -6 -39 -8 -40 -44 -40 -32 0 -40 -11 -15 -21 9 -3 15 -18
15 -35 0 -35 -22 -51 -72 -51 -18 0 -40 -5 -48 -10 -10 -6 3 -8 40 -7 l55 2 3
-38 c2 -26 -3 -45 -17 -63 -30 -39 -26 -55 24 -94 60 -48 63 -59 23 -95 -19
-16 -37 -38 -41 -47 -8 -21 -27 -24 -27 -4 0 8 -13 16 -30 18 -29 4 -40 -5
-20 -17 5 -3 10 -27 11 -53 3 -159 7 -234 16 -292 10 -67 44 -146 86 -196 13
-16 26 -33 28 -39 10 -24 52 -85 58 -85 4 0 29 -20 57 -44 36 -32 46 -48 38
-56 -8 -8 -29 -1 -77 25 -37 19 -67 31 -67 25 0 -14 58 -55 135 -94 82 -42
105 -59 105 -76 0 -8 -9 -10 -27 -6 -57 14 -123 18 -123 9 0 -6 9 -18 20 -28
11 -10 29 -33 40 -51 16 -28 17 -34 4 -34 -8 0 -17 -7 -20 -15 -7 -18 17 -105
28 -105 4 0 8 -7 8 -15 0 -8 15 -32 34 -52 18 -21 40 -54 48 -73 31 -74 51
-137 56 -175 2 -22 8 -45 13 -51 5 -6 7 -18 4 -25 -4 -11 6 -14 40 -14 25 0
45 3 45 7 0 12 35 9 48 -4 18 -18 15 -26 -10 -30 -29 -4 -35 -37 -14 -80 9
-17 16 -37 16 -44 0 -7 14 -24 30 -37 36 -31 37 -35 8 -39 -21 -3 -21 -4 4 -9
15 -4 25 -2 22 2 -3 5 0 9 5 9 6 0 11 -5 11 -11 0 -7 18 -31 40 -55 21 -23 42
-55 46 -71 4 -15 10 -32 14 -38 3 -5 7 -40 9 -77 2 -66 2 -67 -26 -74 -60 -14
-100 -37 -118 -70 -24 -45 -61 -78 -79 -71 -9 4 -13 13 -10 21 4 9 -2 16 -18
19 -13 2 -6 5 19 6 50 1 64 17 28 31 -46 17 -63 11 -120 -43 -54 -51 -55 -54
-44 -85 13 -37 5 -78 -19 -106 -9 -10 -16 -21 -16 -25 1 -3 -3 -17 -8 -31 -5
-14 -15 -45 -21 -70 -11 -42 -34 -77 -80 -120 -20 -20 -67 -32 -67 -19 0 5 4
9 10 9 12 0 94 109 87 116 -3 3 -17 -2 -31 -11 -27 -18 -95 -23 -134 -11 l-24
8 22 23 c13 14 17 25 10 28 -6 3 -5 4 2 3 7 -2 24 1 38 7 14 5 38 11 53 13 16
2 36 8 45 14 16 9 16 9 0 10 -23 0 -23 15 0 32 28 20 59 71 45 75 -6 2 -9 13
-6 23 3 11 0 20 -6 20 -6 0 -11 -5 -11 -11 0 -5 -4 -8 -9 -5 -5 4 -5 22 0 43
11 50 11 73 -1 73 -5 0 -10 -8 -11 -17 0 -13 -3 -11 -11 7 -10 24 -11 24 -17
5 -7 -25 -18 -25 -53 -2 -21 15 -31 16 -47 7 -18 -9 -21 -8 -22 12 -1 13 -1
27 0 31 3 16 -22 87 -31 87 -4 0 -8 4 -8 9 0 5 -5 22 -10 37 l-10 26 -25 -24
c-13 -14 -29 -36 -34 -49 -7 -17 -10 -19 -10 -6 -1 20 -56 25 -65 5 -5 -10 -7
-10 -12 -1 -3 7 -21 15 -41 19 -39 7 -106 63 -129 107 -14 26 -13 26 43 -13
65 -45 77 -49 68 -20 -5 16 -2 20 19 20 14 0 26 5 26 11 0 7 11 22 25 35 l25
24 -20 20 c-11 11 -24 20 -28 20 -10 0 -42 33 -42 44 0 4 16 4 35 0 19 -3 43
-3 52 1 17 6 17 8 -2 22 -20 15 -20 15 3 10 30 -7 30 28 0 60 -19 20 -20 26
-8 33 12 8 12 10 -2 15 -9 4 -22 5 -29 4 -22 -4 -69 12 -69 23 0 5 9 6 20 3
11 -4 20 -2 20 4 0 6 -7 11 -15 11 -8 0 -15 3 -15 8 0 4 -25 18 -55 32 -30 14
-55 28 -55 33 0 4 -6 7 -12 7 -14 0 -82 95 -93 129 -4 12 -2 21 4 21 6 0 11
-4 11 -9 0 -14 50 -71 62 -71 5 0 -7 19 -26 42 -20 23 -36 52 -36 65 0 13 2
23 4 23 2 0 18 -25 35 -55 17 -30 35 -55 39 -55 5 0 27 -16 50 -36 27 -23 55
-37 79 -40 l38 -4 -40 20 -40 21 50 -7 c49 -7 50 -6 32 13 -9 11 -35 26 -57
33 -26 8 -60 35 -96 72 -31 33 -67 66 -80 75 -13 8 -22 19 -19 23 5 8 -44 72
-75 97 -8 7 -32 20 -52 29 -21 10 -44 31 -54 50 -12 21 -22 30 -29 24 -19 -16
-44 14 -40 49 3 22 0 31 -8 28 -7 -2 -13 -16 -15 -30 -2 -19 -9 -27 -23 -27
-16 0 -19 -4 -14 -21 5 -16 3 -20 -12 -17 -14 2 -17 -2 -15 -20 4 -27 -14 -30
-21 -3 -3 11 -13 20 -23 19 -11 0 -27 3 -36 7 -11 4 -18 3 -18 -4 0 -11 39
-31 50 -26 3 1 27 -19 53 -45 l48 -47 -33 5 c-18 3 -43 12 -55 20 -13 8 -23
10 -23 6 0 -5 23 -22 50 -37 63 -36 64 -51 3 -31 -91 29 -91 29 -60 0 34 -33
34 -38 1 -26 -35 14 -41 12 -18 -5 18 -13 18 -14 1 -15 -10 0 -15 -5 -12 -10
4 -6 10 -8 14 -5 5 2 20 -9 35 -25 l26 -30 -41 5 -40 5 20 -22 c30 -31 27 -52
-4 -44 -34 9 -34 -17 0 -32 14 -6 25 -16 25 -22 0 -7 -5 -8 -12 -3 -7 4 -15 8
-18 9 -17 2 -68 32 -87 49 -48 44 -63 55 -73 55 -5 0 -10 5 -10 10 0 6 -4 10
-10 10 -5 0 -10 -20 -10 -45 0 -44 15 -60 26 -30 4 8 11 15 16 15 6 0 5 -7 -3
-16 -17 -20 -19 -221 -2 -255 30 -64 55 -140 49 -155 -4 -11 -2 -15 6 -11 9 3
13 -6 14 -25 l1 -29 -17 28 c-9 15 -30 57 -45 93 -16 36 -40 81 -54 100 -27
38 -128 140 -137 140 -4 0 -4 -13 -1 -30 7 -30 0 -60 -12 -60 -4 0 -5 18 -3
40 6 57 -3 84 -33 100 -14 7 -25 19 -25 27 0 12 -96 63 -119 63 -6 0 -1 -16
11 -36 16 -26 26 -34 40 -30 16 4 19 1 14 -17 -3 -12 1 -29 11 -39 10 -11 12
-18 4 -18 -6 0 -19 9 -29 21 -9 11 -34 29 -55 40 -41 22 -66 17 -45 -8 10 -12
9 -17 -5 -28 -9 -6 -14 -15 -10 -19 4 -3 -4 -16 -16 -27 -16 -15 -21 -28 -17
-45 4 -14 2 -24 -4 -24 -10 0 -14 12 -11 42 2 21 -15 32 -25 16 -5 -7 -9 -26
-9 -43 0 -27 -4 -31 -43 -40 -34 -7 -42 -13 -39 -26 5 -20 -17 -16 -45 9 -10
8 -36 15 -58 15 -38 0 -40 1 -51 41 -26 101 -33 117 -45 112 -9 -3 -15 7 -19
32 -13 79 -38 198 -45 217 -8 24 -2 48 11 39 5 -3 9 -14 9 -25 0 -11 4 -17 10
-14 12 8 -15 77 -35 88 -8 4 -15 15 -15 22 0 8 -4 15 -9 15 -5 0 -12 8 -14 18
-2 9 -3 4 -1 -12 2 -16 4 -41 4 -57 0 -19 5 -29 15 -29 18 0 19 -12 3 -28 -8
-8 -8 -15 2 -27 7 -8 15 -48 17 -88 5 -93 -11 -71 -33 45 -9 46 -23 98 -31
116 -8 18 -18 58 -23 89 -5 31 -14 61 -20 67 -7 7 -9 1 -5 -19 4 -17 2 -41 -4
-55 -9 -24 -10 -23 -10 12 -1 47 -32 127 -73 186 -17 25 -32 55 -34 68 -1 12
-27 57 -58 98 -31 42 -56 78 -56 81 0 12 17 3 47 -25 18 -17 43 -30 57 -30 31
0 74 -54 105 -132 13 -32 29 -62 36 -68 7 -6 16 -22 19 -36 4 -14 11 -22 16
-19 6 3 10 0 11 -7 0 -7 5 2 10 20 9 29 7 38 -17 69 -15 19 -33 56 -40 81 -19
62 -54 105 -116 142 -29 17 -82 53 -118 80 -36 27 -70 49 -76 49 -7 1 -14 8
-18 16 -3 9 -18 15 -34 15 -32 0 -91 48 -84 68 2 7 -1 12 -6 12 -5 0 -22 12
-37 28 -17 16 -26 20 -22 10 10 -29 -24 -30 -65 -2 -40 28 -80 76 -76 91 1 4
-8 27 -20 50 -12 24 -20 43 -17 43 6 0 55 -73 78 -118 14 -27 21 -32 27 -21 6
8 4 16 -3 21 -7 4 -8 8 -4 8 4 0 3 9 -3 19 -14 28 8 22 44 -12 16 -15 33 -27
37 -27 14 0 10 16 -6 30 -8 7 -15 17 -15 23 0 5 -11 25 -26 44 -34 45 -18 41
31 -7 22 -22 46 -38 53 -35 7 3 10 0 6 -6 -3 -6 7 -25 22 -42 l29 -32 -32 29
c-18 16 -36 27 -39 24 -8 -8 56 -78 71 -78 7 0 42 -22 79 -50 78 -58 99 -70
123 -70 10 0 25 -9 33 -20 8 -11 20 -20 26 -20 7 0 14 -6 17 -12 4 -10 7 -10
18 0 10 9 10 12 1 12 -15 0 -58 38 -51 45 3 3 29 -7 58 -21 29 -15 55 -24 58
-20 3 3 -11 13 -32 22 -21 8 -44 22 -52 30 -8 7 -39 21 -69 30 -32 9 -70 29
-92 50 -20 19 -45 37 -55 40 -9 3 -17 8 -17 12 0 4 -18 18 -40 32 -41 25 -54
44 -22 33 30 -11 -14 33 -70 68 -27 17 -46 34 -43 37 7 8 -26 42 -40 42 -18 0
-47 47 -35 55 6 3 10 2 10 -4 0 -6 7 -8 14 -5 9 4 34 -15 66 -49 29 -31 58
-53 65 -51 7 3 34 -18 60 -45 46 -49 75 -64 75 -40 0 13 -58 69 -71 69 -5 0
-9 5 -9 11 0 6 9 8 20 4 36 -11 21 4 -23 24 -23 11 -69 46 -102 78 -33 33 -67
64 -75 69 -8 5 -24 19 -34 32 -31 36 5 28 45 -10 19 -18 43 -40 53 -48 18 -14
19 -14 9 5 -8 15 -7 23 3 33 8 7 14 9 14 4 0 -4 13 -18 29 -30 23 -16 30 -18
34 -8 4 9 -15 29 -47 52 -29 22 -61 50 -71 63 -17 23 -17 23 6 10 13 -7 29
-19 36 -28 6 -9 14 -13 17 -10 3 3 -4 16 -15 28 -36 39 -14 34 60 -13 39 -25
76 -46 81 -46 6 0 10 -5 10 -11 0 -5 5 -7 10 -4 14 9 -7 35 -26 35 -8 0 -14 4
-14 10 0 5 -22 19 -50 31 -53 23 -69 46 -24 35 17 -5 23 -3 19 4 -3 5 -14 10
-23 10 -12 0 -13 3 -4 12 9 9 7 17 -10 35 l-21 23 20 0 c30 0 54 11 47 21 -2
5 0 18 7 30 8 16 8 23 0 29 -16 9 -2 40 15 33 17 -6 18 9 2 25 -10 10 -8 12 7
11 42 -4 67 1 62 14 -2 6 -10 11 -16 9 -7 -1 -10 2 -6 8 3 5 -5 21 -19 34 -34
31 -33 36 9 32 28 -2 35 1 30 12 -3 8 0 21 6 28 8 10 6 19 -10 35 -23 25 -27
39 -11 39 13 0 13 37 -1 45 -5 4 -9 17 -7 28 1 12 0 27 -4 32 -3 6 -14 38 -23
73 -13 44 -30 77 -59 110 -23 26 -53 64 -66 84 -46 70 -193 189 -294 238 -66
32 -195 70 -236 69 -21 -1 -19 -3 12 -13 20 -6 40 -14 44 -18 4 -5 27 -8 51
-8 24 0 43 -4 43 -10 0 -16 -86 -12 -100 5 -16 20 -30 19 -30 -2 0 -14 -3 -13
-21 6 -25 26 -66 25 -61 -1 2 -11 -3 -18 -12 -18 -8 0 -17 -8 -20 -17 -3 -10
-4 -3 -2 15 1 20 -2 32 -10 32 -20 0 -36 -28 -30 -52 l6 -23 -11 22 c-14 27
-45 39 -63 24 -7 -6 -16 -8 -19 -4 -4 3 -7 -1 -7 -10 0 -19 -15 -23 -25 -7
-10 16 -35 12 -29 -5 7 -17 -7 -20 -23 -4 -8 8 -13 7 -18 -1 -4 -7 -1 -16 6
-21 11 -7 10 -9 -3 -9 -10 0 -18 4 -18 9 0 18 -38 7 -55 -15 -14 -19 -21 -21
-41 -14 -18 7 -24 6 -24 -4 0 -7 -8 -20 -17 -27 -15 -12 -16 -12 -10 3 4 12 2
15 -8 11 -10 -3 -13 -13 -9 -29 6 -21 3 -24 -25 -24 -28 0 -31 -3 -27 -25 5
-26 -8 -35 -17 -12 -3 7 -6 4 -6 -6 -1 -10 -6 -15 -12 -12 -6 4 -8 20 -4 38
l6 32 -15 -27 c-8 -15 -12 -35 -10 -45 2 -10 0 -25 -6 -33 -9 -13 -12 -13 -23
2 -9 12 -17 14 -30 6 -10 -5 -26 -6 -37 -3 -14 5 -25 -3 -42 -29 -24 -37 -50
-54 -56 -37 -7 20 -20 11 -15 -9 3 -11 9 -20 14 -20 15 0 10 -28 -7 -34 -29
-11 -36 -6 -32 19 3 14 1 25 -3 25 -5 0 -9 -9 -9 -21 0 -13 -8 -23 -20 -26
-12 -3 -20 -12 -18 -22 4 -21 38 -27 38 -7 0 9 5 16 10 16 18 0 10 -29 -10
-40 -12 -6 -25 -23 -31 -37 -8 -21 -12 -23 -25 -12 -13 10 -17 10 -24 -2 -7
-10 -2 -20 17 -35 24 -19 25 -21 8 -28 -11 -4 -21 -2 -26 5 -4 6 -12 8 -18 5
-18 -12 -34 4 -20 20 9 11 7 14 -15 14 -24 0 -26 -3 -20 -22 3 -13 13 -30 20
-39 8 -8 14 -24 14 -34 0 -15 -2 -16 -17 -4 -15 13 -16 10 -10 -34 6 -45 5
-48 -13 -42 -28 9 -49 -15 -39 -43 5 -12 13 -22 19 -22 16 0 12 -30 -5 -36 -8
-4 -15 -10 -15 -15 0 -4 6 -6 14 -3 20 8 30 -14 15 -34 -7 -9 1 -4 19 12 18
17 32 36 32 43 0 7 4 13 9 13 14 0 25 -21 15 -29 -5 -3 -15 -14 -23 -24 -13
-17 -12 -18 12 -12 21 6 27 3 27 -8 0 -9 -8 -18 -17 -22 -10 -3 -26 -17 -36
-31 -17 -22 -13 -21 37 11 58 37 78 32 26 -6 -20 -16 -27 -26 -20 -34 6 -7 5
-16 -3 -24 -10 -11 -5 -12 28 -7 37 6 39 5 21 -9 -13 -10 -15 -15 -6 -15 9 0
6 -7 -9 -21 -21 -20 -21 -22 -6 -39 17 -18 18 -18 38 1 36 33 54 14 20 -23
-27 -30 0 -20 31 12 16 17 33 30 38 30 5 0 2 -7 -6 -16 -9 -8 -16 -21 -16 -27
-1 -20 -55 -77 -91 -96 -40 -21 -50 -42 -17 -33 24 6 35 13 75 52 25 25 25 25
20 2 l-5 -22 30 21 c16 12 31 19 34 16 13 -12 -34 -79 -80 -113 -58 -44 -75
-63 -76 -83 0 -8 16 0 40 20 22 19 59 50 82 69 l42 35 -21 -30 c-12 -16 -37
-46 -57 -64 -43 -42 -47 -60 -7 -32 15 11 31 18 34 15 3 -4 19 16 36 42 39 64
64 96 57 72 -4 -12 0 -18 11 -18 15 0 15 -2 0 -18 -10 -10 -17 -24 -17 -31 0
-6 -7 -14 -15 -17 -8 -4 -12 -10 -9 -15 7 -13 -16 -40 -27 -33 -5 3 -9 0 -9
-7 0 -12 -29 -38 -43 -39 -4 0 -3 9 3 19 17 33 12 32 -55 -15 -42 -29 -65 -52
-65 -65 0 -25 5 -24 46 7 29 22 34 24 34 9 0 -27 -77 -92 -160 -135 -51 -27
-68 -39 -52 -40 13 0 21 -4 18 -9 -11 -17 98 44 115 64 9 12 52 49 96 84 l78
64 -63 -61 c-56 -55 -62 -64 -52 -83 11 -19 25 -19 25 0 0 11 57 71 80 83 11
6 3 -7 -17 -29 -40 -41 -46 -53 -25 -52 6 0 34 27 62 60 55 66 85 82 35 19
-17 -22 -35 -40 -40 -40 -5 0 -12 -9 -15 -20 -4 -11 -31 -32 -61 -47 -29 -14
-62 -35 -71 -46 -18 -19 -17 -19 17 -13 32 6 33 6 16 -8 -10 -8 -40 -22 -66
-32 -26 -9 -58 -26 -71 -36 l-24 -19 43 6 c23 4 42 5 42 2 0 -3 -21 -15 -47
-27 -27 -12 -59 -27 -72 -33 -35 -17 -119 -96 -102 -97 8 0 29 12 48 26 19 14
51 31 71 36 32 9 87 40 102 58 4 5 75 53 108 74 6 4 12 3 12 -2 0 -5 -30 -30
-67 -56 -121 -84 -168 -119 -152 -113 14 4 15 1 5 -27 -6 -17 -21 -44 -34 -60
-12 -16 -22 -34 -22 -41 0 -7 -25 -36 -56 -64 -30 -28 -60 -66 -66 -83 -7 -18
-23 -53 -38 -78 -40 -69 -61 -128 -49 -136 6 -3 9 -16 6 -28 -3 -11 -11 -41
-17 -66 -14 -57 -51 -150 -61 -150 -3 0 -12 -13 -19 -30 -7 -16 -16 -30 -20
-30 -4 0 -12 -18 -19 -40 -6 -22 -16 -40 -21 -40 -21 0 -42 -63 -37 -108 4
-37 -1 -57 -34 -123 -21 -43 -39 -84 -39 -91 -1 -22 -28 -63 -42 -63 -7 0 -13
-7 -13 -16 0 -9 -6 -24 -14 -33 -22 -27 -5 -29 20 -3 13 14 37 27 52 31 15 4
27 12 26 19 -3 28 2 70 8 63 4 -3 9 -25 12 -49 4 -28 11 -42 21 -42 10 0 16
-12 18 -32 2 -22 7 -30 17 -27 16 7 21 -1 28 -51 4 -24 3 -32 -2 -21 -5 14
-10 16 -15 8 -4 -7 -1 -19 7 -27 13 -13 16 -13 21 1 3 9 6 29 6 44 0 16 8 45
17 65 15 31 21 36 47 33 27 -3 32 -8 37 -41 3 -20 9 -40 12 -43 3 -3 17 16 31
43 28 56 55 93 56 77 0 -6 -3 -14 -7 -18 -13 -13 -30 -75 -21 -78 5 -2 13 -35
19 -73 5 -38 15 -78 23 -90 7 -11 16 -32 20 -47 3 -16 11 -28 16 -28 6 0 10
-7 10 -16 0 -8 5 -12 11 -9 7 5 8 29 4 70 -6 49 -4 68 9 87 9 14 13 28 9 32
-4 4 1 4 12 0 15 -6 17 -4 12 9 -3 9 -2 17 3 17 16 0 24 -24 21 -65 -2 -29 0
-37 8 -29 7 6 12 27 13 48 1 20 5 39 10 42 16 10 9 36 -8 30 -27 -10 -46 12
-31 35 10 16 9 21 -2 28 -10 7 -10 10 -1 16 7 4 16 2 21 -6 13 -21 24 -1 26
49 2 54 19 174 22 153 1 -11 5 -10 15 5 8 10 17 16 21 12 7 -6 -15 -93 -36
-147 -7 -16 -6 -28 1 -35 7 -7 10 -3 11 15 1 16 3 18 6 7 2 -9 -1 -26 -7 -37
-10 -20 -4 -71 9 -71 19 0 30 61 26 142 -5 79 -3 88 14 98 30 15 42 68 40 171
-2 86 -4 92 -15 64 -7 -16 -13 -39 -14 -50 0 -11 -5 -27 -11 -35 -8 -11 -9 -9
-3 10 6 22 5 23 -10 11 -9 -7 -16 -23 -17 -35 0 -11 -3 -15 -6 -8 -6 15 38
131 80 209 18 33 56 86 86 119 43 47 50 51 33 23 -26 -43 -27 -49 -7 -49 8 0
20 10 26 22 6 12 23 33 36 47 l24 26 -19 -35 c-11 -19 -23 -48 -27 -65 l-7
-30 19 22 c10 12 26 32 36 45 l17 22 0 -22 c0 -26 -1 -26 39 -6 17 8 29 20 25
25 -10 16 17 41 31 29 7 -6 19 -9 26 -8 7 2 16 -10 20 -27 4 -16 7 -22 8 -12
2 30 21 8 22 -26 1 -24 4 -18 12 23 9 52 10 53 19 28 5 -16 14 -28 19 -28 5 0
9 -12 10 -27 0 -25 1 -26 9 -8 5 11 9 37 9 57 1 42 13 55 31 33 16 -19 29 -19
52 2 18 16 19 16 25 -5 5 -19 8 -20 21 -10 13 11 15 8 10 -29 -6 -43 4 -58 16
-26 6 15 8 15 16 3 13 -20 13 -53 0 -45 -6 3 -7 -1 -4 -9 3 -9 11 -14 17 -13
7 1 14 -14 16 -33 4 -32 4 -33 11 -10 4 15 1 36 -7 52 -7 15 -9 29 -4 33 5 3
12 -9 16 -26 5 -24 11 -30 26 -26 16 4 19 0 19 -26 0 -18 -4 -27 -8 -20 -4 6
-6 -23 -3 -65 2 -42 8 -81 15 -87 12 -12 12 24 5 210 -4 101 12 130 22 38 l6
-58 1 58 c2 54 21 83 23 35 1 -16 3 -18 6 -6 2 9 10 19 17 21 10 4 17 -18 26
-89 7 -53 18 -99 26 -105 8 -6 14 -21 14 -33 1 -11 7 -32 16 -46 13 -23 14
-20 8 45 -3 39 -9 86 -14 106 -4 20 -4 54 0 75 4 22 8 31 9 22 0 -10 5 -18 11
-18 6 0 8 25 5 63 -2 34 -2 51 1 37 2 -14 12 -50 21 -80 21 -69 18 -53 28
-137 9 -90 24 -96 19 -9 -2 37 1 68 6 71 6 3 10 -3 10 -15 0 -12 4 -18 10 -15
6 3 10 -3 10 -13 0 -28 29 -93 30 -67 0 31 -17 84 -34 100 -10 10 -13 28 -11
53 4 33 3 34 -3 7 -7 -26 -9 -27 -14 -10 -12 38 -18 102 -8 80 7 -17 9 -18 9
-2 1 9 -4 26 -11 36 -9 15 -8 22 5 35 15 16 17 15 22 -11 17 -78 30 -113 42
-109 6 3 14 0 16 -7 2 -7 8 -9 12 -5 4 4 3 13 -2 20 -5 7 -10 33 -11 58 -2 43
-1 44 12 21 10 -18 15 -20 19 -10 5 12 7 12 16 -1 6 -8 9 -21 6 -27 -2 -7 1
-12 8 -10 7 1 10 -10 8 -33 -1 -19 0 -32 4 -28 12 12 7 128 -6 144 -6 8 -9 17
-6 20 11 12 28 -9 53 -61 29 -64 50 -83 39 -36 -9 43 1 39 26 -11 12 -24 25
-45 28 -48 4 -3 12 -16 19 -30 l13 -25 -7 25 c-15 61 -16 80 -4 80 6 0 14 -9
17 -20 5 -19 6 -19 19 -3 11 15 13 16 17 3 20 -64 53 -148 64 -165 16 -24 17
-49 2 -39 -7 4 -10 2 -8 -5 3 -7 9 -12 14 -12 6 0 16 -12 24 -27 l14 -26 9 23
c6 17 4 31 -7 47 -8 13 -15 36 -15 52 0 16 -9 37 -20 47 -14 12 -18 27 -16 49
2 17 4 36 5 43 2 26 30 0 59 -55 17 -31 42 -72 56 -91 14 -19 26 -41 26 -49 0
-7 4 -10 10 -7 6 4 6 12 1 23 -5 9 -12 24 -16 32 -14 36 -124 196 -167 245
-17 20 -29 38 -26 40 2 3 40 -39 84 -92 43 -53 94 -112 112 -130 34 -34 41
-53 20 -53 -7 0 -5 -5 4 -11 10 -5 18 -16 18 -23 0 -8 6 -19 14 -25 8 -6 16
-26 19 -44 3 -18 10 -50 16 -72 13 -51 14 -135 1 -135 -6 0 -8 16 -4 40 5 31
3 45 -11 60 -10 11 -21 17 -26 15 -9 -6 -23 34 -14 43 3 4 10 0 15 -8 6 -8 10
-10 10 -4 0 5 -6 19 -14 30 -14 18 -15 18 -26 -10 -12 -33 -10 -66 5 -68 13
-2 50 -76 42 -84 -4 -4 -13 -1 -21 5 -9 7 -17 8 -20 2 -10 -16 4 -38 32 -52
15 -7 30 -15 34 -17 4 -2 8 8 10 23 2 14 8 26 13 26 15 -1 19 -73 4 -81 -8 -6
-7 -16 7 -41 11 -19 22 -37 27 -40 4 -3 1 -22 -8 -42 -19 -46 -19 -84 0 -121
8 -16 18 -49 21 -73 6 -54 19 -88 44 -120 13 -17 18 -34 14 -49 -4 -14 -2 -24
4 -24 13 0 27 100 16 109 -5 3 -10 38 -11 76 l-2 70 14 -38 c7 -22 23 -50 36
-63 12 -13 20 -27 16 -30 -3 -4 0 -13 8 -21 8 -8 15 -28 15 -44 0 -16 5 -29
10 -29 6 0 10 -13 10 -30 0 -42 -13 -37 -40 15 -13 25 -25 45 -28 45 -3 0 -2
-21 2 -47 13 -89 15 -151 6 -179 -6 -21 -9 -5 -9 63 -1 50 -5 94 -10 97 -11 7
-21 -28 -21 -79 0 -28 -3 -36 -9 -26 -14 22 -25 -48 -12 -81 5 -14 7 -28 5
-31 -3 -3 -7 -40 -9 -83 -5 -88 -22 -198 -36 -229 -8 -17 -9 -16 -5 5 3 14 2
37 -2 50 -6 24 -7 23 -13 -10 -6 -33 -6 -33 -8 13 0 26 -5 47 -10 47 -5 0 -15
2 -23 5 -9 4 -14 -5 -15 -26 -4 -52 -38 -79 -46 -36 l-4 22 -2 -22 c0 -13 -6
-23 -11 -23 -6 0 -19 -9 -30 -20 -11 -11 -24 -20 -29 -20 -12 0 -6 65 14 138
9 35 14 67 10 70 -3 3 -8 -4 -12 -16 -3 -12 -9 -19 -14 -16 -5 3 -6 -1 -4 -8
3 -8 -1 -22 -9 -33 -15 -19 -15 -19 -16 8 0 16 -4 26 -10 22 -5 -3 -10 -19
-10 -36 0 -16 -4 -29 -10 -29 -5 0 -11 -19 -12 -42 -1 -37 -2 -39 -5 -11 -4
29 -23 48 -23 23 0 -5 -7 -7 -16 -3 -13 5 -15 2 -9 -15 5 -16 2 -22 -9 -22 -9
0 -16 -7 -16 -15 0 -8 -6 -15 -14 -15 -7 0 -25 -12 -40 -26 l-26 -26 -9 23
c-11 30 -3 57 11 37 7 -9 8 -2 4 21 -3 18 -6 40 -6 47 0 8 -7 14 -15 14 -10 0
-15 -10 -15 -34 0 -19 -5 -38 -10 -41 -6 -3 -10 3 -10 15 0 11 -7 23 -15 26
-8 4 -15 17 -15 30 0 24 -14 32 -25 14 -3 -5 -12 -7 -20 -4 -8 4 -15 -3 -17
-18 -2 -19 -10 -23 -46 -26 l-44 -3 8 -37 c4 -20 8 -47 8 -60 1 -12 6 -20 13
-18 10 4 21 -87 24 -209 1 -37 -23 -122 -34 -121 -5 1 -16 -12 -25 -29 l-17
-30 -3 38 c-2 20 -7 37 -13 37 -14 0 -11 -78 3 -82 9 -3 9 -6 0 -12 -7 -4 -14
5 -20 26 -9 34 -8 34 -76 21 -27 -5 -28 -4 -22 18 4 13 7 29 6 34 0 6 -2 26
-4 47 -7 71 -40 188 -52 188 -14 0 -38 -65 -29 -79 8 -14 -5 -62 -15 -56 -5 3
-11 28 -15 55 -4 28 -11 50 -17 50 -6 0 -8 11 -4 24 5 20 0 29 -24 46 -30 21
-41 16 -17 -9 10 -10 8 -11 -7 -5 -16 6 -18 4 -13 -9 7 -20 -4 -22 -21 -5 -7
7 -12 9 -12 4 0 -4 7 -14 15 -22 17 -17 21 -74 5 -74 -5 0 -10 14 -10 31 0 27
-2 30 -15 19 -12 -10 -15 -10 -15 4 0 22 -7 20 -34 -11 -12 -14 -26 -22 -29
-16 -3 5 5 21 19 36 17 19 24 36 23 64 -2 30 -3 32 -6 11 -7 -42 -21 -33 -25
14 -4 51 -28 62 -58 26 -19 -23 -19 -23 -20 -2 0 24 -26 81 -41 90 -6 3 -7 -4
-4 -19 5 -17 2 -26 -9 -30 -17 -7 -22 -37 -7 -37 5 0 11 -13 13 -30 4 -27 3
-29 -12 -15 -9 8 -22 15 -28 15 -6 0 -9 6 -6 13 2 7 -13 49 -35 92 -22 44 -40
72 -41 62 0 -11 -5 -15 -11 -11 -6 3 -9 19 -5 35 3 16 1 29 -4 29 -6 0 -10 9
-10 19 0 11 -4 23 -10 26 -6 4 -10 -10 -10 -33 0 -27 -5 -42 -16 -46 -14 -5
-13 -10 5 -42 12 -20 19 -39 16 -42 -3 -3 -5 0 -5 7 0 9 -9 12 -25 9 -21 -5
-25 -1 -26 21 -2 49 -4 54 -18 59 -10 3 -12 0 -8 -11 12 -32 -11 -26 -51 14
-23 22 -53 63 -67 92 -28 55 -45 78 -45 61 0 -5 5 -15 12 -22 24 -24 -9 -12
-37 14 -25 23 -26 26 -11 43 12 14 14 24 7 42 -6 15 -10 18 -10 8 -1 -21 -27
-43 -35 -31 -3 6 1 13 10 16 10 4 14 14 11 25 -2 10 0 27 5 37 9 18 8 18 -5 2
-18 -22 -27 -23 -27 -2 0 10 -6 14 -15 10 -18 -6 -20 15 -4 31 6 6 9 17 7 25
-3 7 -12 -4 -21 -25 -16 -36 -16 -39 3 -60 22 -23 26 -37 10 -37 -5 0 -10 7
-10 15 0 20 -26 19 -34 -1 -3 -9 -6 -26 -6 -39 0 -13 -4 -26 -9 -30 -20 -12
-24 -95 -7 -163 23 -97 21 -123 -13 -156 -18 -17 -31 -24 -35 -17 -4 6 -15 11
-25 11 -30 0 -45 53 -42 147 1 61 -2 85 -11 88 -9 4 -13 29 -14 84 0 83 -39
269 -59 286 -6 6 -14 18 -18 29 -5 14 -11 16 -20 7 -10 -8 -18 -5 -32 12 l-20
22 -6 -30 c-4 -16 -7 -22 -8 -12 0 10 -9 21 -18 24 -10 4 -21 11 -24 16 -4 5
-10 0 -14 -12 -3 -11 -10 -21 -15 -21 -13 0 -22 33 -11 40 6 3 -8 7 -31 7 -29
2 -46 -3 -55 -15 -12 -15 -13 -12 -7 21 4 24 2 37 -5 37 -6 0 -11 -6 -12 -12
-2 -32 -10 -63 -20 -73 -7 -7 -10 2 -9 30 4 93 -12 106 -66 54 l-35 -34 11 29
c6 16 9 35 6 43 -3 7 -1 13 4 13 6 0 10 7 10 16 0 13 -5 12 -26 -5 -33 -26
-55 -28 -26 -2 25 21 29 36 8 28 -8 -3 -16 -1 -18 5 -2 6 -10 3 -17 -6 -12
-14 -11 -16 5 -10 18 7 18 6 3 -12 -9 -10 -20 -43 -24 -71 -12 -90 -23 -79
-41 42 -8 53 -16 59 -43 34 -12 -12 -24 -19 -27 -16 -9 9 19 56 30 50 6 -3 8
-2 3 2 -4 5 0 17 10 27 20 22 12 23 -30 2 -48 -25 -69 -45 -57 -58 5 -7 14
-41 19 -78 13 -77 57 -217 76 -238 7 -8 16 -31 19 -50 l7 -35 -25 28 c-15 15
-26 36 -26 47 0 10 -20 75 -45 146 -25 70 -45 137 -45 149 0 38 -14 38 -33 -2
-9 -21 -15 -29 -11 -18 18 56 14 185 -5 185 -5 0 -17 -26 -27 -57 -13 -41 -20
-51 -22 -36 -2 12 2 31 7 42 6 11 11 30 11 43 0 13 5 29 11 35 13 13 1 85 -14
76 -6 -4 -8 3 -3 20 5 20 3 25 -7 21 -36 -13 -167 -286 -221 -459 -14 -44 -23
-64 -21 -45 2 20 23 90 45 155 23 66 44 130 47 143 3 12 9 22 14 22 5 0 9 8 9
18 0 10 3 22 6 25 4 4 8 23 10 44 l3 38 -23 -30 c-13 -17 -27 -27 -31 -24 -3
4 5 19 19 34 15 16 25 37 25 49 -2 19 -2 19 -6 -2 -3 -14 -10 -22 -18 -18 -7
2 -23 -6 -36 -20 -28 -30 -46 -32 -19 -1 45 50 51 59 61 84 5 14 7 28 4 31 -3
4 -8 -4 -12 -16 -3 -12 -9 -22 -13 -22 -5 0 -12 -9 -15 -20 -3 -11 -13 -20
-20 -20 -18 0 -35 -31 -35 -62 0 -13 -5 -30 -10 -38 -8 -11 -9 -8 -4 13 4 16
2 27 -4 27 -14 0 14 54 44 87 28 30 54 79 54 101 0 25 -40 -17 -57 -59 -10
-27 -20 -36 -37 -36 -19 0 -22 4 -18 21 3 11 12 32 21 45 22 34 22 62 1 51 -9
-5 -23 -16 -30 -25 -17 -20 -56 -42 -46 -26 4 6 3 11 -3 11 -5 0 -15 -8 -20
-18 -9 -15 -10 -15 -11 -1 0 9 7 20 16 23 8 3 13 10 10 15 -3 5 2 8 11 7 10 0
24 12 33 32 9 19 23 38 31 43 11 7 11 9 0 9 -11 0 -11 3 0 17 12 14 12 16 -1
11 -8 -2 -20 -14 -26 -26 -16 -32 -28 -41 -20 -14 5 14 3 22 -4 22 -6 0 3 19
21 43 51 66 52 67 46 67 -4 0 -22 -14 -42 -31 -19 -17 -35 -27 -35 -22 0 12
-50 10 -71 -2 -8 -5 -5 1 5 13 11 13 14 22 7 22 -9 0 -9 5 -1 21 7 12 18 18
26 15 8 -3 14 1 14 9 0 20 -8 19 -53 -5 -38 -21 -53 -10 -17 12 25 16 25 25 0
33 -24 8 -59 -28 -60 -59 0 -11 -3 -16 -7 -13 -3 4 -5 27 -5 53 2 29 -2 43 -8
39 -6 -4 -8 -10 -6 -14 3 -3 -18 -27 -46 -51 -28 -25 -60 -53 -70 -62 -12 -12
-18 -14 -18 -5 1 15 89 109 98 103 4 -2 12 6 19 20 10 21 9 23 -7 14 -9 -5
-20 -7 -23 -4 -5 5 -40 -36 -51 -59 -5 -9 -7 -9 -11 -1 -3 7 -16 10 -28 7 -19
-4 -18 -1 7 19 17 13 48 32 70 43 22 12 41 26 43 32 5 13 -48 -12 -94 -45 -17
-12 -35 -22 -40 -22 -4 0 -19 -12 -32 -25 -22 -24 -23 -30 -17 -115 5 -62 4
-90 -3 -90 -6 0 -11 7 -11 15 0 8 -4 15 -10 15 -5 0 -10 11 -10 25 0 26 -7 30
-26 17 -14 -9 -24 -62 -13 -62 5 0 9 8 10 18 0 14 2 13 11 -5 8 -17 8 -27 -3
-39 -16 -20 -39 -103 -32 -120 5 -13 -43 -54 -63 -54 -24 0 -107 -88 -100
-106 3 -8 6 -21 7 -27 0 -7 4 -3 9 8 7 16 9 12 10 -20 l1 -40 30 33 30 33 -7
-28 c-4 -15 -11 -32 -15 -37 -5 -6 -9 -21 -9 -35 0 -24 1 -24 17 -8 14 14 18
35 18 97 1 87 13 114 39 87 9 -8 21 -17 27 -19 7 -2 11 -25 11 -58 -2 -69 -11
-110 -29 -135 -15 -19 -15 -19 -9 7 3 14 9 33 12 42 3 9 1 16 -5 16 -11 0 -12
-7 -16 -80 -2 -19 -6 -45 -10 -58 -6 -16 -3 -22 8 -22 19 0 39 33 36 58 -1 9
8 50 21 91 19 63 21 81 12 115 -10 40 -7 72 17 181 5 22 9 34 10 28 0 -7 8
-13 16 -13 12 0 14 -7 9 -27 -4 -22 -3 -25 5 -13 9 12 11 10 11 -13 0 -17 4
-26 10 -22 7 4 8 24 4 51 -4 30 -3 44 5 44 6 0 11 -10 11 -22 0 -17 3 -19 12
-10 19 19 30 14 22 -10 -4 -13 -6 -44 -5 -70 1 -28 -2 -48 -9 -48 -5 0 -10 7
-10 15 0 8 -4 15 -10 15 -5 0 -10 -12 -10 -26 0 -16 -4 -23 -11 -18 -9 5 -10
-13 -7 -66 4 -56 2 -82 -12 -114 -10 -23 -20 -57 -24 -76 -5 -29 -2 -38 15
-48 27 -17 35 -9 13 12 -26 27 -5 116 28 116 6 0 7 -8 4 -17 -5 -15 -3 -14 9
2 10 12 12 21 5 23 -22 8 -9 22 20 22 28 0 29 -2 20 -26 -15 -37 -12 -62 7
-83 43 -47 46 -52 34 -64 -6 -6 -11 -16 -11 -22 0 -5 4 -3 10 5 5 8 12 11 16
7 4 -3 1 -13 -6 -22 -13 -15 -9 -25 28 -63 6 -7 12 -24 12 -37 0 -13 5 -27 10
-30 6 -3 10 -14 9 -23 0 -9 -9 0 -18 21 -40 85 -88 104 -111 44 -7 -18 -21
-51 -31 -74 -24 -55 -24 -57 6 -37 13 9 30 14 37 11 8 -4 7 -6 -4 -6 -10 -1
-22 -10 -28 -20 -5 -11 -19 -22 -29 -26 -19 -6 -38 -35 -22 -35 4 0 29 14 54
31 61 40 80 33 25 -10 -33 -26 -37 -31 -18 -26 14 4 37 14 53 22 15 7 27 11
27 8 0 -9 -33 -41 -62 -60 -33 -21 -37 -40 -7 -32 21 6 21 5 -1 -16 -36 -33
-5 -33 38 1 35 27 94 62 107 62 18 0 0 -23 -32 -40 -88 -49 -101 -63 -122
-129 -12 -35 -19 -67 -16 -69 3 -3 5 -1 5 4 0 6 16 28 36 50 l37 39 -5 -61
c-3 -33 -16 -80 -28 -104 -12 -23 -24 -55 -26 -69 -9 -48 -28 -91 -35 -79 -5
7 -13 -3 -23 -27 -9 -20 -16 -39 -16 -42 0 -13 57 43 76 75 19 31 24 34 29 20
4 -11 -1 -30 -12 -48 -22 -34 -139 -120 -164 -120 -19 0 -36 -33 -19 -38 8 -3
7 -8 -1 -18 -8 -10 -8 -14 0 -14 6 0 11 4 11 10 0 13 38 37 73 45 21 6 26 4
22 -7 -3 -7 -15 -18 -28 -23 -26 -12 -37 -55 -13 -55 20 0 21 -16 1 -24 -8 -3
-15 -13 -15 -23 0 -24 39 -70 66 -77 17 -5 23 0 32 32 14 46 48 92 68 92 18 0
18 34 0 49 -10 8 -19 6 -39 -9 -32 -26 -34 -25 -50 8 -18 37 -11 64 23 97 l29
28 9 -23 9 -24 5 22 c4 15 2 20 -5 15 -7 -3 -2 5 11 19 12 13 22 31 22 40 0 9
7 19 16 22 24 9 27 7 10 -10 -9 -8 -23 -41 -32 -72 -9 -31 -19 -63 -21 -69 -3
-8 4 -13 20 -13 21 0 26 6 32 38 4 20 10 32 12 25 2 -6 0 -28 -5 -47 -8 -26
-7 -36 3 -40 20 -7 27 -53 15 -97 -12 -43 -56 -94 -108 -124 -37 -22 -40 -31
-13 -40 11 -3 22 -13 25 -22 6 -14 4 -14 -16 -1 -14 8 -35 12 -53 8 -29 -6
-29 -6 -9 -18 34 -18 56 -59 44 -81 -6 -12 -17 -17 -29 -14 -21 5 -33 -31 -33
-107 0 -25 -2 -37 -5 -27 -5 20 -14 22 -30 6 -8 -8 -15 -5 -24 12 -12 23 -12
23 -19 4 -4 -11 -3 -23 3 -26 5 -4 8 -12 5 -19 -4 -13 -20 17 -34 65 -5 16
-18 31 -28 33 -13 3 -16 0 -10 -9 4 -7 9 -42 10 -78 2 -37 4 -66 4 -66 1 0 3
-12 5 -27 4 -30 -5 -34 -34 -18 -15 7 -17 19 -15 62 l4 53 -16 -35 c-13 -27
-14 -44 -7 -77 6 -23 7 -41 4 -41 -20 4 -62 -26 -81 -56 -12 -20 -26 -36 -31
-36 -17 0 -9 -32 14 -51 27 -23 96 -25 136 -4 18 9 30 25 34 45 4 16 11 30 17
30 7 0 9 -8 5 -20 -10 -32 11 -23 34 15 11 19 25 35 31 35 5 0 10 7 10 16 0 8
4 13 9 10 4 -3 6 -17 3 -31 -2 -14 2 -33 9 -43 7 -9 1 -6 -15 8 -27 23 -28 24
-22 4 5 -17 -1 -24 -32 -38 -22 -10 -50 -28 -63 -40 -41 -38 -72 -54 -132 -67
-36 -8 -57 -17 -57 -26 0 -8 -4 -11 -10 -8 -5 3 -15 -6 -22 -20 -9 -20 -9 -37
1 -76 10 -37 10 -54 2 -62 -6 -6 -11 -16 -11 -22 0 -5 5 -2 11 8 5 9 14 17 19
17 17 0 10 -14 -15 -33 -20 -15 -32 -16 -60 -8 -21 6 -37 6 -41 0 -3 -5 9 -12
26 -15 31 -7 31 -7 11 -25 -11 -10 -27 -16 -35 -13 -9 3 -16 1 -16 -5 0 -6 7
-11 15 -11 7 0 18 -8 24 -18 8 -15 11 -14 20 12 7 18 16 26 25 23 8 -3 16 -1
18 5 2 6 9 3 17 -6 12 -14 10 -16 -18 -16 -17 0 -31 -4 -31 -10 0 -5 4 -10 8
-10 5 0 9 -7 9 -15 0 -9 -10 -15 -24 -15 -12 0 -23 -4 -23 -8 0 -14 82 -92 99
-94 9 -1 34 -3 56 -4 22 -2 59 -6 83 -10 52 -8 95 8 110 42 13 28 25 30 45 9
11 -10 15 -37 15 -92 1 -66 -3 -81 -21 -101 -18 -20 -19 -24 -7 -32 40 -26 75
-22 135 14 32 20 66 36 74 36 9 0 22 4 30 9 11 7 10 14 -8 39 -26 37 -27 52
-3 52 28 0 39 -13 52 -60 6 -25 20 -54 30 -65 10 -11 20 -31 22 -45 2 -20 -3
-26 -27 -33 -53 -16 -60 -23 -57 -53 4 -36 34 -60 83 -68 37 -6 37 -6 36 -51
-1 -25 -7 -45 -12 -45 -6 0 -17 -20 -26 -44 -15 -41 -15 -43 3 -38 10 2 18 13
18 26 0 29 65 103 111 127 63 32 129 24 129 -15 0 -22 -61 -86 -82 -86 -22 0
1 -25 28 -30 23 -4 30 -11 32 -33 3 -28 3 -28 -42 -22 -43 7 -47 5 -81 -30
-35 -38 -41 -62 -26 -100 5 -12 4 -32 -4 -50 -6 -16 -15 -59 -19 -95 -4 -35
-11 -71 -16 -80 -12 -22 -24 -170 -14 -170 19 0 55 74 61 123 3 29 10 57 15
64 5 6 9 38 8 70 -4 134 -2 139 69 196 23 18 23 18 57 -18 19 -21 34 -48 34
-60 0 -12 9 -34 21 -49 16 -21 24 -24 39 -16 26 14 28 13 45 -20 20 -40 19
-53 -5 -47 -11 3 -20 1 -20 -4 0 -5 6 -9 13 -9 15 0 37 -41 37 -66 0 -8 11
-36 25 -61 27 -48 26 -31 25 -343 0 -44 11 -91 19 -85 5 2 12 26 16 52 12 86
70 233 92 233 16 0 17 -37 1 -42 -9 -3 -9 -13 2 -39 8 -19 18 -37 22 -40 15
-10 15 -152 1 -156 -7 -3 -13 -15 -13 -28 0 -26 -70 -88 -111 -98 -14 -4 -38
-18 -55 -32 -16 -14 -38 -28 -48 -31 -27 -9 -45 -28 -100 -107 -43 -60 -47
-72 -42 -103 4 -19 14 -38 22 -41 7 -3 14 -13 14 -23 0 -10 4 -20 9 -22 13 -4
-4 -92 -30 -153 -20 -46 -21 -55 -9 -131 13 -93 3 -128 -45 -154 -16 -8 -37
-38 -56 -77 -26 -54 -30 -72 -27 -130 l3 -68 55 -1 c80 -1 80 -1 80 -35 0 -38
-39 -169 -50 -169 -9 0 -60 -123 -60 -146 0 -8 -13 -20 -30 -25 -46 -16 -36
-29 23 -29 47 0 53 -3 64 -27 27 -57 7 -92 -49 -85 -21 2 -38 9 -39 16 -1 21
-68 69 -82 59 -20 -16 -53 -21 -71 -11 -13 7 -16 4 -16 -13 0 -36 -65 -129
-90 -129 -6 0 -33 -11 -60 -25 -50 -25 -160 -36 -160 -16 0 5 -9 13 -20 16
-34 11 -49 51 -55 145 -4 65 -32 163 -50 177 -18 12 -75 -1 -75 -18 0 -5 -8
-9 -17 -9 -10 0 -28 -15 -40 -33 -19 -27 -22 -43 -19 -92 3 -33 5 -113 5 -179
1 -98 3 -117 15 -113 8 3 17 1 19 -6 3 -9 14 -7 41 6 41 19 91 23 101 7 4 -6
11 -7 17 -4 6 4 9 1 6 -7 -3 -8 1 -26 8 -40 14 -28 8 -99 -7 -99 -5 0 -9 -4
-9 -8 0 -9 39 -23 118 -42 l42 -11 0 -69 c0 -39 4 -70 9 -70 5 0 13 -9 16 -20
5 -16 15 -20 47 -20 24 0 49 -7 64 -19 14 -11 42 -22 64 -26 25 -4 40 -12 40
-21 0 -8 8 -14 17 -14 9 0 35 -9 57 -19 30 -14 72 -21 156 -25 63 -3 116 -5
117 -5 2 -1 9 -17 18 -37 8 -19 19 -33 25 -29 5 3 10 1 10 -5 0 -6 11 -23 25
-38 14 -15 32 -34 40 -43 8 -9 15 -21 15 -27 0 -7 7 -12 15 -12 12 0 15 -14
15 -70 0 -62 3 -72 27 -94 25 -23 29 -24 50 -11 12 8 29 15 38 15 8 0 15 5 15
10 0 6 33 10 80 10 47 0 80 -4 80 -10 0 -5 17 -10 38 -10 33 -1 42 -7 80 -54
23 -29 42 -58 42 -64 0 -5 6 -12 13 -15 25 -9 74 -260 84 -424 l4 -83 698 0
698 0 14 28 c8 15 18 30 24 34 7 5 7 8 0 8 -15 0 33 23 103 49 34 13 65 28 68
32 3 5 14 9 24 9 10 0 22 9 25 20 3 11 13 20 21 20 8 0 26 7 40 17 15 10 54
18 97 20 64 4 77 2 120 -22 26 -15 47 -33 47 -41 0 -8 7 -14 15 -14 7 0 18 -6
22 -13 4 -7 22 -21 38 -32 39 -24 46 -33 69 -78 l19 -37 654 0 655 0 -3 45
c-3 45 19 85 46 85 7 0 18 7 25 15 10 12 10 15 -4 15 -9 0 -16 7 -16 15 0 12
15 15 68 16 81 1 122 7 139 21 7 5 16 7 21 4 5 -3 9 19 9 49 0 40 -4 55 -13
55 -8 0 -14 3 -14 8 0 12 -58 72 -70 72 -6 0 -13 7 -16 14 -3 8 -31 34 -62 57
-86 65 -92 71 -118 111 -17 27 -22 45 -18 67 4 17 3 46 0 65 -6 33 -8 34 -42
29 -44 -7 -110 14 -127 41 -21 31 -77 189 -77 215 0 12 -4 19 -10 16 -5 -3
-10 1 -10 9 0 9 5 16 10 16 6 0 10 11 10 23 0 25 28 57 48 57 7 0 12 16 12 40
0 24 -5 40 -12 40 -6 0 -20 7 -30 17 -17 15 -18 13 -19 -48 l-2 -64 -7 55 c-4
30 -15 69 -24 85 -9 17 -12 31 -6 33 6 2 10 25 10 51 0 50 8 60 71 94 21 12
35 15 37 8 2 -6 21 -11 43 -11 21 0 39 -4 39 -9 0 -5 18 -12 40 -16 25 -4 40
-12 40 -21 0 -24 14 -15 30 19 12 25 14 54 10 127 -6 105 9 152 49 158 11 2
21 7 21 12 0 4 11 18 25 31 28 27 31 39 11 39 -9 0 -12 7 -9 20 3 11 9 20 14
20 5 0 9 9 9 20 0 11 3 20 8 20 4 0 16 18 26 40 11 22 25 40 33 40 10 0 13 22
13 90 0 69 4 97 17 117 14 21 15 27 4 31 -9 3 18 35 73 87 69 66 86 88 86 111
0 16 6 52 13 79 14 52 7 117 -12 123 -6 2 -15 21 -21 43 -6 21 -16 39 -23 39
-7 0 -19 15 -28 33 -8 17 -25 36 -37 42 -12 5 -22 14 -22 20 -1 11 -85 65
-101 65 -13 0 -11 15 8 48 14 24 24 30 50 29 57 -2 81 42 75 136 -1 16 -8 27
-17 27 -8 0 -15 4 -15 9 0 17 -29 20 -44 6 -8 -8 -23 -15 -34 -15 -25 0 -52
-41 -52 -80 0 -33 -19 -40 -40 -15 -7 8 -24 15 -37 15 -24 0 -83 51 -83 71 0
5 -6 9 -13 9 -7 0 -18 9 -25 20 -7 11 -23 20 -36 20 -15 0 -26 7 -29 20 -3 11
-1 20 4 20 5 0 9 18 9 40 0 30 4 40 16 40 14 0 16 9 12 52 -6 59 7 108 28 108
18 0 18 2 -3 45 -14 29 -22 35 -49 35 -17 0 -37 -7 -44 -15 -23 -27 -33 -11
-35 55 -1 36 -5 77 -10 93 -6 24 -5 27 18 27 26 0 37 20 37 72 0 37 -39 138
-56 145 -8 3 -14 9 -14 14 0 16 -48 78 -55 71 -4 -4 -4 3 -1 16 5 13 3 22 -3
22 -6 0 -21 21 -33 48 -12 26 -28 53 -35 60 -7 7 -13 20 -13 28 0 8 -9 33 -19
57 -21 47 -40 139 -47 228 -5 57 -4 58 17 51 14 -6 29 -28 43 -63 11 -30 31
-65 43 -77 19 -18 21 -26 12 -49 -14 -37 -3 -90 21 -106 11 -6 20 -17 20 -23
0 -7 6 -14 14 -17 8 -3 19 -22 26 -41 6 -20 16 -36 21 -36 6 0 24 -13 42 -30
18 -16 36 -30 40 -30 4 0 17 -9 29 -20 26 -24 42 -26 34 -4 -3 9 -6 30 -6 48
0 18 -8 41 -19 52 -10 11 -28 47 -40 80 -20 51 -22 70 -16 142 6 76 9 83 27
80 14 -2 32 -24 55 -68 18 -36 52 -82 73 -103 22 -21 40 -43 40 -49 0 -14 25
-34 75 -59 22 -11 50 -26 63 -32 12 -6 22 -21 22 -32 -1 -23 -42 -57 -68 -54
-78 7 -102 -11 -78 -59 7 -15 20 -57 30 -94 9 -37 26 -85 38 -105 11 -21 24
-51 27 -67 4 -16 15 -34 26 -40 11 -6 22 -14 25 -18 3 -3 17 -9 32 -13 34 -9
70 -49 93 -105 10 -25 22 -49 25 -53 9 -11 63 110 61 137 -13 177 -13 191 8
213 12 12 21 27 21 33 0 5 9 10 20 10 19 0 21 4 35 74 2 11 -1 42 -7 70 -9 44
-21 61 -89 129 -51 52 -80 89 -85 110 -3 18 -12 35 -18 39 -6 4 -50 8 -98 8
-64 0 -98 5 -133 20 -69 29 -135 110 -90 110 20 0 20 51 0 116 -22 72 -20 166
4 181 28 18 42 133 21 173 -15 28 -12 170 4 221 8 24 17 60 20 80 6 31 10 36
27 32 22 -6 48 20 49 50 0 9 5 17 10 17 6 0 16 11 22 25 9 20 19 25 46 25 45
0 112 37 104 58 -3 10 8 5 30 -12 36 -27 101 -38 127 -21 20 11 71 -5 64 -21
-3 -9 2 -14 16 -14 31 0 37 -26 17 -84 -11 -31 -18 -83 -18 -131 0 -44 -7
-125 -15 -180 -8 -55 -14 -107 -14 -115 0 -44 10 -93 20 -103 6 -6 11 -21 11
-34 0 -13 6 -23 13 -23 16 0 28 -23 52 -100 l18 -55 -25 -37 c-14 -20 -33 -44
-42 -53 -9 -9 -16 -29 -16 -44 0 -24 4 -27 34 -29 20 -2 38 3 43 11 30 48 284
58 373 14 35 -17 43 -27 58 -68 17 -50 15 -86 -7 -108 -12 -12 -21 -37 -23
-63 -3 -38 -7 -45 -40 -63 -30 -16 -38 -26 -38 -47 0 -23 5 -28 38 -35 43 -9
192 -8 374 2 110 6 135 5 178 -11 27 -10 50 -22 50 -26 0 -4 7 -8 15 -8 18 0
64 -49 65 -67 0 -7 7 -13 15 -13 9 0 18 -8 22 -17 3 -10 15 -28 26 -41 18 -20
19 -22 3 -22 -9 0 -15 -4 -12 -8 2 -4 0 -43 -6 -85 -10 -74 -9 -80 13 -112 13
-19 32 -35 41 -35 9 0 19 -4 23 -9 3 -5 31 -15 62 -21 32 -7 73 -21 93 -31 19
-11 45 -19 57 -19 12 0 24 -4 28 -10 3 -5 30 -17 60 -26 30 -10 55 -24 55 -31
0 -16 34 -17 62 -2 15 8 19 8 14 0 -5 -7 2 -11 16 -11 13 0 34 -3 48 -5 16 -4
19 -3 9 2 -28 14 -65 48 -72 65 -3 10 -16 18 -28 18 -21 0 -79 29 -79 41 0 3
-17 14 -38 24 -20 10 -51 35 -67 56 -17 21 -36 38 -43 39 -13 0 -102 87 -102
99 0 10 -66 81 -71 76 -6 -5 -8 14 -13 100 -5 97 31 207 82 250 61 51 82 58
168 59 73 1 125 -12 144 -35 3 -3 19 -13 37 -22 17 -9 59 -54 93 -99 35 -46
75 -95 91 -110 45 -44 125 -77 198 -83 36 -4 86 -8 111 -11 25 -2 84 -7 133
-11 l87 -6 0 545 c0 567 0 568 -42 568 -10 0 -18 4 -18 9 0 5 -16 16 -35 25
-19 9 -39 24 -44 34 -9 15 -11 15 -30 -2 -11 -10 -18 -23 -15 -27 3 -5 -2 -12
-10 -15 -9 -3 -29 -28 -46 -55 -29 -47 -116 -138 -132 -139 -5 0 -8 -5 -8 -12
0 -6 -16 -27 -36 -45 -29 -26 -45 -33 -78 -33 -47 0 -88 23 -80 45 4 8 1 15
-4 15 -6 0 -14 9 -17 21 -7 19 -7 20 -21 2 -12 -16 -13 -15 -14 16 0 34 -22
111 -46 166 -17 39 -30 220 -17 237 6 7 13 25 17 41 3 15 11 27 16 27 6 0 15
11 20 25 5 14 14 24 20 23 6 -2 23 25 37 60 14 34 29 62 34 62 5 0 9 11 9 24
0 14 10 33 23 43 27 22 58 60 40 49 -8 -4 -13 -1 -13 9 0 8 16 23 35 32 20 10
30 20 24 23 -7 5 -2 17 14 34 19 20 34 26 66 26 30 0 41 4 41 15 0 14 -13 20
-34 16 -5 -1 -4 5 4 13 10 13 10 16 -1 16 -9 1 -8 5 5 15 28 21 36 19 36 -10
0 -14 5 -25 10 -25 6 0 10 18 10 40 0 22 -4 40 -10 40 -18 0 -10 39 9 45 10 3
24 19 31 35 7 17 16 30 21 30 5 0 9 5 9 11 0 15 38 49 68 60 13 5 39 9 58 9
l34 0 0 -81 c0 -71 2 -80 18 -77 9 1 23 -1 30 -5 9 -7 12 1440 12 7222 l0
7231 -5530 0 -5530 0 0 -37z m796 -538 c16 -8 36 -15 44 -15 9 0 32 -11 52
-25 20 -14 42 -25 47 -25 6 0 27 -16 48 -36 28 -28 33 -38 23 -44 -12 -7 -10
-13 9 -29 13 -11 25 -33 27 -49 4 -33 84 -160 102 -161 7 -1 12 -15 12 -36 0
-28 4 -35 20 -35 11 0 20 5 20 10 0 6 9 10 19 10 11 0 23 5 26 10 4 6 11 8 16
5 5 -4 12 8 16 26 3 19 13 34 25 36 11 3 18 14 18 29 0 13 4 24 10 24 5 0 21
12 35 26 26 26 30 26 107 20 134 -11 168 -18 168 -32 0 -8 10 -14 24 -14 14 0
46 -14 72 -32 l46 -31 -6 -84 c-6 -70 -5 -84 8 -89 9 -3 16 -14 16 -24 0 -10
6 -23 14 -29 15 -12 10 -103 -5 -109 -5 -2 -9 -14 -9 -26 0 -12 -6 -28 -12
-34 -10 -10 -10 -15 1 -21 11 -7 10 -14 -8 -36 -11 -15 -21 -34 -21 -41 0 -7
-8 -11 -20 -9 -14 3 -20 -2 -20 -15 0 -17 -9 -18 -124 -16 -67 2 -128 6 -135
10 -6 4 -16 4 -23 0 -6 -4 -8 -3 -4 4 9 15 -13 27 -27 13 -19 -19 -24 -12 -31
42 -12 91 -25 125 -67 166 -31 32 -47 41 -74 41 -28 0 -35 4 -35 19 0 28 -25
45 -49 32 -11 -6 -29 -11 -40 -11 -11 0 -48 -28 -83 -62 -73 -71 -115 -108
-125 -108 -3 0 -14 -6 -22 -13 -9 -7 -32 -18 -51 -24 -156 -50 -308 -57 -353
-15 -13 12 -27 22 -32 22 -13 0 -85 72 -85 85 0 7 -9 20 -20 30 -11 10 -20 27
-20 37 0 10 -8 33 -17 51 -29 55 -56 277 -34 277 6 0 11 7 11 15 0 18 7 27 78
102 28 31 52 59 52 64 0 5 11 11 24 15 14 3 32 14 42 25 9 10 23 19 31 19 8 0
21 6 28 14 8 7 45 21 82 30 37 10 79 21 93 26 38 12 55 11 86 -5z m-342 -1804
c10 -11 28 -22 42 -25 13 -4 24 -10 24 -15 0 -21 84 -53 130 -49 44 3 49 0 96
-47 28 -27 57 -66 64 -85 8 -19 17 -37 20 -40 3 -3 14 -16 23 -30 22 -32 24
-130 2 -130 -8 0 -15 -6 -15 -14 0 -7 -7 -19 -15 -26 -8 -7 -15 -23 -15 -35 0
-13 -15 -39 -33 -57 -18 -19 -44 -50 -57 -69 -14 -18 -36 -43 -50 -54 -14 -11
-38 -32 -53 -47 -20 -20 -39 -28 -63 -28 -24 0 -34 -5 -34 -15 0 -19 -2 -19
-48 2 -33 14 -34 17 -14 20 31 6 28 20 -10 43 -18 10 -38 24 -45 29 -16 15
-36 14 -52 -1 -11 -10 -14 -10 -18 0 -3 6 -12 12 -21 12 -20 0 -72 62 -72 84
0 9 -18 25 -40 36 -23 12 -38 25 -35 30 4 6 -2 10 -11 10 -10 0 -24 7 -33 15
-9 8 -40 36 -69 62 -119 106 -172 161 -172 176 0 9 11 28 26 42 14 14 22 29
19 35 -6 10 29 33 38 24 7 -7 115 25 123 37 3 6 18 8 33 5 19 -5 22 -4 11 4
-11 7 -4 10 28 10 23 0 59 9 79 20 21 11 45 20 55 20 23 0 68 21 68 32 0 8 54
37 71 38 3 0 14 -9 23 -19z m4715 -9508 c-8 -10 -18 -21 -24 -25 -6 -5 -6 -11
1 -18 8 -8 14 -7 24 5 7 8 19 15 26 15 8 0 14 5 14 10 0 6 6 10 12 10 7 0 -12
-24 -41 -52 -30 -29 -60 -66 -67 -83 -16 -38 -50 -75 -69 -75 -8 0 -15 -5 -15
-10 0 -6 -19 -29 -42 -51 -48 -46 -78 -87 -78 -106 0 -22 14 -14 33 18 10 18
20 29 24 26 3 -4 -6 -22 -21 -42 -18 -23 -25 -42 -21 -55 4 -14 2 -20 -8 -20
-14 0 -67 -57 -67 -72 0 -4 -4 -8 -10 -8 -5 0 -10 5 -10 11 0 10 48 79 63 90
5 3 4 25 -3 47 -13 51 -35 47 -51 -9 -7 -21 -16 -39 -21 -39 -13 0 -9 42 6 59
20 24 37 81 24 81 -6 0 -8 11 -5 29 3 15 1 33 -4 38 -8 8 -7 13 0 17 6 4 11 2
11 -3 0 -6 7 -11 15 -11 8 0 15 5 15 10 0 10 41 31 49 24 2 -2 -3 -10 -11 -17
-9 -9 -15 -38 -16 -77 -2 -55 0 -61 13 -50 9 7 13 21 10 31 -3 9 -1 20 4 24 7
3 8 0 5 -10 -13 -32 25 -3 65 51 22 30 39 54 37 54 -6 0 -43 -36 -64 -64 -12
-16 -22 -22 -22 -15 0 8 13 30 28 49 16 19 32 43 35 53 4 11 16 21 27 24 11 3
17 9 14 14 -3 5 0 9 5 9 15 0 14 27 -1 33 -8 3 -3 9 12 15 14 5 41 26 59 46
36 37 65 50 40 19z m2552 -759 c22 -23 24 -24 36 -8 16 22 17 1 2 -28 -6 -11
-13 -55 -15 -97 -2 -42 -7 -107 -12 -144 -5 -40 -4 -71 1 -74 5 -3 6 -22 2
-42 -4 -20 -7 -83 -6 -141 1 -57 -1 -117 -5 -133 l-6 -28 -19 25 c-11 14 -18
28 -17 33 1 4 -1 28 -5 53 -4 25 -4 59 1 75 10 36 -7 94 -25 88 -16 -6 -17 8
-3 25 7 8 7 9 -1 3 -13 -11 -39 -4 -39 11 0 5 4 7 9 4 13 -8 27 16 25 41 -1
20 3 22 30 18 17 -2 25 -2 19 1 -20 9 -15 24 7 24 16 0 20 7 20 30 0 17 -4 30
-10 30 -5 0 -10 14 -10 31 0 22 -9 41 -30 61 -27 25 -37 54 -30 83 2 6 3 20 4
32 1 19 30 52 47 53 3 0 16 -11 30 -26z m1064 -84 c3 -5 15 -10 26 -10 10 0
19 -4 19 -9 0 -5 8 -17 17 -27 16 -16 16 -16 -5 -10 -30 10 -28 -10 4 -30 14
-10 34 -35 45 -56 11 -22 23 -37 26 -34 11 11 32 -29 33 -61 0 -24 -5 -33 -16
-33 -20 0 -13 -24 9 -28 10 -2 17 3 17 12 0 22 13 20 35 -4 16 -17 16 -20 3
-15 -21 8 -35 -17 -39 -70 -2 -22 -10 -45 -17 -50 -10 -8 2 -21 49 -53 59 -41
63 -42 80 -26 23 21 32 14 33 -26 1 -16 5 -30 9 -30 11 0 -4 -74 -17 -82 -26
-18 -57 -6 -98 38 -34 36 -52 46 -86 51 -40 5 -42 5 -42 -21 0 -33 45 -102 70
-109 23 -6 45 17 34 35 -6 9 -3 9 10 -1 13 -11 14 -16 4 -22 -12 -8 -4 -13 15
-10 4 0 7 -3 7 -9 0 -5 -5 -10 -11 -10 -8 0 -8 -4 1 -15 6 -8 9 -19 5 -25 -3
-5 1 -13 9 -16 31 -12 15 -20 -36 -20 -32 0 -53 -4 -56 -12 -2 -6 -17 -12 -33
-12 -27 0 -29 -2 -23 -26 6 -25 5 -26 -20 -20 -26 6 -37 -8 -13 -17 7 -3 5 -6
-6 -6 -9 -1 -25 3 -35 8 -9 5 -25 12 -36 15 -15 5 -16 9 -6 21 10 12 9 15 -7
15 -34 0 -173 115 -173 142 0 6 16 -5 36 -24 44 -45 79 -57 70 -25 -5 20 -4
20 8 5 13 -17 66 -26 66 -10 -1 9 -66 42 -85 42 -8 0 -15 7 -15 15 0 8 -6 15
-14 15 -12 0 -106 72 -153 117 -15 14 -17 33 -3 33 6 0 10 -7 10 -15 0 -8 6
-15 14 -15 8 0 27 -5 43 -12 15 -6 31 -11 35 -10 4 1 17 -6 28 -15 15 -13 17
-19 7 -26 -8 -6 -6 -7 6 -3 10 3 30 -2 45 -12 14 -9 42 -22 61 -29 l35 -12
-36 33 c-20 19 -34 37 -31 40 4 3 13 0 22 -8 15 -13 83 -36 109 -36 6 0 12 5
12 10 0 6 -9 10 -19 10 -11 0 -40 11 -65 24 -26 14 -55 22 -66 19 -11 -3 -20
0 -20 6 0 6 -23 22 -51 36 -27 14 -63 37 -78 51 -15 13 -36 31 -47 39 -17 13
-17 14 -2 15 9 0 20 -4 23 -10 3 -5 24 -14 47 -20 22 -6 45 -16 52 -21 6 -6
25 -18 43 -27 130 -70 176 -93 179 -89 9 9 -19 55 -39 64 -20 9 -19 10 11 28
41 25 40 35 -3 35 -41 0 -114 34 -133 61 -7 11 -17 19 -23 19 -5 0 -18 9 -29
20 -13 13 -16 20 -7 20 8 0 17 -3 21 -7 9 -10 98 -43 114 -43 26 0 10 16 -38
38 -29 13 -48 28 -44 34 4 7 9 6 15 -3 4 -7 11 -10 15 -6 4 4 13 2 20 -4 8 -7
19 -7 30 -1 13 8 10 11 -20 16 -35 7 -118 56 -132 78 -3 5 13 -1 37 -14 51
-28 129 -37 129 -16 0 7 -7 24 -16 36 -14 20 -14 22 0 22 19 0 19 2 4 35 -6
14 -17 25 -24 25 -7 0 -14 10 -16 23 -2 12 -9 21 -16 20 -6 -2 -12 4 -12 13 0
13 5 12 29 -6 l30 -20 15 21 c13 19 13 25 0 50 -7 15 -14 33 -14 39 0 13 37
13 45 0z m-188 -789 c34 -22 69 -41 77 -41 19 0 22 -20 4 -21 -7 0 6 -9 29
-19 46 -20 124 -21 161 -1 26 14 54 15 32 1 -18 -11 -13 -16 23 -25 16 -4 27
-3 27 3 0 5 12 12 28 15 15 3 35 9 45 12 17 7 17 6 0 -24 -12 -20 -26 -31 -41
-31 -13 0 -20 -4 -17 -10 3 -5 12 -10 20 -10 8 0 26 -11 41 -25 15 -14 33 -25
42 -25 9 0 12 -6 8 -16 -4 -12 -2 -15 9 -11 8 4 17 2 20 -3 18 -28 84 13 72
44 -5 12 -16 14 -51 10 -25 -4 -53 -3 -63 1 -14 5 -4 12 42 30 75 28 95 21 95
-35 0 -26 -8 -48 -25 -68 -29 -35 -30 -39 -10 -58 18 -18 10 -40 -32 -84 -18
-19 -33 -39 -33 -43 0 -11 37 11 43 25 4 8 6 7 6 -4 1 -9 6 -20 12 -24 9 -5
10 1 5 19 -5 22 -3 25 11 20 57 -20 71 -78 28 -117 -23 -21 -32 -23 -89 -19
-58 5 -67 3 -99 -21 -29 -22 -35 -33 -34 -62 1 -34 -13 -54 -40 -54 -18 0 -16
19 2 26 20 8 19 33 -2 56 -15 17 -14 18 16 24 27 6 32 11 28 28 -20 87 -20 85
-1 82 21 -3 49 28 39 44 -3 6 5 14 18 19 31 12 33 16 42 70 7 41 6 43 -15 36
-19 -6 -21 -4 -17 24 4 22 1 31 -9 31 -8 0 -14 5 -14 10 0 6 -7 10 -15 10 -13
0 -13 -3 -3 -20 10 -16 9 -25 -6 -50 -17 -30 -17 -32 1 -45 11 -8 22 -10 28
-4 12 12 25 12 25 0 0 -5 -14 -14 -31 -20 -62 -21 -62 -22 -131 91 -10 15 -15
28 -12 28 4 0 1 6 -5 14 -7 8 -13 28 -13 45 -1 21 -6 31 -17 32 -77 3 -119 20
-217 89 -32 22 -62 40 -68 40 -15 0 -126 117 -126 132 0 7 21 -8 48 -34 26
-25 75 -64 109 -87z m-4797 -884 c0 -18 65 -77 85 -77 17 0 20 16 5 25 -12 7
-14 55 -2 55 17 0 54 -49 49 -64 -7 -18 23 -31 37 -15 8 8 8 13 -1 16 -7 3
-13 11 -13 19 0 12 4 12 30 -1 29 -15 40 -35 20 -35 -30 0 1 -19 80 -49 50
-18 90 -37 90 -41 0 -12 -63 -21 -97 -14 -20 4 -44 0 -69 -12 -28 -14 -56 -18
-101 -15 -35 1 -63 -1 -63 -6 0 -18 74 -65 109 -70 33 -5 39 -2 44 17 5 20 11
22 46 17 21 -2 43 -1 48 4 6 6 27 3 52 -6 24 -8 63 -15 87 -15 38 0 44 -3 44
-20 0 -24 -23 -34 -107 -49 -32 -6 -85 -22 -118 -36 -33 -13 -75 -25 -94 -25
-42 0 -118 37 -124 61 -4 15 1 14 39 -7 42 -23 124 -34 124 -15 0 5 -18 11
-40 15 -75 12 -167 75 -199 136 -11 22 -21 43 -21 45 0 7 43 -18 51 -29 4 -4
9 -3 13 3 4 6 -4 20 -18 32 -33 29 -41 80 -19 121 9 18 16 36 15 41 -1 4 3 7
8 7 6 0 10 -6 10 -13z m-272 -415 c13 11 14 11 8 0 -11 -18 -50 -32 -57 -20
-3 5 -9 2 -12 -6 -5 -12 3 -23 26 -36 31 -19 31 -20 10 -26 l-23 -6 22 -23
c12 -13 28 -21 35 -18 8 3 21 -1 31 -9 9 -7 30 -15 47 -17 25 -3 27 -1 17 12
-17 21 -13 124 5 131 8 3 11 2 8 -4 -9 -14 34 -33 63 -27 14 3 36 -2 49 -10
13 -9 38 -17 56 -18 17 -2 31 -8 30 -14 -2 -7 5 -7 22 -1 14 5 26 7 26 5 10
-38 21 -55 36 -55 10 0 12 6 8 21 -10 31 14 14 26 -18 5 -14 18 -27 29 -30 11
-3 20 -11 20 -17 0 -15 59 -71 83 -79 9 -4 17 -13 17 -20 0 -8 11 -19 25 -25
24 -11 35 -32 16 -32 -29 0 -73 27 -107 67 -91 106 -88 103 -112 97 -14 -4
-21 -12 -18 -20 4 -10 -3 -14 -22 -15 -23 0 -24 -2 -8 -8 18 -7 18 -8 2 -14
-10 -4 -30 -7 -44 -7 -15 0 -34 -6 -42 -13 -20 -16 -60 -74 -60 -86 0 -6 -8
-15 -19 -20 -23 -13 -32 -43 -17 -63 12 -17 65 -31 110 -30 48 1 13 -20 -41
-25 -39 -4 -52 -1 -70 17 -13 11 -23 27 -23 35 0 8 -11 22 -25 31 -14 9 -25
24 -25 34 0 30 -45 52 -94 45 -75 -12 -146 48 -161 135 -4 25 -12 40 -21 40
-8 0 -14 -6 -14 -12 0 -9 -4 -8 -10 2 -8 11 -12 12 -18 3 -5 -8 -13 -9 -22 -3
-8 6 -19 10 -25 10 -5 0 -4 -4 3 -9 10 -6 9 -13 -7 -32 l-20 -24 6 45 c7 54 6
53 41 57 48 5 50 6 45 22 -4 9 7 4 24 -12 l30 -28 -4 28 c-3 21 -2 24 6 13 5
-8 13 -11 17 -7 4 3 1 13 -5 21 -9 11 -10 20 -2 33 6 10 11 15 11 11 0 -5 10
1 23 13 38 35 41 35 60 16 15 -15 21 -16 35 -5z m429 -354 c42 -43 95 -150
105 -213 5 -27 11 -65 15 -82 9 -56 -16 -39 -82 54 -49 69 -69 119 -71 173 0
30 -4 65 -9 78 -11 31 6 27 42 -10z m4010 -366 c7 -9 10 -30 8 -47 -2 -16 -7
-55 -10 -86 -6 -51 -8 -56 -39 -67 -77 -28 -89 -9 -63 101 30 125 33 130 64
122 15 -3 33 -14 40 -23z m-614 -254 c30 -25 31 -27 12 -34 -63 -24 -56 -64
11 -64 15 0 24 -6 24 -16 0 -12 -6 -15 -22 -9 -13 4 -31 7 -40 6 -10 0 -18 7
-18 15 0 13 -29 19 -85 17 -28 -1 -104 18 -110 28 -3 4 13 13 37 19 23 7 64
21 90 33 39 17 47 24 42 40 -4 11 -1 23 7 28 10 6 15 2 17 -14 2 -12 18 -34
35 -49z m-216 -117 c34 -24 30 -57 -8 -65 -54 -10 -211 19 -246 47 -19 14 -5
29 17 17 13 -7 21 -7 26 1 4 6 20 9 38 6 17 -3 47 1 66 8 40 14 75 9 107 -14z
m-451 -546 c-9 -18 -16 -49 -16 -69 0 -20 -4 -36 -9 -36 -6 0 -17 -26 -27 -57
-9 -32 -20 -66 -25 -75 -5 -10 -9 -24 -9 -32 0 -14 -16 -23 -59 -31 -16 -3
-21 1 -21 16 0 10 7 19 15 19 10 0 15 10 15 34 0 19 4 46 10 60 5 14 12 52 15
83 3 32 10 60 15 61 6 2 10 12 10 21 0 10 19 37 42 61 l42 43 9 -33 c6 -23 4
-42 -7 -65z m1143 -419 c10 -17 10 -29 2 -44 -6 -11 -11 -33 -11 -47 0 -25
-15 -64 -29 -75 -4 -3 -12 -17 -19 -33 -11 -26 -46 -47 -78 -47 -23 0 -19 92
6 115 11 10 20 26 20 36 0 30 60 119 79 119 10 0 23 -11 30 -24z m-912 -143
c4 -10 10 -20 14 -23 5 -3 2 -24 -6 -45 -8 -22 -14 -57 -15 -77 0 -21 -4 -38
-10 -38 -5 0 -10 -8 -10 -18 0 -24 -19 -42 -36 -35 -10 4 -14 -4 -14 -30 0
-30 3 -34 20 -30 13 4 22 -1 26 -13 7 -20 36 -49 90 -90 22 -17 44 -24 76 -24
43 0 45 -1 58 -40 7 -22 17 -40 22 -40 4 0 8 -9 8 -20 0 -11 5 -20 10 -20 6 0
10 -9 10 -19 0 -11 5 -21 11 -23 16 -5 23 -82 9 -122 -11 -34 -14 -36 -56 -36
-24 0 -44 5 -44 11 0 21 -21 -4 -44 -54 -28 -57 -36 -128 -18 -149 7 -9 9 -35
5 -71 -5 -46 -9 -57 -24 -57 -10 0 -23 -9 -29 -19 -5 -11 -19 -23 -30 -26 -11
-3 -20 -13 -20 -21 0 -8 -6 -14 -13 -14 -7 0 -18 -9 -25 -20 -8 -13 -23 -20
-42 -20 -63 0 -80 91 -28 143 15 15 28 34 28 42 0 8 6 15 13 15 8 0 20 11 27
24 11 21 11 31 0 58 -7 18 -20 41 -29 51 -10 12 -12 21 -5 25 6 4 16 21 22 39
6 17 24 46 41 64 27 28 31 39 31 85 0 30 -4 54 -10 54 -5 0 -10 9 -10 20 0 11
-7 20 -15 20 -9 0 -19 8 -22 18 -4 9 -15 24 -25 33 -10 9 -18 28 -18 42 0 13
-6 27 -14 30 -21 8 -27 64 -11 104 17 41 20 133 5 133 -14 0 -1 70 16 88 8 7
19 32 25 55 15 55 43 75 56 40z m335 -181 c-7 -2 -12 -8 -12 -13 0 -6 4 -8 8
-5 5 3 26 -14 48 -37 54 -58 64 -72 69 -97 2 -13 11 -30 20 -40 8 -9 15 -27
15 -41 0 -13 7 -33 15 -43 19 -26 19 -65 0 -72 -8 -4 -15 -17 -15 -30 0 -18
-5 -24 -22 -24 -13 0 -29 -4 -37 -9 -16 -11 -21 -4 -68 94 -47 98 -59 127 -77
188 -16 55 -16 60 1 97 17 38 38 52 58 41 5 -2 4 -6 -3 -9z m-3291 -1719 c2
-65 -1 -73 -44 -114 -33 -31 -50 -39 -78 -39 -42 0 -48 12 -41 73 3 28 9 37
23 37 10 0 19 7 19 15 0 8 9 20 20 27 11 7 20 18 20 25 0 8 15 13 40 13 39 0
40 -1 41 -37z m2249 -748 c7 -8 19 -15 26 -15 8 0 14 -4 14 -10 0 -5 11 -20
24 -33 16 -16 25 -38 27 -64 5 -64 -11 -73 -146 -80 -103 -5 -115 -4 -115 10
0 10 -4 17 -9 17 -14 0 -42 67 -35 84 3 9 33 36 66 61 65 48 123 60 148 30z"/>
<path d="M5952 16799 c-18 -17 -32 -39 -32 -49 0 -10 -5 -20 -12 -22 -12 -4
-37 -96 -37 -138 0 -22 2 -21 20 13 11 20 24 37 29 37 5 0 12 9 15 20 4 11 23
28 43 37 l37 16 -30 7 c-24 6 -25 8 -7 9 12 0 22 5 22 10 0 5 11 9 25 9 28 0
42 8 32 18 -3 4 -18 7 -32 7 -21 0 -25 4 -25 28 0 37 -9 36 -48 -2z"/>
<path d="M6150 16611 c0 -5 -6 -16 -13 -23 -22 -21 -28 -74 -11 -89 18 -15 24
-9 33 33 8 36 13 -34 31 -422 33 -715 57 -1048 96 -1363 13 -109 24 -219 25
-245 0 -26 3 -41 6 -34 9 24 21 12 28 -30 6 -33 9 -38 17 -24 7 12 5 32 -6 63
-18 53 -21 107 -6 98 6 -3 10 0 10 9 0 8 -5 16 -11 18 -9 3 -9 10 1 27 7 15 8
21 1 17 -7 -5 -11 4 -11 23 0 16 5 33 11 37 8 4 8 8 1 13 -7 4 -13 79 -17 196
-10 337 -35 797 -50 925 -13 115 -20 174 -45 377 -5 39 -13 98 -19 130 -5 32
-15 102 -22 156 -9 78 -15 100 -30 108 -12 6 -19 6 -19 0z"/>
<path d="M5865 16523 c-4 -21 -11 -43 -17 -50 -5 -7 -8 -44 -6 -82 3 -62 1
-71 -16 -75 -14 -3 -17 -10 -11 -23 4 -10 12 -65 17 -123 14 -163 16 -170 39
-170 19 0 20 5 18 90 -2 49 0 92 4 96 11 11 8 54 -3 54 -6 0 -5 10 2 25 6 14
15 25 20 25 4 0 8 7 8 15 0 8 -6 15 -12 15 -9 0 -10 3 -2 8 14 9 26 70 15 74
-5 2 -11 33 -14 70 -3 37 -8 72 -12 78 -12 19 -23 10 -30 -27z"/>
<path d="M5852 15958 c-7 -7 -12 -23 -12 -36 0 -21 2 -23 15 -12 22 18 29 6
17 -28 -5 -16 -8 -40 -5 -53 3 -16 -4 -33 -22 -51 -20 -22 -25 -37 -25 -82 0
-30 4 -66 10 -81 7 -17 7 -24 0 -20 -6 3 -11 -2 -11 -12 -8 -88 -6 -134 6
-168 19 -54 34 -169 29 -230 -7 -110 -70 -455 -85 -465 -12 -8 -22 -60 -12
-60 6 0 8 -29 7 -67 -2 -38 -4 -89 -4 -115 -1 -30 -6 -48 -15 -52 -10 -4 -13
-14 -9 -34 3 -16 1 -39 -5 -51 -8 -15 -8 -21 -1 -21 12 0 3 -73 -10 -78 -14
-5 14 -93 32 -103 21 -12 42 -3 35 15 -3 7 -1 34 4 59 5 30 5 57 -2 74 -7 19
-6 28 2 34 8 5 10 23 6 56 -3 26 -1 71 4 98 17 86 28 257 18 282 -5 14 -5 40
1 66 5 23 14 83 21 132 6 50 18 130 26 179 15 94 10 215 -10 228 -11 7 -17
315 -7 320 8 4 41 138 46 183 4 40 -11 105 -25 105 -4 0 -12 -5 -19 -12z"/>
<path d="M5720 15865 c0 -14 -4 -25 -9 -25 -10 0 -19 -60 -25 -182 -3 -47 -14
-104 -30 -147 -14 -38 -28 -94 -32 -123 -4 -29 -11 -61 -16 -72 -16 -29 -26
-403 -13 -439 4 -8 2 -18 -4 -22 -15 -9 -14 -45 2 -45 9 0 8 -3 -2 -9 -8 -5
-11 -16 -6 -30 5 -17 14 -123 18 -216 0 -11 -2 -87 -5 -170 -4 -82 -4 -134 -2
-115 8 75 27 177 40 220 16 53 20 155 9 226 -6 41 -4 58 14 94 25 53 26 70 4
70 -14 0 -14 2 -1 18 24 28 41 80 36 112 -2 16 -1 31 2 32 4 2 10 25 12 51 4
36 2 50 -8 54 -17 6 -18 37 -2 66 7 12 14 45 15 72 2 28 4 66 5 85 1 19 -1 49
-5 65 -3 17 -4 24 -1 18 11 -26 19 -11 18 34 -1 55 6 75 16 47 4 -10 6 24 3
76 -2 66 0 90 7 80 12 -19 13 -9 1 24 -6 13 -11 51 -12 83 -1 32 -4 66 -7 76
-7 26 -22 21 -22 -8z"/>
<path d="M6390 14480 c-6 -53 2 -390 11 -489 10 -109 23 -136 61 -127 10 2 20
0 23 -5 3 -4 12 -6 20 -2 8 3 15 0 15 -7 0 -15 51 -4 61 12 4 6 16 8 27 6 25
-7 37 16 17 32 -8 7 -13 16 -10 20 3 5 0 21 -6 37 -6 15 -13 47 -16 71 -6 51
10 56 43 15 32 -41 39 -23 11 30 -14 25 -21 49 -16 54 4 4 2 19 -6 33 -8 14
-18 33 -21 43 -3 9 -11 17 -16 17 -6 0 -8 7 -5 14 4 10 1 13 -9 9 -10 -4 -14
2 -14 22 0 30 -58 155 -71 155 -5 0 -9 7 -9 15 0 9 -6 12 -15 9 -9 -4 -15 0
-15 10 0 9 -5 16 -11 16 -6 0 -9 -6 -6 -14 4 -9 0 -12 -13 -9 -11 3 -21 16
-23 32 l-4 26 -3 -25z"/>
<path d="M5680 14116 c0 -9 7 -16 15 -16 8 0 15 -4 15 -10 0 -13 -27 -13 -32
1 -2 5 -10 8 -18 4 -11 -4 -14 -17 -12 -50 4 -40 7 -45 28 -45 21 0 24 -4 24
-40 0 -33 3 -40 20 -40 17 0 20 7 20 40 0 22 5 40 10 40 6 0 10 18 10 40 0 22
5 40 10 40 23 0 7 20 -22 28 -18 6 -41 13 -50 17 -13 5 -18 2 -18 -9z"/>
<path d="M5365 12965 c-22 -8 -48 -15 -58 -15 -11 0 -33 -6 -50 -14 -66 -30
-110 -46 -128 -46 -11 0 -19 -4 -19 -10 0 -5 -6 -10 -13 -10 -7 0 -19 -6 -25
-12 -10 -10 5 -17 73 -34 47 -12 95 -19 107 -16 20 5 20 6 3 19 -18 12 -18 13
4 13 12 0 20 4 17 8 -3 5 9 6 27 4 31 -4 31 -4 12 12 -19 14 -18 15 12 4 17
-7 29 -17 26 -22 -4 -6 -3 -8 1 -4 5 4 25 -2 44 -13 20 -10 42 -19 48 -19 6 0
21 -9 34 -20 28 -24 36 -25 44 -4 3 8 2 12 -4 9 -6 -3 -13 0 -16 8 -3 8 -24
23 -47 33 -23 10 -57 29 -75 41 -18 12 -38 24 -45 26 -27 10 2 16 34 7 l34
-10 -25 21 -25 20 35 -7 c19 -3 47 -13 63 -20 18 -10 27 -11 27 -3 0 6 -9 13
-21 16 -13 4 -18 11 -14 21 6 15 -10 32 -30 31 -5 0 -28 -6 -50 -14z"/>
<path d="M4545 12680 c-44 -22 -85 -46 -91 -55 -6 -8 -16 -15 -23 -15 -21 0
-11 -18 13 -24 26 -6 80 1 108 15 11 6 18 5 21 -4 3 -9 12 -8 38 6 19 10 26
15 17 13 -10 -3 -18 -1 -18 4 0 5 16 12 36 16 30 6 34 8 20 16 -10 6 -39 8
-66 6 -30 -2 -45 1 -40 6 5 5 36 9 70 9 33 -1 60 1 60 3 0 8 -45 44 -54 43 -6
0 -47 -18 -91 -39z"/>
<path d="M6828 12224 c-16 -8 -28 -18 -28 -23 0 -5 -12 -11 -27 -15 -16 -3
-57 -33 -93 -67 -48 -45 -66 -57 -68 -45 -2 9 -8 16 -13 16 -6 0 -8 -4 -5 -8
2 -4 -4 -19 -15 -32 -15 -20 -19 -22 -19 -7 0 27 -18 20 -55 -20 -32 -35 -35
-36 -69 -26 -20 6 -36 7 -36 2 0 -12 -57 -40 -90 -44 -18 -3 -35 4 -53 21 -30
28 -37 30 -37 9 0 -18 -12 -19 -28 -3 -9 9 -13 7 -18 -5 -3 -9 -12 -17 -19
-17 -7 0 -16 -8 -20 -17 -6 -17 -7 -17 -19 0 -19 24 -26 21 -26 -10 0 -20 -9
-34 -28 -47 -16 -10 -29 -24 -30 -30 0 -6 -7 -40 -15 -76 -14 -61 -15 -62 -16
-24 -1 39 -3 41 -43 53 -40 13 -43 12 -64 -13 -12 -14 -21 -33 -20 -43 2 -10
1 -12 -1 -5 -7 20 -21 14 -26 -10 -3 -21 -4 -20 -11 7 -4 17 -12 41 -17 54 -9
21 -11 22 -32 9 -28 -19 -56 -74 -57 -112 0 -16 -2 -27 -5 -24 -10 10 -22 99
-14 104 12 7 11 44 0 44 -5 0 -13 -10 -16 -21 -6 -17 -9 -19 -16 -8 -7 12 -12
12 -29 1 -19 -11 -22 -10 -35 20 -8 18 -14 29 -15 23 0 -5 -10 6 -21 25 l-21
34 -26 -29 c-18 -21 -27 -26 -30 -16 -2 7 -13 21 -23 29 -11 9 -19 22 -19 29
0 17 -27 17 -33 1 -6 -18 -57 41 -64 74 -8 38 -21 26 -16 -14 4 -30 3 -31 -8
-13 -7 11 -19 26 -26 33 -7 7 -13 18 -13 23 0 5 -4 9 -9 9 -5 0 -7 -8 -4 -19
3 -10 0 -22 -6 -25 -7 -5 -8 -1 -4 10 4 12 2 15 -8 12 -8 -3 -14 -17 -14 -31
1 -32 -6 -34 -30 -7 -10 11 -21 17 -25 15 -4 -3 -13 2 -20 10 -16 19 -30 19
-30 1 0 -26 -20 -28 -30 -4 -10 23 -11 23 -5 -2 3 -14 8 -37 11 -52 4 -18 2
-28 -5 -28 -7 0 -11 6 -10 13 4 29 -3 43 -26 54 -20 9 -25 8 -25 -3 0 -8 3
-14 8 -14 4 0 18 -22 30 -48 21 -44 22 -54 13 -113 -6 -35 -11 -82 -11 -104 0
-29 -3 -36 -11 -28 -8 8 -9 27 -3 60 12 70 6 105 -23 133 l-25 25 16 -39 c19
-47 19 -46 2 -46 -8 0 -16 -7 -20 -15 -3 -8 -9 -15 -14 -15 -9 0 -52 119 -52
143 0 16 -38 39 -51 31 -7 -4 -3 -14 9 -28 23 -25 42 -60 42 -76 0 -7 -9 -2
-21 11 -11 13 -19 20 -16 14 21 -54 33 -75 45 -75 7 0 12 -6 11 -12 -3 -28 4
-102 8 -80 7 37 23 25 23 -19 0 -22 5 -49 11 -60 8 -15 7 -24 -2 -35 -10 -13
-10 -17 1 -24 9 -5 20 -5 27 2 10 8 13 7 13 -4 0 -8 6 -28 14 -44 21 -42 32
-109 17 -99 -7 4 -10 14 -6 22 4 13 3 14 -10 3 -9 -8 -15 -8 -15 -2 0 6 -9 10
-21 9 -16 -1 -19 -6 -14 -25 3 -14 8 -38 10 -56 l5 -31 -10 33 c-9 27 -15 33
-34 30 -13 -1 -30 3 -39 11 -15 12 -15 9 -1 -34 12 -34 13 -50 6 -57 -8 -8
-13 -7 -18 5 -3 9 -13 17 -21 17 -14 0 -13 -11 4 -57 3 -6 -9 -14 -27 -18 -21
-5 -30 -11 -26 -21 7 -18 1 -18 -29 2 -17 11 -25 12 -25 4 0 -6 -7 -18 -15
-26 -10 -10 -15 -11 -15 -4 0 7 -7 10 -15 7 -8 -4 -27 0 -42 8 -15 8 -37 12
-48 9 -13 -3 -27 1 -34 10 -8 9 -26 16 -41 16 -15 0 -42 5 -59 11 -24 9 -35 9
-44 0 -8 -8 -7 -11 6 -11 9 0 17 -5 17 -11 0 -6 -7 -8 -16 -5 -9 3 -28 9 -42
12 l-27 5 25 -22 c20 -18 21 -21 5 -15 -41 16 -55 18 -55 7 0 -6 6 -11 14 -11
8 0 18 -5 21 -11 5 -7 -5 -8 -29 -4 -24 5 -36 3 -36 -4 0 -6 -10 -11 -22 -12
-13 0 -32 -5 -43 -10 -14 -6 -1 -8 45 -5 73 5 111 -3 118 -23 3 -10 -4 -12
-27 -9 -18 3 -34 1 -37 -4 -3 -4 -21 -8 -40 -8 -21 0 -33 -4 -29 -10 3 -5 -3
-10 -15 -10 -13 0 -19 -4 -14 -12 5 -8 0 -9 -16 -5 -15 4 -33 -1 -49 -12 -14
-10 -42 -24 -61 -31 -44 -17 -109 -62 -110 -75 0 -5 -14 -28 -30 -49 -23 -30
-27 -42 -18 -48 10 -6 10 -8 1 -8 -7 0 -13 -9 -13 -21 0 -11 -4 -17 -10 -14
-5 3 -10 2 -10 -4 0 -5 4 -12 9 -16 6 -3 6 -17 1 -33 -4 -16 -8 -47 -8 -70 0
-23 -4 -46 -7 -52 -3 -5 1 -10 9 -10 12 0 16 -10 16 -40 0 -30 3 -38 14 -34
20 8 24 -4 28 -82 3 -64 5 -70 22 -66 15 4 18 1 13 -11 -3 -9 -2 -17 4 -19 5
-2 0 -20 -12 -42 -11 -21 -19 -40 -17 -42 10 -10 46 11 63 37 11 16 27 29 35
28 10 0 11 -2 3 -6 -20 -8 -15 -23 7 -23 18 0 19 -3 10 -20 -16 -29 -3 -42 33
-35 26 5 29 4 15 -5 -10 -6 -18 -15 -18 -19 0 -17 33 -21 49 -7 9 7 27 17 41
21 25 8 25 8 6 -14 -11 -11 -23 -21 -29 -21 -5 0 -22 -13 -37 -30 -15 -16 -27
-30 -25 -30 1 0 22 7 45 15 50 18 53 18 45 5 -3 -5 0 -10 8 -10 20 0 96 69 77
70 -9 0 -21 -5 -28 -12 -24 -24 -21 0 3 26 27 30 32 46 13 46 -7 0 1 9 17 20
33 22 30 25 -9 10 -41 -15 -31 2 40 70 66 62 66 63 33 57 -27 -6 -22 -1 26 23
68 34 77 36 49 15 -18 -14 -17 -15 11 -9 43 10 51 16 29 25 -17 7 -17 8 4 8
13 1 31 8 40 17 15 15 14 16 -6 10 -13 -4 -22 -3 -22 3 0 5 -13 12 -28 16 -30
6 -113 -23 -145 -52 -9 -9 -20 -14 -23 -11 -10 10 98 84 171 117 39 18 77 36
85 40 9 5 30 12 48 16 18 4 40 17 48 30 8 13 27 26 42 30 15 4 21 10 14 12 -6
3 -10 9 -6 14 7 13 -10 11 -23 -2 -8 -8 -13 -8 -17 0 -4 6 3 15 16 20 13 4 30
11 38 14 8 3 -30 6 -85 7 -78 1 -93 4 -70 11 17 5 38 7 48 5 10 -2 54 4 98 15
44 10 91 19 105 19 13 0 41 9 61 20 21 11 31 20 23 20 -13 0 -13 1 0 10 12 8
11 10 -6 10 -11 0 -24 -4 -30 -9 -5 -5 -38 -11 -74 -14 -61 -5 -63 -4 -35 9
17 7 51 16 78 19 26 4 45 10 42 16 -4 5 2 9 13 9 10 0 32 11 48 25 16 14 40
25 53 25 18 0 21 3 12 13 -6 8 -8 17 -4 20 3 4 -1 7 -10 7 -9 0 -17 5 -17 11
0 7 8 9 20 5 67 -20 63 -21 51 3 -13 23 -3 27 27 12 9 -5 31 -15 47 -22 17 -7
34 -15 39 -18 5 -2 6 4 3 13 -4 9 -2 16 3 16 6 0 10 -7 10 -15 0 -8 5 -15 10
-15 6 0 10 11 10 25 0 14 6 25 13 26 6 0 3 4 -8 9 -11 5 -14 9 -6 9 8 1 11 7
7 17 -5 13 -4 14 7 6 8 -7 17 -8 22 -4 4 4 5 -2 1 -14 -4 -14 0 -29 13 -45 17
-20 20 -21 21 -6 0 21 20 23 20 2 0 -8 5 -15 11 -15 8 0 9 13 5 40 -6 37 4 54
19 30 3 -5 11 -10 17 -10 7 0 6 6 -2 15 -7 8 -18 15 -26 15 -7 0 -20 7 -29 16
-8 9 -22 13 -31 10 -8 -3 -12 -2 -9 4 3 6 2 10 -4 10 -6 0 -8 7 -5 15 5 13 8
13 21 0 8 -8 21 -15 29 -15 8 0 14 -4 14 -10 0 -12 26 -14 33 -2 2 4 3 2 1 -4
-3 -13 63 -50 73 -40 4 3 1 12 -5 18 -7 7 -12 16 -12 22 0 16 29 -28 30 -44 0
-8 10 -21 23 -29 21 -13 22 -13 4 6 -9 11 -14 23 -10 26 3 4 1 18 -6 31 -8 13
-11 30 -8 38 3 9 7 7 13 -7 4 -11 15 -28 25 -38 9 -10 14 -28 11 -42 -5 -29
37 -72 50 -52 9 15 20 3 33 -36 6 -18 17 -31 24 -29 16 3 51 -35 51 -57 0 -14
2 -14 9 -2 7 10 4 23 -8 40 -15 22 -16 31 -6 54 10 24 13 26 23 14 7 -8 10
-21 6 -30 -3 -8 0 -26 7 -38 l12 -23 9 24 c5 13 5 26 0 29 -13 9 -32 71 -22
71 4 0 11 -6 13 -12 3 -7 6 1 6 19 1 23 -6 37 -25 52 -15 12 -32 21 -39 21
-11 0 -25 21 -25 37 0 2 12 -5 27 -16 35 -29 45 -15 11 14 -16 13 -28 31 -28
39 0 9 -9 21 -20 28 -21 13 -25 34 -13 63 5 15 8 15 18 -5 11 -21 13 -18 19
29 4 28 4 57 0 64 -4 7 2 3 13 -8 24 -25 35 -53 23 -60 -4 -3 -10 1 -13 7 -2
7 -8 10 -12 6 -4 -4 0 -19 9 -32 9 -14 16 -33 16 -43 0 -27 43 -76 63 -72 15
4 15 7 3 32 -14 25 -13 27 4 27 21 0 41 -28 39 -57 -1 -13 -3 -11 -9 7 -8 24
-8 24 -9 -6 -1 -23 4 -33 18 -37 16 -4 20 1 23 26 l3 31 15 -28 c11 -22 12
-29 1 -35 -9 -6 -9 -11 -3 -15 14 -9 25 30 24 84 0 40 1 42 8 15 4 -16 8 -47
9 -67 1 -31 5 -38 21 -38 15 0 27 13 40 43 11 23 20 49 20 57 0 8 9 26 20 40
11 14 20 32 20 41 0 9 7 22 16 30 9 7 14 22 11 36 -2 13 -1 23 3 23 12 0 41
80 34 91 -9 15 6 100 17 94 5 -4 10 -25 10 -48 l1 -42 8 40 c4 22 5 45 3 52
-3 7 2 13 10 13 8 0 18 10 22 23 7 20 8 18 14 -13 7 -41 -7 -105 -31 -143 -10
-14 -18 -31 -18 -38 0 -6 -13 -31 -30 -56 -16 -24 -30 -48 -30 -54 0 -14 16
-11 30 6 18 21 32 19 25 -5 -4 -14 -1 -22 10 -27 14 -5 16 -14 11 -50 -4 -34
-3 -43 9 -43 8 0 15 -9 15 -20 0 -11 5 -20 11 -20 8 0 10 13 6 38 -3 20 -9 65
-13 100 -4 34 -11 62 -15 62 -5 0 -9 7 -9 15 0 20 16 19 24 -1 3 -8 10 -13 15
-10 5 3 12 -6 15 -19 8 -31 26 -24 19 8 -4 20 -3 20 7 4 6 -10 9 -25 6 -33 -7
-19 11 -18 22 2 7 12 10 5 15 -28 3 -24 4 -55 1 -69 -2 -13 -1 -17 2 -9 4 8
13 21 20 28 8 8 11 24 7 43 -5 26 -3 30 12 27 10 -2 20 3 22 10 3 6 0 12 -6
12 -6 0 -10 16 -10 38 l2 37 7 -35 7 -35 10 26 c6 14 14 48 18 75 10 80 15 94
29 94 8 0 17 8 20 18 3 9 3 -37 1 -103 -2 -66 0 -106 3 -90 4 17 14 30 22 30
9 0 22 19 32 45 l17 45 -6 -40 c-3 -22 -9 -44 -14 -50 -5 -5 -9 -21 -9 -36 0
-15 -4 -31 -10 -34 -5 -3 -10 -28 -10 -54 0 -26 -5 -62 -11 -79 -6 -17 -9 -41
-7 -54 l3 -23 20 23 c11 13 28 33 39 45 27 32 48 86 48 126 0 24 3 30 9 20 8
-12 10 -12 18 1 15 22 24 5 11 -20 -17 -33 -10 -49 19 -39 19 8 21 12 11 24
-7 8 -9 15 -6 15 4 0 2 8 -3 19 -13 23 0 73 27 101 l20 22 7 -34 c4 -18 17
-44 29 -57 18 -21 18 -23 3 -18 -11 4 -20 1 -23 -8 -11 -27 -22 -16 -21 20 1
19 -4 40 -11 47 -9 9 -12 5 -12 -17 0 -59 12 -106 26 -101 7 3 15 -2 18 -10 9
-23 7 -34 -4 -34 -5 0 -10 7 -10 15 0 8 -4 15 -9 15 -11 0 -24 -31 -16 -38 3
-3 5 0 5 7 0 7 4 10 9 7 5 -3 7 -15 4 -26 -4 -15 -9 -18 -18 -10 -15 12 -25 3
-18 -17 5 -12 1 -14 -18 -9 -13 3 -18 3 -11 0 10 -5 9 -10 -4 -25 -9 -10 -12
-19 -6 -19 6 0 20 10 32 22 11 12 20 18 20 13 0 -4 9 0 20 10 11 10 20 24 20
31 0 7 8 10 20 7 11 -3 20 0 20 6 0 6 6 11 14 11 8 0 16 3 19 8 2 4 2 1 1 -5
-5 -18 39 -26 109 -20 l62 5 -52 -16 c-28 -10 -55 -21 -60 -26 -10 -10 40 -1
127 24 77 22 150 32 150 19 0 -4 -19 -13 -42 -20 -24 -6 -50 -16 -58 -23 -8
-7 -37 -21 -65 -31 -27 -10 -58 -24 -68 -30 -15 -11 -10 -12 30 -7 26 3 50 8
53 13 5 7 94 25 168 35 20 2 48 6 62 9 14 3 36 7 49 10 12 2 29 9 37 16 11 9
14 8 14 -3 0 -11 9 -13 31 -10 24 4 30 1 27 -9 -3 -8 -24 -16 -50 -19 -24 -3
-57 -14 -72 -23 -15 -10 -35 -15 -45 -12 -21 6 -187 -70 -172 -79 5 -3 44 10
87 30 69 31 76 33 53 12 -14 -13 -52 -38 -85 -55 -110 -57 -116 -61 -105 -68
6 -3 16 -3 21 0 6 3 10 1 10 -4 0 -6 -14 -11 -32 -11 -21 0 -29 -3 -22 -10 6
-6 33 -3 79 10 39 11 80 20 93 20 13 0 21 4 18 8 -2 4 15 15 40 24 52 18 56
10 13 -26 l-31 -26 39 -1 38 -1 -40 -10 c-22 -5 -50 -11 -62 -14 -48 -10 -20
-24 46 -24 39 0 73 -4 76 -10 3 -5 26 -10 51 -10 32 0 44 -4 44 -15 0 -8 5
-15 11 -15 5 0 7 5 4 10 -3 6 3 10 15 10 12 0 19 -4 16 -9 -4 -5 3 -7 14 -4
11 3 20 0 20 -6 0 -6 12 -12 28 -12 16 -1 20 -3 10 -6 -22 -6 -23 -19 -2 -27
32 -12 3 -23 -41 -15 -47 9 -117 0 -170 -22 l-30 -12 45 -8 c24 -5 81 -7 127
-5 57 3 81 1 76 -7 -4 -6 0 -8 10 -4 9 3 19 2 22 -3 3 -5 -20 -10 -51 -12 -32
-2 -59 -7 -61 -13 -3 -10 93 -39 167 -52 27 -5 31 -7 16 -13 -16 -5 -14 -10
20 -30 33 -20 36 -24 19 -28 -10 -2 -21 1 -23 7 -2 6 -24 11 -49 11 -52 0 -54
-6 -6 -13 18 -3 39 -12 48 -20 8 -8 20 -18 27 -20 10 -4 10 -8 -1 -15 -17 -12
-4 -35 15 -28 8 3 14 1 14 -4 0 -6 -8 -10 -17 -11 -10 0 5 -11 32 -25 28 -13
39 -22 25 -19 -38 8 -77 13 -60 8 8 -3 17 -8 20 -12 3 -4 16 -12 30 -18 l25
-12 -25 0 c-22 -1 -20 -3 15 -22 22 -12 50 -30 62 -39 l23 -18 -28 -7 -27 -8
29 -12 c19 -8 25 -15 17 -19 -8 -6 -4 -15 14 -32 14 -13 31 -24 36 -24 6 0 28
-18 50 -40 22 -22 44 -40 49 -40 5 0 7 -7 4 -15 -4 -9 0 -15 10 -15 9 0 16 -4
16 -10 0 -5 -4 -10 -10 -10 -5 0 -10 -9 -10 -20 0 -16 6 -20 33 -19 30 2 30 2
4 6 -15 2 -25 8 -22 13 3 5 21 4 40 -1 35 -10 55 -6 55 12 0 5 -12 9 -27 9
-16 0 -35 5 -43 10 -12 8 -9 10 11 10 31 0 104 29 75 30 -16 0 -16 2 -5 16 10
13 10 17 -2 25 -8 5 -23 9 -35 9 -11 0 -29 7 -40 16 -17 14 -18 15 -1 10 10
-3 37 -9 60 -12 40 -6 41 -5 22 10 -20 15 -20 15 5 16 23 1 24 2 8 14 -30 22
-21 36 22 36 29 0 40 -4 40 -15 0 -8 6 -15 14 -15 8 0 21 -3 29 -6 11 -4 15 2
15 23 0 15 3 46 7 68 4 27 3 35 -3 26 -7 -9 -12 -10 -16 -2 -4 6 0 14 8 17 10
4 16 19 16 40 0 29 4 34 23 34 26 0 47 -43 48 -101 l0 -34 14 38 c13 34 13 41
-1 54 -10 10 -13 25 -10 39 4 13 2 24 -3 24 -18 0 -34 72 -28 126 5 47 3 56
-16 71 -24 19 -67 93 -67 113 0 10 3 10 15 0 12 -10 15 -9 15 4 0 15 2 15 28
-1 15 -10 31 -23 35 -30 14 -22 27 -14 27 15 0 19 -3 23 -9 13 -12 -19 -44 0
-70 44 l-21 36 22 -6 c13 -4 27 -11 33 -16 15 -14 29 -10 16 4 -6 8 -8 17 -4
21 4 3 -4 5 -17 4 -17 -2 -25 3 -28 17 -4 18 -3 18 14 5 16 -13 16 -12 -1 12
-14 18 -26 25 -38 22 -19 -6 -67 30 -67 50 0 6 12 -1 25 -16 23 -27 45 -36 45
-20 0 15 -143 137 -158 134 -7 -2 -11 1 -8 6 3 5 -9 17 -28 26 -42 20 -56 21
-30 1 15 -11 16 -14 4 -15 -9 0 -20 4 -25 9 -6 4 -31 16 -57 26 -27 10 -48 24
-48 31 0 8 -7 14 -16 14 -8 0 -12 -5 -8 -11 3 -6 -4 -4 -17 4 -32 20 -73 32
-65 19 3 -6 -4 -5 -19 1 -23 11 -22 12 21 18 25 3 49 11 53 17 6 10 15 10 35
2 33 -12 69 -13 62 -1 -3 4 12 0 34 -11 21 -11 49 -18 62 -16 21 3 20 5 -12
19 -77 35 -94 41 -98 31 -4 -14 -75 11 -80 28 -4 10 3 11 29 6 19 -4 65 -10
102 -13 37 -3 70 -10 73 -15 3 -5 -7 -6 -23 -2 -37 9 -22 -7 22 -22 33 -11 50
-3 23 10 -7 3 5 4 27 1 l40 -6 -30 15 c-16 8 -39 17 -50 22 -17 6 -18 8 -3 11
9 2 26 -1 37 -7 13 -7 21 -7 21 -1 0 6 -19 15 -42 21 -24 6 -52 16 -63 22 -24
14 -76 18 -69 6 6 -9 2 -10 -136 -13 l-105 -2 65 12 c36 7 61 13 56 14 -4 0 2
10 15 22 l24 21 -25 -6 c-14 -3 -28 -6 -32 -6 -5 0 -8 -6 -8 -14 0 -9 -7 -12
-20 -9 -11 3 -27 0 -35 -7 -12 -10 -19 -10 -27 -2 -9 9 -8 12 3 12 7 1 28 7
44 15 l30 15 -42 -6 c-53 -7 -59 12 -8 22 19 3 38 10 41 15 3 5 15 9 27 9 12
0 17 4 12 9 -14 12 -105 23 -105 12 0 -4 -33 -8 -74 -7 -59 1 -72 4 -68 15 4
10 -1 13 -19 8 -13 -3 -40 -2 -59 3 l-35 8 47 1 c26 1 53 7 61 15 10 11 24 12
58 5 24 -4 53 -8 64 -8 17 -1 18 1 5 10 -11 8 -8 9 15 5 22 -5 26 -4 15 4 -8
5 -31 10 -52 10 -20 0 -38 5 -40 10 -4 13 -122 22 -151 11 -12 -4 -40 -4 -62
0 -29 4 -33 7 -15 9 21 2 19 4 -15 15 l-40 12 65 8 c51 5 74 3 107 -10 56 -22
200 -25 187 -3 -3 4 2 8 11 8 9 0 14 4 10 9 -3 5 5 12 17 14 17 3 14 5 -9 6
-18 0 -33 5 -33 10 0 6 -17 8 -37 6 l-38 -5 40 15 c28 10 63 12 118 8 54 -4
77 -2 77 6 0 6 -9 11 -21 11 -11 0 -17 5 -14 10 4 6 -6 11 -22 11 -24 2 -25 2
-5 6 28 6 19 23 -13 23 -18 0 -23 4 -19 15 4 11 -1 15 -17 16 -21 1 -20 2 6 9
26 6 22 8 -23 9 -55 1 -66 21 -12 21 16 0 32 5 35 10 4 6 -8 10 -29 10 -19 0
-36 5 -38 11 -3 8 -25 5 -74 -8 -45 -13 -77 -17 -92 -12 -34 13 -27 16 31 16
38 1 68 9 112 31 69 36 69 37 -5 17 -64 -17 -126 -19 -135 -5 -3 6 -1 10 4 10
23 0 9 17 -24 29 -28 10 -43 10 -72 0 -82 -26 -93 -32 -93 -50 0 -22 -18 -35
-32 -21 -15 15 49 69 89 77 18 3 34 13 38 24 3 10 11 18 18 18 40 3 134 30
147 42 13 12 6 13 -56 8 -71 -7 -134 -30 -134 -49 0 -6 -10 -8 -25 -4 -15 4
-38 0 -56 -10 -44 -23 -46 -11 -4 22 35 26 38 27 50 11 12 -17 13 -16 11 5 -2
33 -36 31 -75 -4 -17 -16 -32 -28 -33 -28 -2 0 -4 16 -5 34 -1 28 3 35 18 38
11 2 18 8 17 13 -2 6 -7 9 -13 8 -5 -1 -23 -5 -40 -8 l-30 -6 35 31 35 32 -50
-7 c-77 -10 -95 -16 -95 -31 0 -8 -4 -14 -10 -14 -5 0 -10 -5 -10 -11 0 -16
-41 -50 -51 -43 -5 3 -9 12 -9 21 0 11 -6 14 -20 9 -61 -19 -66 -18 -35 6 17
13 47 40 67 61 21 20 41 37 46 37 5 0 19 12 33 26 13 15 42 40 64 57 l40 29
-46 -6 c-26 -4 -81 -20 -124 -36 -76 -30 -101 -37 -78 -22 7 4 19 24 28 45
l15 37 -43 -33 c-25 -17 -42 -35 -40 -39 2 -5 -10 -8 -26 -8 -21 0 -31 -5 -31
-15 0 -18 -17 -20 -22 -3 -3 7 13 25 34 40 21 16 38 35 38 43 0 18 -7 18 -42
-1z m156 -399 c8 -21 -3 -45 -20 -45 -16 0 -19 -16 -5 -25 6 -3 20 8 32 25 28
37 48 40 24 3 -16 -23 -16 -25 -1 -20 9 4 16 2 16 -4 0 -6 5 -7 10 -4 6 4 8
10 5 15 -3 4 2 13 10 20 12 10 15 10 15 -3 0 -9 -5 -19 -10 -22 -6 -3 -7 -17
-4 -30 4 -16 0 -30 -10 -41 -10 -9 -14 -24 -11 -35 4 -10 2 -19 -3 -19 -14 0
-21 35 -11 51 13 21 11 36 -5 42 -10 4 -23 -6 -36 -27 -11 -19 -30 -36 -42
-39 -25 -7 -38 0 -22 11 6 4 14 16 18 27 6 16 5 18 -5 8 -19 -19 -31 -16 -24
7 8 26 -2 25 -26 -2 -13 -17 -18 -19 -18 -8 0 18 33 60 48 60 6 0 11 4 11 9 0
12 40 61 50 61 4 0 10 -7 14 -15z m178 -42 c-10 -16 -17 -33 -15 -40 2 -6 -1
-14 -6 -18 -17 -10 -13 -35 7 -36 10 0 12 -3 4 -6 -6 -2 -9 -9 -6 -14 3 -6 0
-16 -6 -24 -17 -20 8 -20 34 0 10 8 23 12 27 9 5 -3 9 0 9 5 0 6 10 11 23 11
12 0 29 4 37 9 8 6 18 7 23 4 13 -8 -60 -54 -77 -47 -8 3 -24 -4 -35 -15 -28
-28 -26 -37 4 -17 27 18 60 23 35 5 -11 -8 -8 -9 15 -5 25 5 27 4 12 -5 -10
-6 -24 -9 -31 -6 -18 7 -48 -19 -51 -46 -3 -26 2 -28 83 -27 46 1 52 -1 52
-19 0 -12 -6 -21 -13 -21 -16 0 -48 -34 -67 -72 -13 -26 -18 -28 -78 -28 -55
0 -63 2 -52 15 16 19 3 37 -22 29 -17 -5 -20 -3 -15 10 4 9 2 16 -4 16 -6 0
-8 10 -4 23 6 21 5 21 -9 4 -8 -10 -17 -14 -20 -9 -8 14 4 50 20 56 8 3 14 13
14 23 -1 17 -2 17 -15 -1 -24 -32 -27 -12 -5 35 11 24 20 51 20 60 0 9 13 27
30 40 16 13 30 27 30 31 0 13 55 97 63 98 5 0 0 -12 -11 -27z"/>
<path d="M8488 10594 c-5 -4 -8 -21 -8 -38 0 -17 -7 -44 -16 -61 -8 -16 -13
-38 -10 -48 3 -14 2 -16 -9 -7 -11 9 -23 6 -52 -14 -21 -14 -34 -26 -29 -26 5
0 4 -6 -1 -12 -14 -20 -4 -128 13 -135 8 -3 37 10 65 28 28 18 65 33 83 35 39
3 106 27 116 43 4 7 5 23 2 37 -4 20 -7 22 -18 13 -21 -17 -28 -4 -9 15 18 17
14 46 -5 46 -7 0 -9 -8 -5 -19 3 -11 0 -21 -9 -24 -19 -7 -29 19 -16 43 8 16
6 22 -10 32 -11 7 -20 16 -20 21 0 4 5 5 10 2 7 -4 8 3 4 22 -9 38 -24 53 -24
24 0 -12 -4 -19 -10 -16 -6 4 -10 -8 -10 -28 0 -19 -6 -37 -12 -40 -10 -3 -12
7 -10 38 4 51 0 80 -10 69z"/>
<path d="M8590 10020 c0 -14 66 -40 101 -40 15 0 36 -9 46 -19 10 -11 41 -28
69 -39 49 -20 141 -72 99 -57 -63 23 -80 16 -47 -21 9 -10 25 -32 35 -47 10
-15 24 -30 30 -32 67 -24 71 -26 57 -35 -8 -6 -12 -10 -9 -10 32 -1 132 -26
165 -42 24 -11 51 -18 61 -15 12 3 10 5 -8 6 -15 0 -32 8 -39 16 -7 8 -17 15
-22 15 -5 0 -21 9 -35 20 -15 12 -20 20 -12 20 9 0 10 3 3 8 -15 10 -25 40
-15 46 4 3 14 -6 21 -19 7 -14 20 -25 29 -25 11 0 8 7 -10 28 -14 15 -32 35
-40 45 -8 9 -35 39 -61 66 -46 48 -67 81 -30 48 10 -10 24 -17 30 -17 7 0 12
-4 12 -10 0 -5 6 -10 12 -10 7 0 -2 14 -19 32 -25 25 -41 32 -72 32 -26 1 -47
8 -63 24 -14 12 -31 22 -39 21 -8 0 -4 -5 9 -11 12 -6 22 -15 22 -20 0 -11
-14 -10 -27 3 -6 6 -51 12 -102 13 -67 1 -91 4 -91 14 0 9 14 11 53 7 36 -4
46 -2 32 4 -27 13 -95 13 -95 1 0 -5 -7 -10 -15 -10 -8 0 -15 5 -15 10 0 6 -4
10 -10 10 -5 0 -10 -4 -10 -10z"/>
<path d="M8081 9915 c-18 -8 -44 -15 -57 -15 -17 0 -27 -8 -34 -25 -5 -14 -21
-27 -37 -31 -62 -16 -70 -63 -11 -65 30 0 31 -1 11 -9 -13 -5 -23 -15 -23 -21
0 -8 4 -8 13 0 15 12 37 -3 37 -26 0 -7 5 -13 11 -13 6 0 9 6 6 13 -3 9 7 14
37 16 22 1 45 6 51 12 5 5 17 9 27 9 15 0 17 5 12 26 -4 17 -2 29 7 34 10 7
10 14 2 32 -6 14 -9 36 -6 51 6 31 1 32 -46 12z"/>
<path d="M7600 9910 c-27 -8 -22 -11 35 -26 l30 -8 -28 -4 c-15 -2 -25 -7 -22
-12 3 -5 19 -7 35 -3 23 4 30 2 30 -10 0 -8 7 -17 15 -21 18 -7 20 -28 3 -25
-7 1 -33 1 -58 0 -38 -2 -42 -4 -22 -12 66 -27 68 -30 26 -25 -40 4 -75 -7
-62 -19 3 -3 52 -11 109 -17 57 -6 108 -14 114 -19 16 -15 33 -10 30 9 -2 9
-4 17 -5 17 -1 0 -3 8 -5 18 -5 27 -22 43 -66 65 -29 15 -35 21 -23 26 9 3 21
3 26 -1 7 -3 8 -1 4 5 -4 7 -25 15 -47 18 -23 4 -39 12 -39 20 0 8 -8 14 -18
14 -10 0 -22 4 -27 8 -6 5 -21 6 -35 2z"/>
<path d="M9155 9402 c-16 -9 -31 -20 -33 -24 -2 -4 -17 -4 -34 -1 -22 4 -29 3
-24 -5 4 -8 0 -12 -11 -12 -10 0 -14 -4 -8 -8 6 -4 15 -17 22 -28 9 -17 8 -24
-5 -38 -15 -15 -13 -16 31 -16 28 0 47 -5 47 -11 0 -6 13 -26 29 -45 26 -29
31 -31 36 -15 3 10 1 30 -5 45 -6 18 -6 25 0 21 16 -10 12 49 -6 85 -14 27
-14 34 -3 41 8 5 20 9 27 9 6 0 12 5 12 10 0 16 -42 11 -75 -8z"/>
<path d="M3482 9384 c-37 -19 -81 -65 -113 -119 -32 -55 -104 -136 -136 -154
-24 -12 -116 -133 -119 -155 -1 -10 4 -13 14 -8 15 5 15 3 4 -11 -16 -19 -8
-37 15 -37 11 0 -1 -17 -31 -46 -26 -25 -45 -48 -41 -52 3 -4 9 -2 13 3 4 6
24 19 45 30 21 10 50 32 63 48 14 16 28 26 32 23 3 -4 2 -10 -3 -14 -6 -4 -16
-19 -24 -34 -18 -36 -139 -151 -180 -173 -18 -9 -39 -32 -49 -53 -9 -20 -23
-41 -29 -45 -7 -4 -13 -12 -13 -18 0 -12 49 22 50 34 0 12 62 69 67 63 7 -7
-19 -78 -36 -98 -8 -10 -11 -18 -8 -18 10 0 53 44 65 67 l12 21 30 -26 c16
-15 30 -36 31 -47 0 -11 7 2 15 28 8 26 19 45 24 42 5 -3 15 14 21 37 7 24 16
47 21 52 4 6 8 18 8 27 0 10 4 20 8 23 5 3 5 -21 1 -52 -4 -31 -9 -92 -12
-136 -7 -104 10 -87 24 25 10 84 16 124 19 124 1 0 3 14 6 30 7 50 20 90 29
90 5 0 9 -43 8 -95 -2 -93 12 -89 17 5 2 35 3 37 10 15 13 -40 11 -121 -4
-178 -9 -36 -10 -52 -2 -49 6 2 13 14 17 28 4 13 7 17 8 9 1 -25 -37 -131 -65
-177 -14 -24 -44 -65 -67 -91 -23 -26 -50 -59 -60 -72 -10 -14 -15 -19 -11
-12 5 11 2 12 -15 3 -11 -7 -22 -17 -22 -24 -1 -7 -3 -22 -4 -34 -2 -19 0 -20
24 -10 32 15 46 31 117 135 31 46 70 116 85 157 29 74 29 77 27 259 -2 138 0
188 10 197 10 10 12 4 12 -31 0 -44 13 -46 23 -5 4 15 5 13 6 -7 0 -16 5 -28
10 -28 5 0 12 -22 15 -50 19 -162 16 -151 39 -144 16 5 19 3 14 -10 -4 -10 -3
-15 2 -12 11 7 21 -95 11 -109 -4 -5 -10 -23 -14 -38 -6 -25 -9 -27 -23 -15
-15 11 -16 10 -11 -9 3 -12 2 -42 -3 -65 -14 -62 -18 -73 -29 -62 -8 8 1 134
16 228 4 24 2 36 -3 33 -6 -4 -13 -43 -17 -87 -6 -79 -21 -130 -38 -130 -4 0
-8 -17 -9 -37 0 -27 -3 -33 -8 -20 -9 25 -24 7 -41 -48 -32 -104 -59 -144
-144 -209 -59 -45 -30 -51 31 -7 50 36 83 80 111 146 l21 50 -3 -60 c-3 -41
-8 -59 -16 -57 -8 2 -10 -3 -7 -13 8 -19 -2 -47 -14 -39 -5 3 -9 -3 -9 -12 0
-10 -3 -15 -6 -12 -5 6 -74 -57 -74 -68 0 -7 68 33 92 54 27 23 86 150 101
217 11 50 15 55 19 33 3 -15 1 -53 -4 -84 -9 -58 -4 -80 12 -54 6 8 10 11 10
5 0 -5 -9 -23 -20 -40 l-20 -30 -1 25 c-1 23 -2 22 -8 -5 -5 -21 -12 -29 -24
-27 -9 2 -17 -1 -17 -6 0 -5 -18 -28 -40 -51 l-40 -41 37 15 c21 8 48 26 60
40 21 24 22 24 28 5 6 -20 7 -20 35 0 16 11 34 36 40 56 12 36 9 126 -6 173
-6 19 -4 22 12 19 16 -3 20 -17 28 -88 5 -56 5 -94 -2 -112 -8 -22 -7 -28 4
-28 11 0 14 19 15 83 l1 82 10 -55 c5 -30 7 -65 5 -78 -3 -14 0 -21 7 -19 13
5 11 227 -4 290 -13 57 -12 67 4 67 8 0 16 -17 21 -42 4 -24 9 -37 12 -30 7
19 -7 103 -16 98 -8 -6 -35 123 -27 131 3 3 19 -24 36 -60 29 -61 30 -68 22
-141 -5 -42 -5 -76 -2 -76 12 0 29 -73 31 -130 1 -30 7 -58 13 -62 8 -6 6 -11
-4 -17 -8 -6 -11 -13 -8 -17 11 -10 39 23 33 38 -3 7 8 25 25 38 75 61 84 69
73 70 -7 0 5 19 28 42 36 37 39 43 24 54 -15 11 -14 13 6 27 13 9 18 20 14 28
-5 7 -4 10 2 6 6 -4 13 0 17 8 4 10 -1 15 -16 15 -18 0 -19 2 -7 17 11 13 11
17 2 20 -7 3 -13 11 -13 19 0 8 -7 14 -16 14 -8 0 -12 5 -9 10 3 6 0 10 -9 10
-11 0 -12 7 -7 28 5 19 3 31 -8 40 -9 8 -10 11 -3 7 7 -4 19 -1 27 5 8 6 18 9
24 6 5 -3 12 1 15 10 9 23 7 31 -3 15 -5 -7 -13 -11 -19 -7 -13 8 -8 42 8 62
7 7 9 17 6 22 -3 5 17 30 44 56 28 27 50 54 50 62 0 16 -31 27 -54 18 -25 -10
-19 12 10 35 15 12 22 21 16 21 -19 0 -66 -23 -89 -44 -13 -11 -23 -15 -23 -9
0 6 7 16 15 23 16 14 20 30 7 30 -11 0 -68 -48 -143 -118 l-56 -53 13 -57 c18
-82 39 -144 46 -137 3 3 8 -8 10 -25 3 -16 1 -30 -4 -30 -4 0 -8 9 -8 20 0 11
-4 20 -8 20 -5 0 -17 28 -28 63 -10 34 -24 68 -31 75 -7 7 -13 20 -13 28 0 20
-8 17 -35 -13 -19 -22 -24 -24 -25 -11 0 10 8 22 19 27 28 16 33 39 16 87 -18
52 -19 68 -5 59 6 -4 10 13 10 44 0 53 14 69 22 26 3 -13 2 -22 -3 -19 -10 6
0 -64 13 -89 5 -9 6 -22 3 -27 -3 -6 -3 -10 0 -10 7 0 22 12 83 66 26 23 67
53 91 68 31 20 40 31 33 38 -8 8 -16 7 -27 -2 -21 -17 -21 7 0 38 16 21 15 22
-17 17 -18 -3 -27 -3 -20 1 15 7 16 44 1 44 -6 0 -8 9 -3 22 6 20 5 21 -10 9
-14 -12 -16 -10 -16 18 0 21 -5 31 -16 31 -13 0 -11 6 7 31 l22 31 -24 -6 -24
-7 24 21 25 21 -27 -6 c-21 -6 -27 -4 -27 9 0 18 30 36 62 36 13 0 30 5 38 11
11 8 2 9 -35 4 -27 -3 -57 -6 -65 -7 -20 -1 -41 -18 -35 -28 6 -10 -33 -55
-42 -47 -3 4 2 16 12 27 10 11 15 23 11 27 -4 4 -11 1 -15 -6 -7 -10 -13 -11
-30 -2 -19 11 -23 9 -32 -18 -6 -17 -14 -29 -18 -27 -4 3 -13 1 -21 -4 -12 -7
-12 -12 -3 -21 9 -9 9 -18 -2 -40 -8 -15 -20 -31 -26 -34 -6 -4 -3 7 6 25 17
33 11 59 -6 28 -5 -9 -24 -37 -43 -60 -18 -24 -38 -53 -44 -63 -9 -16 -11 -17
-12 -4 0 9 8 27 18 40 27 35 63 109 58 118 -3 4 8 15 25 25 16 10 36 32 44 49
12 25 14 27 9 7 -4 -22 -4 -23 7 -7 6 11 9 30 6 43 -2 14 0 27 4 30 5 3 9 14
9 25 0 10 5 19 11 19 5 0 7 5 4 10 -4 6 -1 18 6 26 17 21 3 30 -31 17 -16 -6
-30 -8 -32 -4 -2 4 -13 2 -26 -5z"/>
<path d="M8828 9381 c0 -3 -2 -10 -2 -16 -1 -5 -8 -20 -14 -33 -12 -20 -10
-26 22 -57 28 -27 32 -34 18 -37 -13 -3 -9 -8 14 -21 18 -9 46 -28 62 -42 26
-22 30 -29 20 -44 -13 -22 6 -71 49 -122 l27 -32 -24 8 -23 7 22 -38 c17 -28
21 -46 16 -71 -4 -25 1 -46 20 -85 20 -40 23 -53 13 -60 -9 -5 -10 -10 -2 -15
13 -10 46 -93 36 -93 -4 0 1 -7 11 -14 15 -12 17 -18 7 -35 -11 -21 -12 -21
-45 15 -19 19 -32 41 -29 48 3 7 -3 20 -13 28 -17 16 -135 78 -148 78 -16 0
21 -44 58 -68 49 -31 55 -38 63 -72 4 -14 13 -30 21 -37 9 -7 16 -24 16 -38 0
-14 3 -25 8 -25 5 0 9 4 9 8 0 4 17 9 38 10 33 2 42 -2 68 -35 34 -42 52 -73
52 -88 0 -12 111 -74 134 -75 26 0 61 -32 46 -41 -9 -6 -7 -13 7 -29 13 -15
16 -23 7 -32 -7 -7 -7 -19 -1 -37 12 -31 10 -121 -4 -138 -5 -7 -18 -13 -28
-13 -11 0 -19 -5 -19 -11 0 -8 13 -10 38 -5 20 3 54 6 75 6 34 0 38 2 32 20
-5 15 -2 20 12 20 10 0 14 4 8 8 -18 13 -38 60 -32 76 4 9 3 16 -1 16 -14 0
-32 -24 -32 -42 0 -10 -5 -18 -10 -18 -7 0 -9 21 -5 59 3 36 1 62 -5 66 -16
10 -11 28 6 21 13 -5 15 -2 11 14 -3 11 -1 18 4 14 5 -3 9 2 9 11 0 9 -4 13
-10 10 -5 -3 -7 0 -5 7 3 8 -9 32 -27 54 -31 37 -47 61 -73 110 -6 11 -29 43
-51 70 -85 102 -88 140 -7 84 31 -22 63 -40 72 -40 9 0 30 -9 46 -20 17 -11
36 -20 44 -20 21 0 -27 40 -69 57 -42 18 -90 61 -90 82 0 12 3 12 12 3 23 -23
36 -13 35 24 -1 20 -3 32 -5 25 -2 -6 -8 -8 -13 -5 -6 3 -5 11 2 20 9 11 8 19
-7 36 -19 20 -19 21 3 14 18 -6 22 -4 17 7 -3 8 -14 17 -25 20 -11 3 -19 14
-20 29 -1 14 -3 17 -6 7 -2 -9 0 -35 6 -58 7 -32 6 -49 -6 -71 -16 -33 -21
-37 -20 -17 1 40 -4 61 -12 49 -6 -10 -10 -5 -14 17 -8 36 -22 40 -30 9 -4
-12 -9 -19 -12 -16 -4 3 -2 15 4 26 18 34 13 63 -16 91 -37 35 -103 116 -103
126 0 4 11 -4 25 -19 25 -27 45 -34 45 -16 0 6 -5 10 -11 10 -6 0 -8 7 -5 17
4 11 -4 28 -25 50 -18 18 -30 36 -26 39 6 6 35 -24 59 -60 3 -5 19 -11 35 -12
15 -1 43 -6 61 -10 51 -11 41 15 -38 98 -38 40 -70 80 -70 88 0 12 2 13 9 1 5
-7 14 -12 21 -9 9 3 8 9 -5 22 -13 13 -31 16 -74 14 -55 -2 -111 20 -111 43 0
5 -9 9 -20 9 -13 0 -18 5 -14 14 3 8 -3 20 -15 27 -15 10 -17 17 -9 26 7 9 6
14 -3 17 -28 9 -69 13 -71 7z"/>
<path d="M8818 8622 c-21 -4 -24 -38 -4 -45 11 -4 12 -14 6 -41 -8 -37 2 -56
31 -56 14 0 29 19 29 36 0 3 -10 9 -22 14 -19 7 -20 9 -5 11 9 1 23 2 30 3 17
3 47 -13 47 -24 0 -6 -9 -10 -21 -10 -14 0 -18 -4 -12 -12 4 -7 8 -17 8 -23 3
-36 31 -108 49 -128 12 -13 20 -29 18 -36 -6 -19 8 -62 18 -56 5 3 4 16 -3 32
-9 21 -9 27 1 31 19 6 14 53 -13 107 -13 28 -27 76 -31 108 -6 54 -14 68 -39
74 -5 1 -23 6 -40 10 -16 5 -38 7 -47 5z"/>
<path d="M8994 8495 c11 -8 14 -15 8 -15 -15 0 -16 -26 -2 -35 6 -4 17 -1 25
5 9 7 26 9 42 5 21 -5 24 -8 12 -16 -11 -7 -9 -9 8 -9 12 0 24 -8 27 -18 4
-10 21 -24 40 -30 34 -13 44 -29 52 -89 3 -25 1 -33 -11 -33 -8 0 -15 -4 -15
-9 0 -10 90 -124 102 -129 4 -2 8 -10 8 -18 0 -9 11 -14 30 -14 38 0 38 12 -3
69 -19 25 -37 55 -41 66 l-7 20 18 -20 c10 -11 33 -40 51 -64 17 -25 32 -40
32 -34 0 7 -4 14 -9 17 -5 4 -8 14 -6 24 1 9 -6 29 -17 44 -18 26 -18 27 -1
22 13 -5 11 -1 -5 11 -15 11 -32 15 -48 11 -18 -5 -24 -2 -24 10 0 16 -38 76
-52 82 -4 2 -8 8 -8 14 0 6 -19 27 -42 47 -23 20 -46 42 -52 49 -43 52 -75 71
-62 35 6 -16 6 -16 -12 0 -10 9 -27 17 -38 17 -19 -1 -19 -1 0 -15z"/>
<path d="M8015 8161 c3 -6 -1 -15 -8 -22 -11 -11 -7 -18 21 -43 19 -17 42 -39
51 -48 8 -10 19 -18 24 -18 10 0 87 -80 125 -130 59 -78 64 -63 13 44 -25 52
-47 86 -56 86 -8 0 -15 7 -15 15 0 15 -67 85 -82 85 -4 0 -17 9 -28 20 -20 20
-56 28 -45 11z"/>
<path d="M8196 8159 c-4 -8 0 -29 9 -45 8 -16 15 -33 15 -39 0 -5 11 -23 25
-39 14 -16 25 -35 25 -43 0 -17 60 -143 67 -143 3 0 3 17 -1 38 -4 20 -9 75
-12 122 -3 47 -7 90 -9 97 -5 15 -85 54 -96 48 -4 -3 -9 1 -12 7 -3 9 -7 9
-11 -3z"/>
<path d="M3708 8010 c-39 -39 -73 -69 -75 -66 -7 7 7 46 17 46 13 0 82 62 76
67 -9 9 -130 -71 -168 -111 -28 -29 -36 -45 -32 -59 4 -12 2 -17 -4 -13 -6 4
-19 -5 -28 -19 -9 -13 -20 -22 -25 -19 -5 3 -9 -4 -9 -15 0 -10 -3 -21 -7 -23
-9 -4 -63 -108 -56 -108 2 0 23 10 46 23 23 13 64 30 90 38 36 10 43 15 30 21
-17 6 -17 7 0 7 9 1 17 6 17 11 0 6 9 20 19 31 14 15 26 19 43 14 l23 -7 -21
18 c-34 30 -22 73 32 109 24 17 44 32 44 35 0 3 14 21 31 40 21 25 29 29 25
15 -6 -20 -6 -20 9 -1 8 11 21 23 27 28 9 5 5 8 -10 8 -16 0 -47 -23 -94 -70z"/>
<path d="M9510 8050 c0 -5 5 -10 10 -10 6 0 10 -7 10 -15 0 -8 -4 -15 -10 -15
-5 0 -10 -8 -10 -17 0 -15 -2 -15 -14 2 -12 17 -18 18 -52 7 -22 -6 -49 -14
-62 -17 -37 -11 -19 -30 28 -30 26 0 45 -5 47 -12 8 -24 22 -13 26 20 3 28 4
26 5 -10 2 -32 -2 -43 -13 -43 -8 0 -16 -10 -17 -22 -2 -42 -3 -47 -11 -54 -4
-4 -7 -16 -7 -26 0 -12 -6 -17 -19 -15 -39 4 -21 -18 21 -27 47 -10 67 -29 68
-62 0 -22 -28 -54 -49 -54 -7 0 -11 -13 -9 -37 1 -23 -2 -38 -11 -41 -7 -2
-27 -16 -44 -31 -41 -34 -72 -51 -94 -52 -13 0 -11 -3 6 -10 27 -11 56 -4 47
10 -3 5 3 7 14 4 13 -3 20 -14 20 -29 0 -15 6 -24 15 -24 18 0 20 -17 3 -23
-25 -8 12 -51 63 -76 48 -22 51 -22 69 -6 11 10 17 22 13 28 -4 6 0 8 9 5 12
-5 14 4 14 48 -1 62 8 67 49 24 16 -16 35 -30 42 -30 7 0 29 -22 49 -50 l35
-49 42 26 c23 14 45 30 48 35 11 17 2 53 -14 53 -29 0 -28 12 2 18 33 7 74 57
65 81 -7 18 -94 23 -94 6 0 -5 -5 -10 -12 -10 -6 0 -22 -9 -34 -21 -28 -26
-37 -21 -54 31 -7 23 -30 57 -49 77 -24 24 -30 33 -17 29 19 -6 19 -6 3 12
-26 29 -20 36 12 13 18 -13 45 -21 68 -21 58 0 61 13 6 26 -40 10 -43 12 -18
13 l30 2 -41 22 c-58 31 -94 62 -94 81 0 8 -12 41 -26 73 -32 72 -54 140 -46
147 9 10 22 7 22 -4 0 -6 11 -27 23 -48 13 -20 30 -55 38 -77 15 -42 31 -65
47 -65 20 0 -11 90 -40 122 -7 7 -19 24 -26 38 -14 26 -68 90 -77 90 -3 0 -5
-4 -5 -10z"/>
<path d="M3219 7178 c0 -24 -2 -52 -4 -63 -9 -45 -15 -105 -10 -105 3 0 15 15
26 33 l21 32 -6 -44 c-8 -53 -24 -85 -71 -141 l-36 -43 31 -27 c16 -15 27 -30
23 -33 -11 -12 -51 -8 -56 6 -3 9 -8 9 -16 1 -23 -21 16 -36 99 -38 77 -1 82
0 106 27 13 15 36 59 50 98 22 61 24 75 14 100 -11 25 -10 31 8 46 13 12 22
35 25 66 4 40 2 49 -16 58 -19 11 -20 9 -13 -39 5 -39 3 -51 -8 -55 -8 -3 -16
-16 -19 -29 -2 -13 -5 -3 -6 22 -1 37 -9 54 -46 98 l-45 54 0 -30 c0 -33 -14
-50 -26 -30 -4 6 -2 14 4 16 16 5 15 35 0 50 -21 21 -28 13 -29 -30z"/>
<path d="M3041 6703 c-7 -16 -15 -68 -18 -118 l-5 -90 38 -57 c48 -70 143
-138 157 -112 11 20 2 84 -21 154 -14 41 -24 55 -38 55 -27 0 -24 -68 5 -99
23 -25 28 -56 9 -56 -15 0 -78 93 -78 114 0 7 -7 31 -16 51 -11 26 -14 61 -12
111 2 41 0 74 -3 74 -3 0 -11 -12 -18 -27z"/>
<path d="M11310 5661 c0 -11 -7 -26 -15 -35 -8 -8 -15 -25 -15 -38 0 -13 -5
-29 -12 -36 -8 -8 -8 -15 0 -25 9 -11 6 -19 -13 -37 -14 -13 -25 -29 -25 -37
0 -7 -7 -13 -15 -13 -11 0 -15 -11 -15 -35 0 -20 -7 -49 -15 -65 -21 -41 -21
-86 0 -119 5 -9 5 -16 -2 -18 -5 -2 -8 -15 -5 -28 2 -14 8 -22 13 -19 5 3 9
-4 9 -15 0 -12 5 -21 11 -21 5 0 8 4 5 9 -12 18 6 67 27 76 12 6 26 20 32 33
11 24 25 30 25 10 1 -7 10 -2 20 11 17 20 20 39 20 142 l0 119 -30 0 c-30 0
-42 21 -20 35 6 3 10 15 10 26 0 12 7 19 20 19 17 0 20 7 20 40 0 29 -4 40
-15 40 -8 0 -15 -9 -15 -19z"/>
<path d="M0 3927 c0 -121 4 -207 9 -201 5 5 18 36 30 69 12 33 25 69 30 80 5
11 16 36 25 57 9 20 16 61 16 90 0 65 -18 91 -73 106 l-37 10 0 -211z"/>
<path d="M1944 2587 c-29 -15 -30 -17 -14 -27 12 -7 9 -14 -14 -33 -23 -20
-30 -36 -34 -76 -4 -46 -3 -51 16 -51 11 0 22 -8 25 -19 3 -12 18 -22 38 -26
19 -4 50 -16 70 -26 20 -10 39 -16 41 -13 3 3 26 -6 51 -19 l46 -25 18 22 c16
17 19 37 18 115 0 86 -2 95 -22 108 -13 9 -23 23 -23 33 0 13 -14 20 -57 28
-93 18 -138 20 -159 9z"/>
<path d="M2542 2253 c-6 -2 -10 -8 -7 -13 2 -4 -4 -15 -15 -25 -13 -11 -20
-14 -20 -6 0 7 -4 9 -10 6 -5 -3 -10 -29 -10 -57 0 -37 -5 -54 -17 -64 -17
-13 -17 -13 0 -14 19 0 24 -30 4 -30 -25 0 -147 104 -147 125 0 8 -17 15 -40
17 l-40 4 6 -51 c3 -27 16 -73 29 -102 16 -34 26 -80 31 -138 4 -47 12 -92 18
-99 30 -32 38 -63 37 -133 -1 -43 3 -73 9 -73 17 0 11 -96 -7 -129 -19 -33
-27 -37 -46 -21 -47 40 -61 50 -66 48 -3 -2 -25 -12 -49 -22 -31 -15 -42 -26
-42 -42 0 -12 -5 -24 -10 -26 -6 -2 -12 -16 -14 -31 -3 -27 -16 -51 -16 -29 0
7 -10 5 -28 -5 -26 -15 -32 -15 -85 2 -64 20 -122 68 -138 115 -6 16 -15 30
-20 30 -5 0 -9 18 -9 39 0 22 -4 42 -9 46 -13 8 -1 78 16 88 7 4 13 15 13 22
0 10 10 15 26 15 29 0 114 39 114 52 0 4 6 8 13 8 7 0 34 20 60 44 38 35 47
50 47 78 0 36 -3 40 -80 108 -44 39 -46 39 -105 34 -33 -3 -68 -6 -78 -5 -10
0 -17 -5 -15 -11 3 -7 -4 -20 -13 -29 -10 -10 -23 -36 -29 -58 -18 -70 -35
-81 -125 -86 -176 -11 -204 -25 -210 -105 -4 -50 12 -96 54 -148 26 -34 28
-43 24 -97 -4 -57 -11 -83 -36 -130 -5 -11 -13 -82 -17 -157 -6 -133 -8 -140
-37 -181 -17 -23 -43 -48 -59 -56 -16 -8 -30 -18 -32 -23 -6 -15 -109 -9 -122
7 -7 8 -16 15 -21 15 -4 0 -19 10 -32 22 -14 13 -50 41 -82 62 l-56 39 -68
-21 c-37 -12 -81 -22 -98 -22 -17 0 -36 -7 -43 -15 -16 -19 -40 -19 -40 0 0
10 -10 15 -26 15 -15 0 -34 8 -43 18 -24 28 -86 34 -143 15 -26 -8 -48 -19
-48 -24 0 -5 -7 -9 -16 -9 -24 0 0 -27 40 -45 17 -8 38 -19 46 -24 8 -5 44
-24 80 -40 78 -37 93 -47 138 -86 18 -16 42 -34 52 -40 9 -5 30 -24 44 -42 29
-34 29 -36 -24 -91 -8 -8 -16 -23 -16 -31 -1 -20 -61 -205 -73 -229 -20 -38
-33 -103 -37 -178 -2 -43 -7 -114 -10 -156 l-6 -78 1270 0 1270 0 6 31 c11 54
7 135 -9 179 -8 23 -15 59 -16 79 0 20 -10 56 -22 80 -18 36 -31 47 -77 66
-30 13 -56 28 -58 34 -2 6 -8 11 -13 11 -5 0 -22 14 -38 32 -23 26 -31 47 -40
118 -12 80 -45 170 -63 170 -17 0 -8 109 11 144 37 65 35 128 -9 256 -6 19
-16 49 -22 65 -25 75 -41 111 -53 125 -17 21 -27 71 -30 160 -4 108 -75 354
-107 368 -5 2 -8 10 -8 18 0 8 -7 17 -15 20 -8 4 -15 14 -15 24 0 10 -4 20 -8
22 -16 7 -61 74 -68 103 -4 17 -10 35 -14 40 -5 6 -14 29 -21 53 -13 46 -22
52 -38 25 -10 -17 -11 -16 -12 2 -1 11 -1 23 0 28 0 4 0 7 -1 6 -2 0 -9 -3
-16 -6z"/>
<path d="M10353 2028 c-11 -13 -18 -39 -33 -120 -5 -26 -13 -56 -19 -67 -6
-11 -11 -36 -11 -57 0 -32 7 -43 47 -80 55 -48 123 -66 150 -39 8 8 21 15 30
15 28 0 42 33 43 96 0 44 -4 63 -14 67 -8 3 -17 21 -21 39 -21 100 -134 195
-172 146z"/>
</g>
</svg>
