<?xml version="1.0" encoding="UTF-8"?>
<svg id="Ebene_1" data-name="Ebene 1" xmlns="http://www.w3.org/2000/svg" xmlns:xlink="http://www.w3.org/1999/xlink" viewBox="0 0 400 192.51">
  <defs>
    <style>
      .cls-1 {
        clip-path: url(#clippath);
      }

      .cls-2 {
        fill: none;
      }

      .cls-2, .cls-3 {
        stroke-width: 0px;
      }

      .cls-3 {
        fill: #fff;
      }
    </style>
    <clipPath id="clippath">
      <rect class="cls-2" x="-4.42" y="-2.02" width="409.42" height="196.52"/>
    </clipPath>
  </defs>
  <g class="cls-1">
    <g>
      <path class="cls-3" d="M380.83,146.36c-.05.05-.05.11-.11.11-.05-.05-.11-.05-.11-.16,0,0,0-.05.05-.05.05.05.11.11.16.11M388.69,157.64c0-.88,0-1.64-.05-2.41,0-.16,0-.22.11-.38.22-.22.11-.6.11-.88-.05-.38.05-.77,0-1.2-.11-1.31,0-2.63.11-3.94.05-.82.27-1.64.49-2.46.11-.38.49-.38.82-.38.16,0,.27,0,.33-.22.05-.11.16-.16.27-.16.27-.05.6-.49.93.05.11.16.49.05.71.33h.05c.33-.55.82.16,1.15-.16,0,0,.11,0,.11.05.16.33.33.16.49.05.27-.11.55-.22.77.11.05,0,.16.05.22,0,.33-.22.71.27,1.04.05.22.33.66,0,.82.38,0,.05.05.05.11.05.55-.05.71.05.82.49.27,1.04.49,2.08.22,3.12-.11.6-.05,1.2.05,1.81.05.33-.05.66-.05.99-.05,1.31-.16,2.63-.05,3.94.05,1.81-.38,3.61-.38,5.42,0,1.37-.27,2.68-.27,4.1-.05,1.15-.16,2.35-.22,3.5-.05,1.48-.05,2.96,0,4.43.11,1.75-.05,3.45,0,5.2.05,1.42.11,2.9.05,4.32,0,1.53-.11,3.07-.55,4.6l-.16.44c-.22.27-.16.55-.22.82-.16.38-.49.49-.82.55-.38,0-.71-.05-1.04.22-.38.27-.88.16-1.31.22-.93.16-1.92.11-2.85.27-.33.11-.71-.05-.99-.27-.22-.11-.44-.22-.66-.22-.55.05-.82-.27-1.04-.66-.71-1.2-.99-2.57-1.2-3.94-.16-.88-.44-1.64-.77-2.46-.44-.93-.6-1.97-.82-2.96l-.33-1.15c-.22-.88-.44-1.81-.71-2.68,0-.11-.05-.16-.11-.27-.11.05-.11.11-.11.22-.11,1.2-.22,2.41-.22,3.61,0,.33-.05.71-.05,1.04,0,1.48-.05,2.96-.33,4.38-.16.82-.33,1.59-.44,2.41-.11.77-.16,1.48-.38,2.19-.05.22-.16.38-.22.6-.11-.38-.49-.66-.38-1.09-.27.05-.22.33-.27.49-.33-.16-.66-.49-1.04-.27-.05,0-.05.05-.05.05-.33-.44-.49.16-.66.11-.22-.05-.55.05-.71-.16-.33-.38-.33-.05-.44.16-.05.11-.05.22-.11.38-.11-.16-.05-.27-.05-.38s-.11-.22-.16-.16c-.22.38-.22.05-.27-.05-.05-.11-.16-.16-.33-.11-.11,0-.11.11-.16.22,0,.16.05.33-.11.44-.11-.16-.05-.33,0-.55-.44.27-.66-.16-.99-.22-.27,0-.55-.22-.88-.22-.16,0-.55-.11-.77-.27-.05-.11-.16-.16-.27-.16-.55-.05-.6-.44-.66-.88-.11-.82-.05-1.7-.11-2.57,0-.77.27-1.48.27-2.19s.05-1.42-.11-2.13c-.05-.38.05-.77.11-1.09.11-1.15.05-2.3.33-3.4.22-1.04.11-2.13.05-3.17-.11-1.15-.11-2.24.11-3.34.11-.82.16-1.64,0-2.46-.22-1.31-.22-2.57-.16-3.89.11-.99.16-1.97.27-2.9.11-.49,0-1.04,0-1.53.05-.49.05-1.04.05-1.53,0-.71-.11-1.42-.05-2.13.11-1.15.22-2.35.11-3.5l-.16-2.96c-.05-.66-.11-1.31.11-1.97.16-.6.44-.66.99-.66.55.05,1.09.16,1.53-.16.22-.16.44-.16.71-.11.11.05.33.11.49.05.55-.05,1.04-.11,1.59,0,.22,0,.38-.11.6-.05.22,0,.44,0,.6.16.11.11.22.11.38,0,.33-.16.55.22.88.16.11,0,.27.16.27-.11.05-.05.16,0,.27.05.27.22.49.55.93.38,0,0,.11.05.11.11.22.88.93,1.48,1.31,2.24.66,1.15,1.15,2.35,1.64,3.56.44.99.6,2.08,1.09,3.07.22.49.27.99.66,1.59M354.83,189.39h.77c-.22.16-.49.05-.77,0M353.79,189.28c.22-.11.33-.05.44.11-.16.16-.27,0-.44-.11M362.77,188.74c-.11.05-.11-.05-.11-.11s.05-.11.11-.16c.05.05.11.05.11.05,0,.05-.05.16-.11.22M363.81,187.97s-.16,0-.11-.11c0,0,.11-.05.16-.05l.05.05c0,.11-.05.11-.11.11M352.78,160.59v-.22l.05.11c0,.05.05.16,0,.16-.11.11-.05,0-.05-.05M358.12,178.28c-.05.49-.11.93-.11,1.42.05.77-.16,1.48-.49,2.19-.16.44-.44.71-1.04.55s-1.26,0-1.81-.55c-.33-.27-.38-.55-.38-.99.05-2.08.16-4.11,0-6.19-.22-2.35-.38-4.76-.22-7.12.05-1.04-.16-2.13-.05-3.17.05-.77-.05-1.64.55-2.3.05-.05.11-.16.11-.22-.27-.82.27-1.53.33-2.3,0-.88.05-1.81,0-2.74,0-.33.05-.49.44-.66.49-.16.77-.77,1.48-.66.66.11,1.42.93,1.37,1.64,0,.38-.05.71-.11,1.09v1.09h-.05c0,.71.05,1.42-.05,2.08-.11.82.16,1.59.16,2.41s.05,1.64.16,2.52c.22,1.81,0,3.67.05,5.48,0,1.31.05,2.63.11,3.94.05.88-.33,1.64-.44,2.46M343.63,150.85c-.22.27-.27.49-.22.71l.22-.71ZM362.96,150.85l-.11-.16s.05-.05.11-.05c0,.05.05.11.11.22h-.11ZM363.95,151.23c.22-.44-.05-.6-.27-.82-.16-.11-.16-.22,0-.33.11-.05.22,0,.33.05.38.33.66,1.7.38,2.19-.33-.27-.66-.66-.44-1.09M365.49,149.42c0-.11.11-.27.22-.22.16.11.27.27.33.49-.11-.22-.6.16-.55-.27M363.8,149.1c-.05-.05-.11-.11-.05-.16.05,0,.11,0,.11.05.05,0,.05.05.05.11h-.11ZM364.84,149.48c-.16.11.11.38-.16.38-.16,0-.22-.05-.33-.16-.27-.27.16-.11.16-.22v-.16c.11-.16-.33-.27-.05-.38.22-.11.44.11.49.22.11.22.44.38.33.71-.22-.05-.22-.33-.44-.38M364.18,148.66s-.11-.05-.11-.11l.11-.11c.05.11.11.11.11.16-.05.05-.11.11-.11.05M364.46,148.44c0-.05.05-.11.05-.11.16.05.22.16.22.27.05.16-.11.11-.16.11-.11-.05-.16-.16-.11-.27M363.85,147.51s.05-.05.11-.05.11.05.16.11c-.11,0-.16.05-.16.05-.05,0-.11-.05-.11-.11M363.25,147.18c-.05-.11,0-.11.05-.11.11,0,.16.05.16.11s-.05.11-.11.11c-.05-.05-.11-.05-.11-.11M350.05,146.74s-.05-.05-.05-.11c.05-.05.11-.05.16-.05l.05.05c-.05.05-.11.11-.16.11M362.05,146.47s-.11-.05-.11-.11.05-.11.16-.05l.11.11c-.05.05-.11.11-.16.05M358.98,145.7s-.11-.05-.16-.05c.16-.16.33-.16.38-.05.05.16-.11.11-.22.11M367.7,165.58c-.05-1.15-.27-2.35-.44-3.56-.16-.99-.16-1.97-.16-2.96,0-.33,0-.77.05-1.2.33.38.11.82.27,1.26.05-.16.11-.27.16-.33.33-.44-.11-.88-.05-1.31.05-1.2-.22-2.41,0-3.56.05-.16,0-.33,0-.55,0-.11-.05-.22-.22-.22-.11-.05-.16-.05-.22.05s0,.27.16.33v.6c-.16-.27,0-.44,0-.6l-.33.22c.05-.33-.16-.6.11-.82.22-.18.22-.36,0-.55.33-.16.38-.38.33-.82-.16-.82-.6-1.53-.93-2.25-.11-.11-.22-.49-.44-.33-.33.22-.33-.05-.33-.16.11-.49-.22-.82-.55-.99-.55-.27-.66-.82-1.04-1.2-.22-.16,0-.6-.38-.71-.22.22.11.44-.05.66-.49-.22-.93-.44-1.37-.6-.27-.05-.33-.27-.49-.44-.49.49-.99,0-1.48-.05-.66-.05-1.31-.05-1.97-.16-.55-.05-1.15-.33-1.75.11-.22.16-.82-.16-1.2.16l-.22-.05c-.05-.55-.44-.22-.66-.27.16.11.33.22.22.49-.27-.11-.44-.27-.82-.05-.33.16-.33-.11-.11-.38-.99,0-1.75.6-2.74.6.11.22.27.05.38.27-.38-.16-.71.11-1.04,0-.33-.05-.38.44-.71.33,0,0-.11.16-.22.05-.22-.38-.66,0-.71.05-.55.55-1.09,1.15-1.64,1.75-.33.38-.33.93-.77,1.26-.27.27-.55.44-.27.82.05.11-.05.22-.16.16-.27,0-.27.22-.38.44-.66,1.59-.6,3.28-.49,4.93.05.27-.27.38-.11.66.49.77.38,1.7.44,2.52.05,1.2-.38,2.35-.44,3.56-.05,1.53-.49,3.07-.33,4.54.16,2.3-.05,4.65.16,6.96.16,1.86.16,3.72.16,5.58,0,1.31.33,2.63.55,3.89.27,1.97,1.53,3.5,2.9,4.82,1.04,1.04,2.52,1.31,3.83,1.81.93.33,1.97.55,2.96.38.88-.16,1.64.05,2.41.22.71.11,1.42.11,2.13.05,1.42,0,2.68-.77,3.72-1.7.55-.44,1.09-.82,1.59-1.26.6-.55,1.15-1.04,1.48-1.75.49-1.2.71-2.52.71-3.78.05-1.09.22-2.19.33-3.29.05-1.04.22-2.02.11-3.06-.05-1.15,0-2.24-.05-3.39-.05-.82.16-1.7.27-2.57.22-1.53-.11-3.06-.16-4.6M314.36,187.86c-.11-1.53-.27-3.23-.27-4.87,0-1.75-.16-3.45-.33-5.2-.11-1.1,0-2.14.22-3.23.05-.16.05-.44.05-.6-.22-3.07.27-6.08.16-9.15-.05-1.97-.11-4-.27-5.97-.11-1.09,0-2.13.22-3.17.16-1.2.16-2.52-.05-3.72-.16-1.48-.22-2.96.05-4.43.11-.55.49-.77.82-.77.71.05,1.26-.27,1.92-.49.66-.16,1.37.05,2.02-.05.38-.11,1.2,0,2.08-.05.88-.05,1.81,0,2.74.11.22.05.55.22.6.6.38,1.81.71,3.61.38,5.47-.11.66-.16,1.37-.05,2.02.11.82.05,1.7-.11,2.57-.33,1.75,0,3.45.22,5.2.27,2.41.33,4.76.11,7.17-.11,1.75,0,3.56-.11,5.31-.05,1.37-.16,2.74-.22,4.05-.05,1.26.55,1.92,1.75,1.86,1.81-.05,3.56.11,5.31-.16.44-.11.82.05,1.26.11,1.26.05,2.52-.05,3.78-.16.82-.11,1.59,0,2.35.38.27.22.66.27,1.04.11.33-.16.77.11.82.38.11.82.44,1.64.6,2.46.22,1.31.16,2.02-.16,3.34-.27,1.04-.27,2.08-.6,3.12-.05.33-.11.49-.49.44-.99-.11-2.02.11-3.01.27-1.31.27-2.68.22-4,0-1.04-.16-2.08-.11-3.12-.05-2.46.11-4.93-.33-7.34-.33-1.64.05-3.28,0-4.93,0-.66.05-1.2-.05-1.81-.27-.16-.11-.38-.16-.49-.22-.33-.16-.77.16-.99-.22s-.22-.93-.22-1.37c0-.16,0-.27.05-.49M299.27,187.2c-.11.16-.11.38,0,.55.22-.22.11-.38,0-.55M296.48,185.45s-.11-.05-.11-.05c-.05.05-.05.11-.05.16,0,0,.11.05.11,0,.05,0,.05-.05.05-.11M296.64,179.98c0,.11-.05.16-.05.22,0,.05,0,.16.11.11.05,0,.11-.11.11-.16s-.05-.11-.16-.16M296.26,179.04c-.27.38-.22.66-.05.99,0-.33.27-.55.05-.99M281.71,173.13c.05-.27.11-.55-.16-.93,0,.44-.05.71.16.93M281.6,171c0,.38-.11.6.11.77.05-.22.05-.44-.11-.77M281.65,169.63c-.16.44-.16.71,0,.99.11-.27,0-.55,0-.99M281.87,169.08c-.05-.05-.05-.16-.11-.16-.22-.05-.16.11-.11.16,0,.05.05.11.11.16l.11-.16ZM285.82,166.89c0-.16.22-.22.27-.33-.05-.05-.16-.05-.22-.05-.22,0-.11.16-.11.27,0,.05.05.05.05.11M286.64,166.4c.11.44-.05.71.16.93-.05-.22.16-.49-.16-.93M280.37,164.86s-.11-.05-.16-.05-.11.05-.11.11l.11.11s.11-.05.16-.16M282.02,165.03c-.11-.22.05-.38-.27-.55.11.22,0,.33.27.55M286.23,162.95c0-.33.11-.55-.11-.77-.22.27-.27.44.11.77M287.44,163.17c.6-.27.38-.6.05-.93-.11-.05.11-.49-.27-.33-.27.16-.27.49-.11.6.38.11.16.44.33.66M285.3,160.81c0,.11-.05.16-.05.22s0,.16.11.11c.05,0,.11-.11.11-.16s-.05-.11-.16-.16M285.69,160.32c.05.38.05.66.05.93.05-.27.16-.55-.05-.93M284.65,160.7c.05-.11.05-.22.05-.27,0-.11.05-.33-.16-.22-.16.11-.05.27.11.49M280.54,158.02c-.11-.11-.22-.22-.33-.27,0,.05-.05.11-.05.22.05.05.05.16.16.16.05,0,.11-.05.22-.11M281.13,156.05c-.05-.05-.05-.16-.16-.11-.05,0-.05.11-.05.11,0,.05.05.11.11.16,0-.05.05-.11.11-.16M286.5,155.39c-.27.33-.22.66-.11.99.05-.33.33-.66.11-.99M287.1,154.35c0-.11-.05-.11-.05-.05s0,.05.05.11v-.05h0ZM282.95,146.3c-.11.05-.16.16-.11.27,0,.05.05.05.11.05.05-.11.11-.22,0-.33M285.8,145.86c-.05-.27-.05-.44.05-.6l.16.11c.22.22,0,.33-.22.49M301.24,188.68c-.11.49-.44.66-.82.82-.05-.27.16-.55-.11-.82-.05.22-.11.38-.22.66-.11-.44-.33-.38-.66-.38-.44.05-.71.16-.77.55-.11-.05-.16-.05-.16-.05-.27-.38-.55-.93-.99-.93-.38,0,.05.66-.27.93-.38-.33-.66-.88-1.31-.77-.22.05-.27-.22-.33-.44-.38-2.46-.11-4.93-.05-7.39.11-2.35.22-4.71.16-7.12,0-.27-.05-.44-.44-.44-1.53,0-3.07.05-4.6-.16-.44-.05-.55.16-.55.6,0,1.2.05,2.41,0,3.61-.11,2.52-.11,5.09-.16,7.66,0,1.31.16,2.63-.11,3.94-.05.38-.27.77-.33,1.15-.05.16-.22.44-.66.27-.6-.16-1.26.11-1.92.16-.82.05-1.7-.05-2.41.22-1.37.44-2.63-.16-3.94.22-.77.16-1.2-.16-1.2-.99-.05-2.08,0-4.1.05-6.19v-.49c-.22-2.63-.27-5.26-.11-7.88.27-3.56-.05-7.07.05-10.62.05-3.89,0-7.83,0-11.72-.05-2.35-.22-4.76.16-7.12.05-.49.27-.66.82-.38.49.22,1.15-.05,1.53.55.11.11.11-.27.27-.33l.16.71c.38,0,.16-.38.33-.49.22-.22.38-.6.66-.38.71.6,1.09-.22,1.64-.27.16.38-.16.77,0,1.2.33-.38.44-.77.16-1.42.49.49.27.88.27,1.26.6-.27.49-.38.93-.82.27-.33.88-.27,1.42-.16.49.11.16.38.22.66-.38,0-.22-.38-.44-.49-.22.33-.27.66.05.77.16.11.49-.05.6-.38.11-.22.27-.44.49-.88-.11,1.42.71,2.52.33,3.78.44-.49.05-1.2.6-1.86,0,.33.11.55.11.71,0,1.59.16,3.12.38,4.71.16.99-.38,1.86-.27,2.85.11,1.48.11,2.9.16,4.38.05,1.2,0,2.41.16,3.61.05.38,0,.71.6.49.33-.11.88,0,1.31.22.49.22,1.15,0,1.7-.05,0-.22-.33-.05-.33-.33,0-.16.16-.16.33-.16.49-.05,1.04-.11,1.59-.05.38,0,.55,0,.55-.44.05-.6.11-1.2.05-1.81-.27-2.68,0-5.31-.05-8,0-1.97,0-3.94.05-5.91.05-.71-.05-1.48.44-2.08.49.71.77.71,1.86.11.16-.11.22-.22.44-.16.82.16,1.59.16,2.41-.16.38-.16.88.33,1.37.33.16,0,.27.11.44.05.6-.33,1.2-.05,1.86,0,.66.11.77.49.88,1.04.44,1.7.44,3.45.49,5.2.11,2.63-.05,5.25.16,7.88.16,1.75.16,3.56.16,5.31,0,2.63-.11,5.25-.33,7.83-.16,1.59-.05,3.17-.16,4.76-.16,3.34-.38,6.62-.38,9.91,0,.77-.33,1.48-.22,2.19.05.16,0,.27-.16.27-.33,0-.71-.05-.82-.33-.22-.33-.44-.22-.6-.11-.55.27-.88-.22-1.2-.38-.27-.11-.38-.22-.49.05-.44.77-.55.11-.88-.27M253.51,155.17c-1.26,0-2.52.27-3.78.05-1.7-.27-1.97-.55-2.35-2.14-.33-1.26-.33-2.52-.05-3.78.11-.33,0-.77.05-1.09.16-1.04.66-1.48,2.13-1.48,1.7-.05,3.39-.33,5.09-.33,2.57-.05,5.15-.38,7.72-.33,2.63.11,5.25.11,7.88.11,1.09,0,2.24-.16,3.34.33.27.16.33.22.33.55.05.71-.05,1.37.05,2.08.05.11.16.16.05.27-.6.88-.11,1.92-.44,2.79-.05.11-.05.27.05.33.55.33.22.82.22,1.2,0,.88-.66.99-1.26,1.15-.71.16-1.37.22-2.08.22-1.09-.05-2.19,0-3.29.05-.49,0-.93.05-1.37,0-.99,0-1.04,0-1.04.93.05,1.37,0,2.74.16,4.1.11,1.09.11,2.19-.05,3.29-.22,1.64-.16,3.34-.16,4.98,0,1.97-.16,3.89-.44,5.86-.11.93.16,1.86.22,2.79.05,1.48,0,2.96.05,4.49,0,.55.05,1.04.11,1.59.27,2.13.05,4.27-.22,6.35-.05.66-.6,1.2-1.37,1.26l-1.92.16c-.82.11-1.59-.22-2.41-.16-.33,0-.66-.05-.99,0-.77.05-1.53-.22-2.19-.55-.16-.11-.22-.49-.22-.71-.05-1.31-.38-2.63-.27-3.94.27-2.57.16-5.15.33-7.72.11-1.37-.11-2.74,0-4.1.11-2.02-.11-4,.05-6.02v-.16c-.49-2.3.05-4.6-.33-6.84-.33-1.59,0-3.12.22-4.71.11-.82.05-.88-.82-.88h-1.04.04ZM230.62,172.69h3.56c.22,0,.38-.05.33-.33-.11-.66-.05-1.42-.27-2.02-.6-1.86-.82-3.78-.93-5.75-.05-.44-.05-.93-.38-1.48-.82,3.28-.99,6.51-2.3,9.58M240.52,163.06c.05-.11.11-.16.11-.27.05-.11-.05-.16-.16-.11-.05,0-.05.11-.05.22,0,.05.05.11.11.16M240.35,162.51c.16-.49,0-.71-.22-.99l.22.99ZM222.33,156.1c.22-.22.22-.33.11-.49-.16.11-.11.27-.11.49M222.66,154.68c.16-.16.33-.27.16-.49-.11.11-.22.22-.16.49M244.42,190.49c-.16-.6-.38-.6-.71-.27-.27.33-.55.77-1.09.33-.05-.05-.55.05-.82.11-.66.16-1.37.44-2.03.33-.71-.11-1.42-.33-2.13-.55-.22-.05-.22-.27-.27-.49-.82-2.52-.88-5.14-1.37-7.72-.05-.33-.11-.38-.38-.44-1.59-.05-3.17-.16-4.76-.27-.66-.05-1.37-.16-2.08-.27-.27,0-.44.05-.49.44-.44,1.7-.82,3.34-1.48,4.98-.33.82-.33,1.81-.71,2.68-.27.6-.88.82-1.53.93-.77.11-1.53-.27-2.24-.11-.6.16-1.09.22-1.64.05-.71-.22-1.26.38-1.92.27s-1.26.11-1.86.11c-.49-.05-.93-1.09-.82-1.53.16-.88.38-1.7.6-2.57.11-.44.6-.71.71-1.2.27-1.04.6-2.02.82-3.01.05-.38-.22-.88,0-1.26.88-1.48,1.04-3.17,1.75-4.71.22-.44.6-.99.16-1.64-.11-.11.05-.55.16-.82.6-1.09.93-2.3,1.2-3.45.16-.55,0-1.2.22-1.75.44-1.04.44-2.13.71-3.23.27-1.09.66-2.19.82-3.28.27-1.53.71-3.01,1.15-4.49.05-.16-.05-.44.33-.38.22.05.27-.16-.05-.49-.11-.05-.05-.16,0-.22.05-.38.11-.77.22-1.15,0-.16,0-.49.33-.16.11.11.16-.22.11-.27-.6-.6-.05-1.2.11-1.64.93-1.75,1.53-3.67,2.3-5.47.22-.44.11-.99.55-1.37.16-.16.38-.44.6-.44.88-.05,1.75-.22,2.68.05.22.05.44.05.66-.05.44-.27.88.22,1.42.05.49-.16,1.09-.22,1.7-.11.44.11.88.44,1.42.22.16-.05.55.22.66.6.22.6.49,1.2,1.04,1.59.44.33.27.82.49,1.2.77,1.53,1.09,3.23,1.64,4.87.66,1.97.93,3.94,1.26,5.97.38,1.97.88,3.94,1.26,5.97.11.6,0,1.31.27,1.86.38.77.49,1.53.27,2.35-.11.44.33.44.44.77.49,2.08.49,4.16,1.09,6.24.44,1.26.55,2.68.82,4,.27,1.31.6,2.57.77,3.89.11,1.2.49,2.41.27,3.61-.27,1.26-.93,1.64-2.02.99-.55-.33-.55-.05-.6.38M210.04,166.07c0-.22.05-.38.05-.55.05-.11.05-.05.11,0,.16.33.16.66.16.99-.11,3.23.11,6.46.22,9.69.05,1.97-.22,3.94-.05,5.97.16,1.86-.11,3.78-.05,5.64.05.82-.33,1.64-.49,2.41-.05.22-.22.38-.49.44-.99.11-2.02.44-2.96.33-1.1-.11-2.25.11-3.34-.33-.33-.16-.6.27-.99.27-.55,0-.99-.27-1.53-.38-.22-.05-.49-.27-.55-.55-.27-2.02-.27-4,.05-6.02.16-.82.27-1.64-.11-2.46-.27-.6-.05-1.26-.11-1.92,0-1.97-.16-3.89-.22-5.86-.16-2.74-.27-5.47-.11-8.21.11-1.31-.05-2.68-.05-4,.05-1.86.22-3.72.27-5.58,0-1.75-.11-3.5.16-5.2.16-1.15.22-2.3.33-3.45.11-.82.88-1.26,1.53-1.59,1.26-.66,2.57-.44,3.89.11.38.16.77.22,1.15,0,.38-.22.71-.22.99.11.27.27.77-.16.93.22.33.99.82,1.97.93,3.01.22,1.59.22,3.17,0,4.76-.16,1.75.33,3.45.49,5.14.11,1.04.05,2.08-.11,3.12-.11.82-.38,1.7-.27,2.46.05.49-.27.99.16,1.42M179.34,158.62h0v3.34c0,.33.16.44.49.44.49,0,.99-.11,1.48-.16.33-.05.49-.27.49-.6.22-2.08.27-4.16-.33-6.24-.11-.16-.16-.33-.44-.33-.38.05-.77,0-1.15-.11-.49-.05-.6.16-.6.6.05,1.04.05,2.03.05,3.07M180.78,178.5c.05,2.57-.16,4.98-.38,7.39-.16,1.31-.05,2.68-.44,3.94-.22.6-.49.93-1.15.82-1.64-.22-3.29-.11-4.93,0-.38,0-.71-.16-1.04.11-.22.22-.27-.16-.49-.22-.93-.11-1.37-.66-1.37-1.59,0-.82-.11-1.7.05-2.46.33-1.7.05-3.45.38-5.2.11-.6.16-1.31.05-1.92-.22-1.92.11-3.78,0-5.69-.11-2.96-.16-5.86-.22-8.82,0-2.08-.05-4.16-.22-6.18-.11-1.92.22-3.83.22-5.75,0-.93-.22-1.81-.22-2.68,0-.66-.16-1.31.11-1.92.16-.33.11-.66.22-1.04.27-.82,1.09-1.53,1.97-1.48.38.05.82-.05,1.2-.05.6-.05,1.2,0,1.81.05,1.64.05,3.34,0,4.98-.33.71-.11,1.53-.05,2.3.05.82.11,1.64.11,2.46.33,1.92.55,3.67,1.37,4.71,3.29.93,1.7,1.09,3.5,1.37,5.25.38,2.24.33,4.49.27,6.74,0,.27,0,.55.05.77.22.71.22,1.42.05,2.13-.16.77-.22,1.59-.38,2.35-.16.99-.66,1.81-1.48,2.46-.66.55-1.26,1.26-2.13,1.53-.22.11-.27.22-.16.44s.22.49.38.77c.49.93.71,1.86.88,2.9.27,1.53.71,3.01,1.15,4.49.38,1.15.49,2.3.6,3.39.27,1.75.33,3.45.71,5.14.22.93.38,1.86-.05,2.79-.16.38-.38.6-.82.49-.38-.11-.71.16-1.04.11-.82-.16-1.64.16-2.35.05-.66-.16-1.42.33-1.97-.27-.6.33-1.15.05-1.7,0-1.04-.05-.99-.05-1.15-1.09-.27-1.26-.55-2.52-.88-3.72-.49-1.81-.88-3.61-.88-5.48-.05-.6-.11-1.2-.49-1.92M145.78,155.17c-1.26,0-2.52.27-3.78.05-1.7-.27-1.97-.55-2.35-2.14-.33-1.26-.33-2.52-.05-3.78.11-.33,0-.77.05-1.09.16-1.04.66-1.48,2.14-1.48,1.7-.05,3.39-.33,5.09-.33,2.57-.05,5.15-.38,7.72-.33,2.63.11,5.25.11,7.88.11,1.09,0,2.24-.16,3.34.33.27.16.33.22.33.55.05.71-.05,1.37.05,2.08.05.11.16.16.05.27-.6.88-.11,1.92-.44,2.79-.05.11-.05.27.05.33.55.33.22.82.22,1.2,0,.88-.66.99-1.26,1.15-.71.16-1.37.22-2.08.22-1.09-.05-2.19,0-3.28.05-.49,0-.93.05-1.37,0-.99,0-1.04,0-1.04.93.05,1.37,0,2.74.16,4.1.11,1.09.11,2.19-.05,3.29-.22,1.64-.16,3.34-.16,4.98,0,1.97-.16,3.89-.44,5.86-.11.93.16,1.86.22,2.79.05,1.48,0,2.96.05,4.49,0,.55.05,1.04.11,1.59.27,2.13.05,4.27-.22,6.35-.05.66-.6,1.2-1.37,1.26l-1.92.16c-.82.11-1.59-.22-2.41-.16-.33,0-.66-.05-.99,0-.77.05-1.53-.22-2.19-.55-.16-.11-.22-.49-.22-.71-.05-1.31-.38-2.63-.27-3.94.27-2.57.16-5.15.33-7.72.11-1.37-.11-2.74,0-4.1.11-2.02-.11-4,.05-6.02v-.16c-.49-2.3.05-4.6-.33-6.84-.33-1.59,0-3.12.22-4.71.11-.82.05-.88-.82-.88h-1.04.02ZM121.2,177.18c-.11,0-.11.05-.11.11s0,.16.11.11c0-.05.05-.11.05-.16l-.05-.05h0ZM119.39,171.6c0-.05-.05-.11-.11-.16-.11,0-.05.11-.11.16,0,.05.05.16.11.16.11,0,.11-.11.11-.16M131.87,169.3c0,.05.05.11.11.16v-.16c0-.05,0-.11-.05-.11-.11-.05-.11.05-.05.11M119.33,168.97c-.11,0-.16.05-.16.16,0,.05,0,.16.11.11.05,0,.11-.11.16-.16,0,0-.05-.11-.11-.11M121.14,168.92c.16-.11.22-.27.11-.49-.05.16-.22.27-.11.49M119.22,167.6c-.05.22-.05.38.05.55.05-.22.16-.33-.05-.55M119.81,163.33c-.11.16-.11.33,0,.49.11-.16.11-.33,0-.49M112.92,157.47c-.11.16-.11.27,0,.44.11-.16,0-.27,0-.44M121.31,167.55c.16.11.11.27.11.38.05,1.53.11,3.01.11,4.49v7.78c0,.16-.05.44.16.49.27.16.22-.16.33-.27.11-.05.22-.05.33-.05.71-.16,1.37-.33,2.08-.38.6,0,.77-.38.77-.77,0-1.59.33-3.12.27-4.65-.11-2.79-.16-5.58-.16-8.38,0-.99-.11-1.97-.22-2.96-.16-1.48-.66-2.9-.33-4.38.22-1.09-.38-1.92-.88-2.79-.11-.22-.33-.33-.49-.38l-1.75-.16c-.22,0-.27.11-.33.38,0,.88-.16,1.75-.05,2.68.11.88.22,1.81-.05,2.74,0,.11-.05.22,0,.33.49.77.22,1.53.16,2.35-.05.6-.27,1.2.05,1.86.05.05.05.27,0,.38-.33.44-.16.88-.11,1.31-.16.11-.16.22,0,.33.05-.11.05-.22,0-.33M112.11,153.2c-.38.44-.11,1.04-.6,1.31.16-1.48.05-2.85.05-4.27,0-.88,0-1.75.22-2.63.16-.82.88-1.09,1.59-1.15,2.19-.22,4.33-.82,6.52-.6,1.7.22,3.34.05,4.98,0,2.08-.05,4,.38,5.75,1.42,1.31.77,2.19,2.02,2.74,3.45l.82,2.3c.82,1.97,1.64,4,1.48,6.24-.11.93-.11,1.86,0,2.79.44,4.49.22,9.03.22,13.52-.05,2.85-.38,5.7-1.09,8.43-.27,1.09-.93,1.92-1.64,2.79-1.2,1.48-2.63,2.52-4.38,3.23-1.04.44-2.08.71-3.17.71-2.3.11-4.54.27-6.79.27-1.64-.05-3.28-.11-4.87,0-.6,0-1.04-.33-1.59-.44-.27-.05-.38-.38-.33-.6.22-1.86-.11-3.72-.05-5.64.05-1.2-.11-2.46-.22-3.72-.05-.6.11-1.26.11-1.92-.22-3.45-.05-6.9-.22-10.3-.11-1.53-.16-3.01-.11-4.54.05-1.48.11-3.01,0-4.54-.11-1.09.11-2.24.16-3.34,0-.16,0-.38.27-.27.16.11.16-.05.16-.11,0-.11,0-.16-.16-.22-.49-.11-.49-.27-.16-.66.33-.38.38-.93.33-1.53M81.07,187.86c-.11-1.53-.27-3.23-.27-4.87,0-1.75-.16-3.45-.33-5.2-.11-1.1,0-2.14.22-3.23.05-.16.05-.44.05-.6-.22-3.07.27-6.08.16-9.15-.05-1.97-.11-4-.27-5.97-.11-1.09,0-2.13.22-3.17.16-1.2.16-2.52-.05-3.72-.16-1.48-.22-2.96.05-4.43.11-.55.49-.77.82-.77.71.05,1.26-.27,1.92-.49.66-.16,1.37.05,2.03-.05.38-.11,1.2,0,2.08-.05.88-.05,1.81,0,2.74.11.22.05.55.22.6.6.38,1.81.71,3.61.38,5.47-.11.66-.16,1.37-.05,2.02.11.82.05,1.7-.11,2.57-.33,1.75,0,3.45.22,5.2.27,2.41.33,4.76.11,7.17-.11,1.75,0,3.56-.11,5.31-.05,1.37-.16,2.74-.22,4.05-.05,1.26.55,1.92,1.75,1.86,1.81-.05,3.56.11,5.31-.16.44-.11.82.05,1.26.11,1.26.05,2.52-.05,3.78-.16.82-.11,1.59,0,2.35.38.27.22.66.27,1.04.11.33-.16.77.11.82.38.11.82.44,1.64.6,2.46.22,1.31.16,2.02-.16,3.34-.27,1.04-.27,2.08-.6,3.12-.05.33-.11.49-.49.44-.99-.11-2.03.11-3.01.27-1.31.27-2.68.22-4,0-1.04-.16-2.08-.11-3.12-.05-2.46.11-4.93-.33-7.34-.33-1.64.05-3.28,0-4.93,0-.66.05-1.2-.05-1.81-.27-.16-.11-.38-.16-.49-.22-.33-.16-.77.16-.99-.22s-.22-.93-.22-1.37c0-.16,0-.27.05-.49M59.62,172.69h3.56c.22,0,.38-.05.33-.33-.11-.66-.05-1.42-.27-2.02-.6-1.86-.82-3.78-.93-5.75-.05-.44-.05-.93-.38-1.48-.82,3.28-.99,6.51-2.3,9.58M70.08,163.06c.05-.11.11-.16.11-.27.05-.11-.05-.16-.16-.11-.05,0-.05.11-.05.22,0,.05.05.11.11.16M69.92,162.51c.16-.49,0-.71-.22-.99l.22.99ZM52.48,156.1c.22-.22.22-.33.11-.49-.16.11-.11.27-.11.49M52.81,154.68c.16-.16.33-.27.16-.49-.11.11-.22.22-.16.49M73.42,190.49c-.16-.6-.38-.6-.71-.27-.27.33-.55.77-1.09.33-.05-.05-.55.05-.82.11-.66.16-1.37.44-2.02.33-.71-.11-1.42-.33-2.13-.55-.22-.05-.22-.27-.27-.49-.82-2.52-.88-5.14-1.37-7.72-.05-.33-.11-.38-.38-.44-1.59-.05-3.17-.16-4.76-.27-.66-.05-1.37-.16-2.08-.27-.27,0-.44.05-.49.44-.44,1.7-.82,3.34-1.48,4.98-.33.82-.33,1.81-.71,2.68-.27.6-.88.82-1.53.93-.77.11-1.53-.27-2.24-.11-.6.16-1.09.22-1.64.05-.71-.22-1.26.38-1.92.27s-1.26.11-1.86.11c-.49-.05-.93-1.09-.82-1.53.16-.88.38-1.7.6-2.57.11-.44.6-.71.71-1.2.27-1.04.6-2.02.82-3.01.05-.38-.22-.88,0-1.26.88-1.48,1.04-3.17,1.75-4.71.22-.44.6-.99.16-1.64-.11-.11.05-.55.16-.82.6-1.09.93-2.3,1.2-3.45.16-.55,0-1.2.22-1.75.44-1.04.44-2.13.71-3.23.27-1.09.66-2.19.82-3.28.27-1.53.71-3.01,1.15-4.49.05-.16-.05-.44.33-.38.22.05.27-.16-.05-.49-.11-.05-.05-.16,0-.22.05-.38.11-.77.22-1.15,0-.16,0-.49.33-.16.11.11.16-.22.11-.27-.6-.6-.05-1.2.11-1.64.93-1.75,1.53-3.67,2.3-5.47.22-.44.11-.99.55-1.37.16-.16.38-.44.6-.44.88-.05,1.75-.22,2.68.05.22.05.44.05.66-.05.44-.27.88.22,1.42.05.49-.16,1.09-.22,1.7-.11.44.11.88.44,1.42.22.16-.05.55.22.66.6.22.6.49,1.2,1.04,1.59.44.33.27.82.49,1.2.77,1.53,1.09,3.23,1.64,4.87.66,1.97.93,3.94,1.26,5.97.38,1.97.88,3.94,1.26,5.97.11.6,0,1.31.27,1.86.38.77.49,1.53.27,2.35-.11.44.33.44.44.77.49,2.08.49,4.16,1.09,6.24.44,1.26.55,2.68.82,4,.27,1.31.6,2.57.77,3.89.11,1.2.49,2.41.27,3.61-.27,1.26-.93,1.64-2.02.99-.55-.33-.55-.05-.6.38M24.63,178.44c-2.02,3.34-1.92,6.9-3.89,10.29-.22-.11-.38.6-.49.44-.38.49-.49,0-.77.55-.11.33-.38.44-.71.6-.77.33-3.45.49-4.32.66-.55.05-1.15.11-1.75-.22-.33-.16-.77-.33-1.26-.11-.44.16-.93.05-1.31-.38-.88-.88-1.31-1.92-1.53-3.06-.33-1.64-.82-3.29-1.04-4.93-.22-2.03-.66-4-1.15-5.91-.33-1.53-.77-3.01-1.15-4.54-.55-2.57-1.09-5.15-1.37-7.83-.11-1.2.05-.71-.16-1.92-.05-1.92-.99-3.67-1.26-5.59,0-.16-.05-.33-.05-.49.27-1.2.11-2.3-.11-3.39-.33-1.48-.16-3.01-.33-4.54-.05-.55.49-1.04,1.2-1.1,1.15-.05,2.24-.33,3.34-.6.88-.16,2.52-.33,3.45-.27,1.92,0,2.63.66,3.07,1.59.66,1.59.55,3.23.88,4.82.16.93.27,1.81.33,2.68.44.99.49,2.02.71,3.06.16.88.33,1.81.22,2.74.6,2.24.55,2.79.6,5.2.05,1.42.16,1.92.22,3.34.11.49,0,.16.16.49.27,0,.05.27.33-.16.55-1.15.27-.38.66-1.59.38-1.15.71-2.3,1.09-3.45.11-.33.22-.66.55-.82.33-.22.27-.66.33-.93.16-.6.49-.99.77-1.53.27-.44.44-.88.55-1.37.16-.71.33-.77,1.09-.77.33-.05.55-.33.99-.33,1.86-.11,3.12-.16,4.93,0,.33.05.49.38.88.38,1.48,0,1.53,0,1.86,1.53.16.6.77,2.3.99,2.9.44,1.7.55,3.89,1.09,5.64.16-.49.33-1.48.38-1.97,0-1.2.38-2.41.77-3.23.6-1.26.77-2.57,1.04-3.94,0-.22.05-.44.16-.6.99-1.97.55-3.61,1.26-5.7.44-1.26.33-2.57.99-3.72.49-.77.77-1.53,1.04-2.35.33-1.2,1.97-1.64,3.12-1.59.82,0,1.64.11,2.46-.11.33-.05.33.33.6.27.6-.05,1.15.11,1.75.11.49-.05.88.16,1.26.55.22.22.55.27.6.66.11.99.82,1.92.6,2.96-.38.93-.44,1.86-.88,2.74-.82,1.64-1.09,3.39-1.37,4.49-.05.16-.05.33-.16.49-.82,1.53-.66,3.23-.77,4.87-.22.93-.22,1.97-.55,2.85-.27.44-.27.99-.38,1.53-.27,1.04-.77,2.02-1.15,3.01-.27.88-.44,1.81-.66,2.68-.33,1.7-.93,3.34-1.48,4.93-.33,1.15-.44,2.3-.55,3.45-.11.6-.38,1.15-.77,1.59-.55.6-.82,1.37-1.04,2.13-.22.99-.66,1.92-.99,2.9-.33.93-1.09,1.42-2.08,1.42h-1.15c-.44,0-.93,0-1.26.38-.22.22-.55.22-.82.11-.77-.27-1.48-.44-2.3-.27-.71.05-1.42-.27-2.03-.6-.33-.16-.27-.6-.33-.93-.16-1.04-.66-1.97-1.04-2.96-.49-1.2-1.04-2.41-1.42-3.61-.38-1.15-.6-2.35-.49-3.61"/>
      <path class="cls-3" d="M313.34,75.03l15.85-13.11-1.88-2.27-5.59,4.62-.04-.04c.16-.56.2-1.1.11-1.61-.09-.51-.32-.99-.68-1.44-.47-.56-.91-.91-1.34-1.03-.87-.3-1.72-.19-2.53.33-.42.28-1.04.75-1.86,1.42l-4.3,3.55c-.62.52-1.09.96-1.42,1.32-.32.37-.55.72-.69,1.06-.41.96-.22,1.92.57,2.87.23.28.47.5.7.66s.47.27.7.35.49.12.74.14.52.03.81.05l-1.03.85,1.88,2.27h0ZM317.42,64.05c.36-.29.73-.47,1.13-.54.4-.06.77.12,1.13.55.27.33.38.69.33,1.1-.05.4-.26.75-.61,1.05l-4.39,3.63c-.42.34-.84.52-1.27.53-.43,0-.79-.16-1.07-.5-.32-.38-.41-.78-.28-1.2.14-.41.43-.81.89-1.19l4.14-3.42h0ZM306.78,61.4c-.64.59-1.08,1.14-1.33,1.64-.25.51-.35,1-.3,1.48.03.49.2.97.49,1.44.29.47.66.95,1.12,1.44l2.04-1.88c-.34-.45-.5-.82-.49-1.1.01-.29.22-.62.63-1l12.07-11.16-2-2.16-12.22,11.3h-.01ZM303.42,57.4c-.42.42-.84.66-1.27.69-.43.04-.82-.12-1.18-.47-.34-.34-.49-.73-.44-1.16.05-.44.27-.86.66-1.25.55-.56,1.1-.79,1.63-.68.53.1,1.03.38,1.48.83.15.15.32.36.52.63l-1.4,1.42h0ZM302.49,62.53l7.16-7.26c.54-.55.93-1.11,1.17-1.68.24-.57.36-1.13.36-1.68-.02-.56-.15-1.09-.4-1.61-.25-.51-.59-.99-1.03-1.42-.48-.47-.99-.82-1.53-1.04s-1.08-.33-1.63-.33c-1.14,0-2.2.45-3.18,1.33l2.03,2.01c.41-.27.81-.39,1.21-.34.4.04.74.2,1.01.47.4.39.56.78.48,1.16s-.29.75-.65,1.11l-1.07,1.09c-.1-.12-.19-.23-.29-.33-.1-.09-.17-.18-.23-.26-.05-.08-.12-.16-.21-.24-.08-.08-.16-.16-.23-.23-.66-.65-1.27-1.11-1.84-1.39-.57-.27-1.12-.39-1.65-.35-.56.05-1.11.24-1.64.59-.53.35-1.09.82-1.68,1.41-.57.58-.96,1.12-1.18,1.62-.21.51-.3.97-.25,1.39.03.44.13.82.31,1.14.18.33.39.61.64.86.51.5,1,.79,1.49.86.48.07,1.05.05,1.7-.06l.04.04-1.05,1.07,2.1,2.07h.04ZM302.34,42.15l-7.07,5.99-.05-.04,4.48-8.07-1.8-1.45-6.98,6.06-.05-.03,4.3-8.22-2.43-1.95-6.47,13.59,2.03,1.63,6.7-5.77.05.04-4.18,7.79,2.03,1.63,11.87-9.25-2.43-1.95h0ZM282.96,45.55l1.57-2.29-3.94-2.69,9.32-5.18,1.32-1.93-6.39-4.37-1.47,2.15,3.63,2.48-9.41,5.32-1.32,1.93,6.7,4.58h-.01ZM272.33,38.67l4.28-7.57c.29-.52.62-.91.99-1.16.37-.26.75-.42,1.14-.49.37-.08.74-.07,1.1.01.36.08.68.2.95.35.27.15.5.35.69.59l1.54-2.72c-.74-.42-1.43-.64-2.09-.65-.65-.02-1.38.06-2.16.24l.77-1.36-2.57-1.45-7.22,12.74,2.57,1.45v.02ZM266.99,30.87c-.26.54-.58.89-.98,1.07-.39.17-.81.15-1.27-.06-.44-.21-.7-.53-.79-.96-.09-.43-.02-.9.22-1.4.34-.71.78-1.11,1.32-1.18.54-.08,1.09.03,1.67.3.19.09.42.23.69.43l-.86,1.8h0ZM267.78,36.02l4.41-9.19c.33-.69.52-1.35.56-1.97.04-.62-.03-1.19-.21-1.7-.2-.52-.5-.99-.9-1.39-.4-.41-.88-.75-1.44-1.01-.61-.29-1.2-.45-1.79-.49-.58-.03-1.13.04-1.64.22-1.08.38-1.94,1.14-2.57,2.29l2.58,1.24c.29-.39.64-.63,1.03-.72.39-.09.77-.05,1.11.12.5.24.78.55.83.94.05.39-.03.81-.25,1.26l-.66,1.38c-.13-.08-.26-.16-.38-.21s-.22-.12-.3-.18-.17-.11-.27-.16c-.1-.05-.2-.1-.29-.14-.83-.4-1.56-.64-2.19-.71-.63-.08-1.18,0-1.67.21-.51.23-.97.59-1.36,1.09-.39.51-.77,1.13-1.13,1.88-.35.73-.54,1.37-.58,1.92-.04.55.03,1.01.21,1.4.17.4.39.73.67.98s.57.45.88.6c.64.31,1.2.42,1.68.33.48-.09,1.01-.29,1.59-.61l.05.02-.65,1.35,2.66,1.27.02-.02ZM261.1,16.81l-4.78,7.94-.05-.02,1.67-9.08-2.17-.79-4.68,7.98-.05-.02,1.45-9.16-2.93-1.07-1.78,14.95,2.44.89,4.51-7.61.05.02-1.47,8.72,2.44.89,8.29-12.56-2.93-1.07h-.01ZM237.34,24.67l2.44-9.54c.16-.63.39-1.09.68-1.38s.71-.36,1.25-.22c.45.12.75.35.92.71s.18.8.05,1.32l-2.51,9.82,2.85.73,2.78-10.89c.16-.63.21-1.19.16-1.67-.06-.48-.19-.9-.4-1.25-.21-.35-.47-.63-.8-.85-.32-.21-.66-.36-1.02-.45-.65-.17-1.23-.16-1.72.02s-.94.46-1.36.83h-.06l1.82-7.12-2.86-.73-5.09,19.93,2.85.73h.02ZM228.6,12.66c.08-.55.27-.95.57-1.19.3-.24.67-.33,1.11-.26s.77.25.98.57c.22.31.28.77.19,1.35l2.92.43c.2-1.37-.02-2.54-.66-3.51-.32-.46-.74-.84-1.25-1.15-.51-.31-1.1-.51-1.76-.61-.91-.13-1.72-.06-2.41.23s-1.26.72-1.69,1.3c-.27.35-.47.77-.62,1.25-.15.49-.27,1.02-.36,1.61l-.7,4.78c-.09.59-.13,1.14-.12,1.65,0,.51.08.96.23,1.38.25.68.67,1.26,1.25,1.73.58.48,1.33.78,2.25.91.66.1,1.28.07,1.85-.08s1.07-.4,1.51-.74c.9-.67,1.44-1.64,1.62-2.91l-2.91-.43c-.09.32-.24.63-.47.92-.23.3-.62.4-1.17.32-.44-.06-.77-.24-.99-.52-.22-.29-.3-.66-.23-1.12l.87-5.92h0ZM222.92,5.88c.08-1.19-.29-2.28-1.12-3.26-.41-.47-.91-.86-1.5-1.17-.59-.31-1.25-.49-1.98-.54-.86-.06-1.62.04-2.26.3s-1.18.62-1.62,1.09c-.46.47-.81,1.05-1.07,1.72-.26.68-.41,1.4-.46,2.17-.09,1.29.06,2.37.44,3.26.38.88,1.18,1.63,2.41,2.23l2.05,1c.36.18.64.34.85.49s.38.33.5.55c.1.22.16.5.17.85.02.35,0,.79-.03,1.33-.03.46-.07.88-.13,1.25-.05.37-.16.69-.34.95-.17.26-.4.45-.69.57-.29.13-.68.17-1.18.14-.75-.05-1.27-.3-1.56-.76-.29-.45-.42-.95-.38-1.48l.06-.92-2.94-.19-.07,1.09c-.05.69.04,1.34.26,1.94s.53,1.14.95,1.61c.41.47.92.85,1.52,1.14.6.29,1.25.46,1.96.51.94.06,1.75-.04,2.42-.3.67-.26,1.23-.65,1.67-1.16.42-.49.74-1.11.96-1.83.22-.73.36-1.53.42-2.39.05-.75.05-1.42.02-2.01-.04-.59-.15-1.12-.33-1.6-.2-.46-.49-.87-.88-1.23-.38-.36-.89-.69-1.53-.98l-2.19-1.04c-.37-.18-.67-.35-.88-.52-.21-.17-.37-.36-.47-.58-.1-.22-.16-.46-.17-.73s0-.61.02-1.01c.02-.35.08-.68.15-.99.08-.31.2-.59.37-.83.17-.22.38-.4.64-.53.26-.14.59-.19.99-.17.75.05,1.27.33,1.55.84.29.51.4,1.1.36,1.78l-.04.66,2.94.19.1-1.44h.04ZM192.37,21.85l-.66-9.83c-.04-.65.03-1.16.22-1.52.19-.36.56-.56,1.12-.6.46-.03.83.1,1.1.39s.42.7.46,1.25l.68,10.12,2.94-.2-.66-9.83c-.04-.65.03-1.16.22-1.52.19-.36.56-.56,1.12-.6.46-.03.83.1,1.1.39s.42.7.46,1.25l.68,10.12,2.94-.2-.75-11.21c-.04-.65-.18-1.2-.4-1.64-.22-.44-.5-.79-.82-1.06-.33-.27-.69-.45-1.08-.55-.39-.1-.77-.14-1.14-.11-.79.05-1.4.24-1.82.56-.42.32-.8.69-1.14,1.12-.29-.35-.66-.66-1.1-.94s-.98-.4-1.62-.36c-.67.05-1.22.23-1.63.56s-.76.73-1.03,1.21h-.06l-.1-1.41-2.94.2.98,14.61,2.94-.2h0ZM183.74,5.24l-.51-2.9-2.9.51.51,2.9,2.9-.51ZM186.8,22.6l-2.54-14.42-2.9.51,2.54,14.42,2.9-.51ZM170.36,26.24l-2.71-9.47c-.18-.63-.22-1.14-.11-1.53.11-.39.43-.66.97-.82.44-.13.83-.08,1.16.15s.56.6.71,1.12l2.79,9.75,2.83-.81-3.1-10.8c-.18-.63-.42-1.14-.71-1.53-.29-.39-.62-.68-.97-.88-.36-.2-.73-.31-1.12-.33-.38-.02-.75.02-1.11.12-.65.18-1.14.48-1.47.89-.34.41-.59.88-.75,1.4h-.05l-.39-1.35-2.83.81,4.04,14.08,2.83-.81h0ZM156.3,20.28c-.19-.53-.22-.96-.07-1.31s.43-.61.84-.76c.42-.15.79-.14,1.14.03.34.17.61.52.8,1.04l.58,1.57-2.71,1-.58-1.57h0ZM161.75,18.2c-.46-1.23-1.2-2.11-2.22-2.66-.5-.25-1.05-.38-1.65-.41-.59-.03-1.21.08-1.84.31-.87.32-1.53.77-2,1.36s-.76,1.24-.86,1.95c-.06.44-.05.9.05,1.4s.26,1.03.47,1.58l1.68,4.52c.21.56.44,1.06.68,1.51.25.44.53.81.87,1.09.55.47,1.19.78,1.93.92.74.14,1.54.04,2.41-.28.63-.23,1.16-.55,1.59-.96.42-.4.75-.86.97-1.38.47-1.01.47-2.13.03-3.34l-2.76,1.03c.08.32.09.66.03,1.03s-.35.65-.87.85c-.42.15-.79.16-1.12.01-.33-.14-.57-.43-.74-.87l-.69-1.87,5.47-2.03-1.4-3.79-.03.03ZM145.34,25.56c-.26-.54-.36-1.02-.32-1.45.05-.43.3-.75.75-.97.4-.19.79-.2,1.18-.01.39.18.7.52.94,1.01l2.48,5.12c.2.42.24.82.12,1.21-.12.39-.37.68-.75.86-.5.24-.92.25-1.25.03-.33-.23-.6-.54-.8-.96l-2.34-4.84h0ZM147.74,37.27c.46.74.95,1.29,1.46,1.65.51.36,1.02.6,1.55.71.51.14,1.02.16,1.52.08.49-.08.94-.22,1.34-.41.69-.34,1.24-.74,1.62-1.22.39-.48.66-.99.8-1.53.15-.52.19-1.05.12-1.58-.08-.53-.22-1.02-.44-1.47l-7.17-14.79-2.65,1.28.58,1.2c-.27-.1-.51-.2-.75-.29s-.48-.15-.73-.18-.51-.02-.77.02c-.27.05-.57.15-.9.31-.66.32-1.1.67-1.32,1.06-.5.78-.59,1.62-.28,2.54.17.48.48,1.19.94,2.14l2.43,5.02c.35.73.67,1.29.95,1.69.28.4.57.71.87.93.84.62,1.81.66,2.92.13.53-.26.95-.61,1.25-1.04.29-.43.48-.94.57-1.51l.05-.03,1.26,2.6c.2.42.27.81.21,1.17s-.31.64-.74.86c-.45.22-.86.25-1.23.08-.37-.16-.64-.4-.8-.7l-2.65,1.29h-.01ZM139.7,40.09l-5.07-8.45c-.34-.56-.51-1.05-.5-1.45,0-.41.25-.75.73-1.04.4-.24.78-.29,1.15-.16.38.14.7.44.98.9l5.22,8.69,2.52-1.52-5.78-9.63c-.34-.56-.7-.99-1.08-1.29-.38-.3-.77-.5-1.17-.6s-.78-.11-1.16-.03-.73.22-1.04.4c-.58.35-.98.76-1.19,1.24-.22.48-.34,1-.37,1.55l-.05.03-.73-1.21-2.53,1.52,7.54,12.56,2.53-1.52h0ZM125.12,28.62l-1.67-2.43-2.43,1.67,1.67,2.43,2.43-1.67ZM135.11,43.14l-8.3-12.06-2.43,1.67,8.3,12.07,2.43-1.67h0ZM126,49.98l-6.19-7.66c-.41-.51-.64-.96-.7-1.37-.05-.4.14-.78.57-1.13.36-.29.73-.4,1.12-.31.39.08.75.33,1.09.75l6.37,7.89,2.29-1.85-7.06-8.74c-.41-.51-.83-.88-1.25-1.13-.42-.24-.83-.38-1.24-.43-.41-.04-.79,0-1.16.13-.36.13-.69.31-.97.54-.53.42-.86.89-1.01,1.39s-.2,1.03-.15,1.59l-.04.03-.89-1.1-2.29,1.85,9.2,11.4,2.29-1.85h.02ZM110.05,40.43l-1.97-2.19-2.19,1.97,1.97,2.19,2.19-1.97ZM121.82,53.54l-9.78-10.9-2.19,1.97,9.78,10.9,2.19-1.97ZM112.76,56.12c.42.42.66.84.7,1.27s-.12.82-.47,1.18c-.34.34-.73.49-1.16.44-.44-.05-.85-.27-1.25-.66-.57-.55-.79-1.09-.69-1.63.1-.53.38-1.02.82-1.48.15-.15.36-.32.63-.52l1.42,1.4h0ZM117.9,57.03l-7.29-7.14c-.55-.54-1.11-.93-1.69-1.17-.57-.24-1.13-.36-1.68-.35-.56.02-1.09.16-1.61.4-.51.25-.99.6-1.42,1.04-.47.48-.82.99-1.04,1.53s-.33,1.08-.32,1.63c.01,1.14.46,2.2,1.34,3.17l2-2.04c-.28-.4-.39-.81-.35-1.21.04-.4.2-.74.47-1.02.39-.4.78-.56,1.16-.48.38.08.75.29,1.11.64l1.09,1.07c-.12.1-.23.19-.32.29-.09.1-.18.17-.26.23s-.16.12-.24.21c-.08.08-.16.16-.22.23-.65.66-1.11,1.27-1.38,1.84s-.39,1.12-.34,1.65c.05.56.25,1.1.6,1.64.35.53.83,1.09,1.42,1.67.58.57,1.12.96,1.62,1.17.51.21.97.29,1.39.25.44-.03.82-.14,1.14-.32s.61-.4.85-.64c.5-.51.78-1.01.85-1.49.07-.49.05-1.05-.07-1.7l.04-.04,1.07,1.05,2.06-2.1h.02ZM108.58,66.87l-6.55-5.72c-.45-.39-.76-.79-.94-1.21-.18-.41-.26-.81-.25-1.21,0-.38.08-.74.23-1.08.16-.34.33-.62.54-.86.2-.23.44-.42.72-.56l-2.35-2.05c-.56.64-.91,1.28-1.06,1.92-.15.64-.21,1.36-.2,2.16l-1.17-1.03-1.94,2.22,11.03,9.63,1.94-2.22h0ZM104.82,71.28l-13.99-11,2.11-2.68-2.18-1.72-6.03,7.68,2.18,1.71,2.11-2.68,13.99,11,1.82-2.32h-.01Z"/>
      <path class="cls-3" d="M192.19,106.32c.05.01.11.02.16.03.83.79.8,1.77.97,2.82,1.14,1.57,1.72-4.21,2.72-4.77,1.92,3.42-.6,6.87-.21,10.34.81-.69.8-2.24,1.12-3.11.03,1.06-.16,2.46.27,3.57.07,0,.13,0,.2.01,1.15-2.61,1.46-5.58,2.29-8.32.03,0,.07.02.1.02-.08,1.46-.48,2.97-.21,4.41.05,0,.1.02.14.03,1.07-1.11.29-3.51,2-4.02v3.05c.05,0,.11,0,.16.01.48-1.31.58-2.72.94-4.16.24.63.29,1.26.61,1.72.46.03.26.74.47,1.06h.18c1.09-1.66.99-6.37,2.35-7.18,1.04,11.04,1.18,22.13-.48,33.12-.11.98-.25.7.63,1.11.79.2.73,1.39,1.7,1.32,1.72-.18,3.85-1.45,3.54-3.48-.6-9.5-.97-18.95-1.8-28.45.19.21.3.34.51.56.33-1.57-.13-3.04.14-4.51,1.39,2.17,1.57,5,2.57,7.39.05-.01.11-.03.17-.04-.18-1.51-.37-3.02-.55-4.5,3.45,2.91,2.22,5.44,3.71,8.82.64-1.92-.23-4.18-.32-6.2.9,1.74,3.54,12.47,3.57,4.8.5,1.05.46,2.57,1.54,3.07.04-3.74-2.04-7.41-3.17-10.99,1.89-.94.42-4.69-.93-5.71,2.94,1.21,4.34,1.84,4.83,5.18.12.34.38.64.79.55,1.01-.96-.28-2.9-.38-4.14l.13-.07c1.08,1.34,5.16,8.38,5.33,3.15.2.62,2.52,3.19,2.37,1.33-1.12-2.48-3.12-4.39-4.69-6.59.62.04,1.03-.17,1.33-.75,1.26,5.41,3.1,4.95,1.47-.31,1.22,1.18,5.29,8.4,5.4,3.13.31.58,2.24,2.98,2.47,1.54-.75-2.02-2.33-3.55-3.41-5.41,3.05-.09-6.18-6.34-7.14-6.57-.83-.23-1.64-.53-2.54-.37-.53.1-.7-.09-.79-.64-.41-2.94-2.01-.49-1.76-4.4,1.25,0,1.59,1.89,2.62,1.81.64-.66-.36-1.67-.61-2.39,1.03.68,2.03,1.33,3.08,2.02v-1.5c1.85,1.73,3.76,3.08,6.17,3.87-1.99-2.8-5.27-4.52-8.16-6.22-2.57-.76-5.6-.97-6.56-3.95,1.56.54,3.1,1.09,4.65,1.63-3.3-3.08-10.65-4.59-9.75-10.26.27.88.08,1.88.73,2.68.3-.91.59-1.78.88-2.65-.34,1.33.7,2.15,1.04,3.41.55-1.13.52-2.09.28-3.3.04-.02.09-.04.13-.05,1.42,1.4.98,5.86,3.03,6.16.04-.59.09-1.2.14-1.88.29.5.34,1.06.92,1.43.15-1.18-.32-2.15-.5-3.21,1.64.68,1.56,2.84,2.81,3.91.04-.03.08-.05.12-.08.04-1.03-.38-1.97-.6-3.03,1.11.86,2.36,1.39,2.93,2.73.38.6.75,1.48,1.53,1.61.12-.77-.53-1.45-.77-2.17.05-.03.09-.07.14-.11,1.13.92,1.95,2.85,3.59,2.74,1.29-.36.09-1.25-.55-1.61-3.24-2.57-6.09-5.42-8.32-8.92-1.35-2.11-4.16-1.48-3.9-4.62.79.71,1.48,1.33,2.2,1.98.32-.27.62-.53.96-.81.53,1.16.82,2.44,2.21,2.87v-1.84s.08-.04.12-.06c.84,1.05,1.35,2.42,2.87,2.63-.55-1.11-1.07-2.14-1.59-3.18.95.86,2,2.91,3.51,2.04-.53-3.06-3.21-4.08-5.73-5.29-3.27-1.42-5.08-4.69-7.58-7.08-1.16-1.16-.71-2.63-1.1-4.18,3.78,2,1.04,4.76,6.31,3.18-.53-.89-1.02-1.71-1.53-2.57,1.52.29,2.76,1.29,4.32,1.21-1.47-1.69-3.52-2.64-5.19-4.05-2.03-2.34-3.78-4.92-5.68-7.36-1.19-2.74-1.42-5.85-2.35-8.69-1.57,5.08-1.15,11.1-6.26,14.29-.97.76-2.26,1.12-3.28,1.79-1.38,1-2.24,3-4.21,2.87-2.34,1.34,2.26.49,2.97.18-.58.83-1.1,1.55-1.66,2.35,1.72-.34,2.53-1.77,3.8-2.71-.29,1.06-.55,2.04-.83,3.07,1.99-.17,2.2-2.43,3.27-3.71,1.14,3.03.62,2.51,3.79,2.1-.75,2.44-6.55,6.09-9.07,6.96-2.63.43-4.3,2.11-5.85,4.15-.23.25-.18.53,0,.71.91.51,1.55-.72,2.23-1.23-.39.86-1.07,1.48-1.1,2.36,1.76-.12,2.26-2.28,4.12-2.47-.47,1.11-.89,2.1-1.34,3.15,1.85-.31,2.24-2.29,3.61-3.24,1.08.68-.28,1.8-.46,2.7,1.2-1.18,2.33-1.97,4.07-1.93.02.05.03.09.05.14-.67.95-1.56,1.78-1.53,2.92-1.31,1.33-2.99,1.57-4.64,2.22-1.42.44-2.71,1.57-4.15,1.78-1.39-.81-5.51.56-2.33,1.6-1.53,1.09-3.71,2.65-3.67,4.65,1.24.44,1.74-1.26,2.62-1.98-.02.39.07.6.13.95,1.2-.26,1.74-1.57,2.59-2.35.02.01.04.03.07.05-.21,1.04-.42,2.09-.65,3.22,1.41-.72,1.46-2.33,2.19-3.57.06.01.11.03.17.04v3.06s.09.01.14.02c.36-.98.72-1.96,1.09-2.99.28,1.99,1.53,2.34,1.57.09.07-.68.9-.88,1.38-1.36.41.83.8,1.62,1.21,2.44.38-1.01,1.83-4.02,2.89-2.37.12.22,0,.44-.26.56-1.15.52-1.79,1.47-2.22,2.6-.09.42.06.78-.49.87-4.05,1.46-8.49,2.81-11.66,5.84-.51.88-5.21,5.32-3.16,5.5.61-.16.93-.64,1.18-1.16.29-.79,1.21-1.14,1.81-1.71.02.02.04.03.06.05-.35,1.11-.7,2.22-1.06,3.32.04.02.07.04.11.06,1.6-1.36,1.66-3.77,3.57-4.69-.05,1.31-.11,2.54-.16,3.86,2.23-1.77.89-4.41,4.05-4.75.12,2.32-2.26,2.76-3.19,4.51-1.2,1-3.04,1.51-3.27,3.36-.36.4-1.18.26-1.64.51-.74.39-2.54,2.24-.96,2.44-1.55,2.25-3.28,4.56-4.17,7.15.43,1.45,2.12-1.32,2.38-1.96-.04.74-.18,1.53.59,1.89,2.37.05,2.82-3.97,4.49-5.33,0,1.27-.89,3.09-.07,4.11.62-.01.88-.65.96-1.18.03-3.22,1.92-3.52,4.2-5.13-.15,1.06-.52,2.07-.37,3.16,7.57-13.6-.26,6.12,8.02-7.44,1.91.33,3.93,1.2,1.14,2.5-1.07.38-.41,1.73-1.31,2.21-.28.15-.38.35-.47.62-.28,1.22-1.6,1.66-2.4,2.49-1.11,1-2.86,1.12-3.19,2.82-1,2.02-4.08,1.33-5.19,3.47-1.31,1.83-2.72,3.58-4.49,5.01-.69.32-2.19,3.78-.86,3.25,1.46-.88,2.28-2.31,3.15-3.71.4-.49,1.04-.06,1.61-.04-1.12,1.61-2.71,3-3.25,4.93.04.03.08.07.12.1,2.74-1.11,3.54-4.45,6.11-5.57-.42,1.61-1.61,3.17-1.34,4.84.95-.32,1.23-1.64,1.61-2.41-.05.59-.16,4.02.94,2.07.31-1.09.34-2.27.85-3.29"/>
    </g>
  </g>
</svg>