<?xml version="1.0" encoding="UTF-8"?>
<svg id="Ebene_1" data-name="Ebene 1" xmlns="http://www.w3.org/2000/svg" viewBox="0 0 400 46.8">
  <defs>
    <style>
      .cls-1 {
        fill: #bf4c0c;
        stroke-width: 0px;
      }
    </style>
  </defs>
  <path class="cls-1" d="M380.83,1.66c-.05.05-.05.11-.11.11-.05-.05-.11-.05-.11-.16,0,0,0-.05.05-.05.05.05.11.11.16.11M388.69,12.93c0-.88,0-1.64-.05-2.41,0-.16,0-.22.11-.38.22-.22.11-.6.11-.88-.05-.38.05-.77,0-1.2-.11-1.31,0-2.63.11-3.94.05-.82.27-1.64.49-2.46.11-.38.49-.38.82-.38.16,0,.27,0,.33-.22.05-.11.16-.16.27-.16.27-.05.6-.49.93.05.11.16.49.05.71.33h.05c.33-.55.82.16,1.15-.16,0,0,.11,0,.11.05.16.33.33.16.49.05.27-.11.55-.22.77.11.05,0,.16.05.22,0,.33-.22.71.27,1.04.05.22.33.66,0,.82.38,0,.05.05.05.11.05.55-.05.71.05.82.49.27,1.04.49,2.08.22,3.12-.11.6-.05,1.2.05,1.81.05.33-.05.66-.05.99-.05,1.31-.16,2.63-.05,3.94.05,1.81-.38,3.61-.38,5.42,0,1.37-.27,2.68-.27,4.1-.05,1.15-.16,2.35-.22,3.5-.05,1.48-.05,2.96,0,4.43.11,1.75-.05,3.45,0,5.2.05,1.42.11,2.9.05,4.32,0,1.53-.11,3.07-.55,4.6l-.16.44c-.22.27-.16.55-.22.82-.16.38-.49.49-.82.55-.38,0-.71-.05-1.04.22-.38.27-.88.16-1.31.22-.93.16-1.92.11-2.85.27-.33.11-.71-.05-.99-.27-.22-.11-.44-.22-.66-.22-.55.05-.82-.27-1.04-.66-.71-1.2-.99-2.57-1.2-3.94-.16-.88-.44-1.64-.77-2.46-.44-.93-.6-1.97-.82-2.96l-.33-1.15c-.22-.88-.44-1.81-.71-2.68,0-.11-.05-.16-.11-.27-.11.05-.11.11-.11.22-.11,1.2-.22,2.41-.22,3.61,0,.33-.05.71-.05,1.04,0,1.48-.05,2.96-.33,4.38-.16.82-.33,1.59-.44,2.41-.11.77-.16,1.48-.38,2.19-.05.22-.16.38-.22.6-.11-.38-.49-.66-.38-1.09-.27.05-.22.33-.27.49-.33-.16-.66-.49-1.04-.27-.05,0-.05.05-.05.05-.33-.44-.49.16-.66.11-.22-.05-.55.05-.71-.16-.33-.38-.33-.05-.44.16-.05.11-.05.22-.11.38-.11-.16-.05-.27-.05-.38s-.11-.22-.16-.16c-.22.38-.22.05-.27-.05-.05-.11-.16-.16-.33-.11-.11,0-.11.11-.16.22,0,.16.05.33-.11.44-.11-.16-.05-.33,0-.55-.44.27-.66-.16-.99-.22-.27,0-.55-.22-.88-.22-.16,0-.55-.11-.77-.27-.05-.11-.16-.16-.27-.16-.55-.05-.6-.44-.66-.88-.11-.82-.05-1.7-.11-2.57,0-.77.27-1.48.27-2.19s.05-1.42-.11-2.13c-.05-.38.05-.77.11-1.09.11-1.15.05-2.3.33-3.4.22-1.04.11-2.13.05-3.17-.11-1.15-.11-2.24.11-3.34.11-.82.16-1.64,0-2.46-.22-1.31-.22-2.57-.16-3.89.11-.99.16-1.97.27-2.9.11-.49,0-1.04,0-1.53.05-.49.05-1.04.05-1.53,0-.71-.11-1.42-.05-2.13.11-1.15.22-2.35.11-3.5l-.16-2.96c-.05-.66-.11-1.31.11-1.97.16-.6.44-.66.99-.66.55.05,1.09.16,1.53-.16.22-.16.44-.16.71-.11.11.05.33.11.49.05.55-.05,1.04-.11,1.59,0,.22,0,.38-.11.6-.05.22,0,.44,0,.6.16.11.11.22.11.38,0,.33-.16.55.22.88.16.11,0,.27.16.27-.11.05-.05.16,0,.27.05.27.22.49.55.93.38,0,0,.11.05.11.11.22.88.93,1.48,1.31,2.24.66,1.15,1.15,2.35,1.64,3.56.44.99.6,2.08,1.09,3.07.22.49.27.99.66,1.59M354.83,44.69h.77c-.22.16-.49.05-.77,0M353.79,44.58c.22-.11.33-.05.44.11-.16.16-.27,0-.44-.11M362.77,44.03c-.11.05-.11-.05-.11-.11s.05-.11.11-.16c.05.05.11.05.11.05,0,.05-.05.16-.11.22M363.81,43.27c-.05,0-.16,0-.11-.11,0,0,.11-.05.16-.05l.05.05c0,.11-.05.11-.11.11M352.78,15.89v-.22l.05.11c0,.05.05.16,0,.16-.11.11-.05,0-.05-.05M358.12,33.58c-.05.49-.11.93-.11,1.42.05.77-.16,1.48-.49,2.19-.16.44-.44.71-1.04.55-.6-.16-1.26,0-1.81-.55-.33-.27-.38-.55-.38-.99.05-2.08.16-4.11,0-6.19-.22-2.35-.38-4.76-.22-7.12.05-1.04-.16-2.13-.05-3.17.05-.77-.05-1.64.55-2.3.05-.05.11-.16.11-.22-.27-.82.27-1.53.33-2.3,0-.88.05-1.81,0-2.74,0-.33.05-.49.44-.66.49-.16.77-.77,1.48-.66.66.11,1.42.93,1.37,1.64,0,.38-.05.71-.11,1.09v1.09h-.05c0,.71.05,1.42-.05,2.08-.11.82.16,1.59.16,2.41s.05,1.64.16,2.52c.22,1.81,0,3.67.05,5.48,0,1.31.05,2.63.11,3.94.05.88-.33,1.64-.44,2.46M343.63,6.14c-.22.27-.27.49-.22.71l.22-.71ZM362.96,6.14l-.11-.16c.05,0,.05-.05.11-.05,0,.05.05.11.11.22h-.11ZM363.95,6.53c.22-.44-.05-.6-.27-.82-.16-.11-.16-.22,0-.33.11-.05.22,0,.33.05.38.33.66,1.7.38,2.19-.33-.27-.66-.66-.44-1.09M365.49,4.72c0-.11.11-.27.22-.22.16.11.27.27.33.49-.11-.22-.6.16-.55-.27M363.8,4.39c-.05-.05-.11-.11-.05-.16.05,0,.11,0,.11.05.05,0,.05.05.05.11h-.11ZM364.84,4.78c-.16.11.11.38-.16.38-.16,0-.22-.05-.33-.16-.27-.27.16-.11.16-.22v-.16c.11-.16-.33-.27-.05-.38.22-.11.44.11.49.22.11.22.44.38.33.71-.22-.05-.22-.33-.44-.38M364.18,3.96c-.05,0-.11-.05-.11-.11l.11-.11c.05.11.11.11.11.16-.05.05-.11.11-.11.05M364.46,3.74c0-.05.05-.11.05-.11.16.05.22.16.22.27.05.16-.11.11-.16.11-.11-.05-.16-.16-.11-.27M363.85,2.81s.05-.05.11-.05.11.05.16.11c-.11,0-.16.05-.16.05-.05,0-.11-.05-.11-.11M363.25,2.48c-.05-.11,0-.11.05-.11.11,0,.16.05.16.11s-.05.11-.11.11c-.05-.05-.11-.05-.11-.11M350.05,2.04c-.05,0-.05-.05-.05-.11.05-.05.11-.05.16-.05l.05.05c-.05.05-.11.11-.16.11M362.05,1.77c-.05,0-.11-.05-.11-.11s.05-.11.16-.05l.11.11c-.05.05-.11.11-.16.05M358.98,1c-.05,0-.11-.05-.16-.05.16-.16.33-.16.38-.05.05.16-.11.11-.22.11M367.7,20.87c-.05-1.15-.27-2.35-.44-3.56-.16-.99-.16-1.97-.16-2.96,0-.33,0-.77.05-1.2.33.38.11.82.27,1.26.05-.16.11-.27.16-.33.33-.44-.11-.88-.05-1.31.05-1.2-.22-2.41,0-3.56.05-.16,0-.33,0-.55,0-.11-.05-.22-.22-.22-.11-.05-.16-.05-.22.05s0,.27.16.33v.6c-.16-.27,0-.44,0-.6l-.33.22c.05-.33-.16-.6.11-.82q.33-.27,0-.55c.33-.16.38-.38.33-.82-.16-.82-.6-1.53-.93-2.25-.11-.11-.22-.49-.44-.33-.33.22-.33-.05-.33-.16.11-.49-.22-.82-.55-.99-.55-.27-.66-.82-1.04-1.2-.22-.16,0-.6-.38-.71-.22.22.11.44-.05.66-.49-.22-.93-.44-1.37-.6-.27-.05-.33-.27-.49-.44-.49.49-.99,0-1.48-.05-.66-.05-1.31-.05-1.97-.16-.55-.05-1.15-.33-1.75.11-.22.16-.82-.16-1.2.16l-.22-.05c-.05-.55-.44-.22-.66-.27.16.11.33.22.22.49-.27-.11-.44-.27-.82-.05-.33.16-.33-.11-.11-.38-.99,0-1.75.6-2.74.6.11.22.27.05.38.27-.38-.16-.71.11-1.04,0-.33-.05-.38.44-.71.33,0,0-.11.16-.22.05-.22-.38-.66,0-.71.05-.55.55-1.09,1.15-1.64,1.75-.33.38-.33.93-.77,1.26-.27.27-.55.44-.27.82.05.11-.05.22-.16.16-.27,0-.27.22-.38.44-.66,1.59-.6,3.28-.49,4.93.05.27-.27.38-.11.66.49.77.38,1.7.44,2.52.05,1.2-.38,2.35-.44,3.56-.05,1.53-.49,3.07-.33,4.54.16,2.3-.05,4.65.16,6.96.16,1.86.16,3.72.16,5.58,0,1.31.33,2.63.55,3.89.27,1.97,1.53,3.5,2.9,4.82,1.04,1.04,2.52,1.31,3.83,1.81.93.33,1.97.55,2.96.38.88-.16,1.64.05,2.41.22.71.11,1.42.11,2.13.05,1.42,0,2.68-.77,3.72-1.7.55-.44,1.09-.82,1.59-1.26.6-.55,1.15-1.04,1.48-1.75.49-1.2.71-2.52.71-3.78.05-1.09.22-2.19.33-3.29.05-1.04.22-2.02.11-3.06-.05-1.15,0-2.24-.05-3.39-.05-.82.16-1.7.27-2.57.22-1.53-.11-3.06-.16-4.6M314.36,43.16c-.11-1.53-.27-3.23-.27-4.87,0-1.75-.16-3.45-.33-5.2-.11-1.1,0-2.14.22-3.23.05-.16.05-.44.05-.6-.22-3.07.27-6.08.16-9.15-.05-1.97-.11-4-.27-5.97-.11-1.09,0-2.13.22-3.17.16-1.2.16-2.52-.05-3.72-.16-1.48-.22-2.96.05-4.43.11-.55.49-.77.82-.77.71.05,1.26-.27,1.92-.49.66-.16,1.37.05,2.02-.05.38-.11,1.2,0,2.08-.05.88-.05,1.81,0,2.74.11.22.05.55.22.6.6.38,1.81.71,3.61.38,5.47-.11.66-.16,1.37-.05,2.02.11.82.05,1.7-.11,2.57-.33,1.75,0,3.45.22,5.2.27,2.41.33,4.76.11,7.17-.11,1.75,0,3.56-.11,5.31-.05,1.37-.16,2.74-.22,4.05-.05,1.26.55,1.92,1.75,1.86,1.81-.05,3.56.11,5.31-.16.44-.11.82.05,1.26.11,1.26.05,2.52-.05,3.78-.16.82-.11,1.59,0,2.35.38.27.22.66.27,1.04.11.33-.16.77.11.82.38.11.82.44,1.64.6,2.46.22,1.31.16,2.02-.16,3.34-.27,1.04-.27,2.08-.6,3.12-.05.33-.11.49-.49.44-.99-.11-2.02.11-3.01.27-1.31.27-2.68.22-4,0-1.04-.16-2.08-.11-3.12-.05-2.46.11-4.93-.33-7.34-.33-1.64.05-3.28,0-4.93,0-.66.05-1.2-.05-1.81-.27-.16-.11-.38-.16-.49-.22-.33-.16-.77.16-.99-.22-.22-.38-.22-.93-.22-1.37,0-.16,0-.27.05-.49M299.27,42.5c-.11.16-.11.38,0,.55.22-.22.11-.38,0-.55M296.48,40.75c-.05,0-.11-.05-.11-.05-.05.05-.05.11-.05.16,0,0,.11.05.11,0,.05,0,.05-.05.05-.11M296.64,35.27c0,.11-.05.16-.05.22,0,.05,0,.16.11.11.05,0,.11-.11.11-.16s-.05-.11-.16-.16M296.26,34.34c-.27.38-.22.66-.05.99,0-.33.27-.55.05-.99M281.71,28.43c.05-.27.11-.55-.16-.93,0,.44-.05.71.16.93M281.6,26.29c0,.38-.11.6.11.77.05-.22.05-.44-.11-.77M281.65,24.92c-.16.44-.16.71,0,.99.11-.27,0-.55,0-.99M281.87,24.38c-.05-.05-.05-.16-.11-.16-.22-.05-.16.11-.11.16,0,.05.05.11.11.16l.11-.16ZM285.82,22.19c0-.16.22-.22.27-.33-.05-.05-.16-.05-.22-.05-.22,0-.11.16-.11.27,0,.05.05.05.05.11M286.64,21.69c.11.44-.05.71.16.93-.05-.22.16-.49-.16-.93M280.37,20.16c-.05,0-.11-.05-.16-.05s-.11.05-.11.11l.11.11c.05,0,.11-.05.16-.16M282.02,20.33c-.11-.22.05-.38-.27-.55.11.22,0,.33.27.55M286.23,18.25c0-.33.11-.55-.11-.77-.22.27-.27.44.11.77M287.44,18.47c.6-.27.38-.6.05-.93-.11-.05.11-.49-.27-.33-.27.16-.27.49-.11.6.38.11.16.44.33.66M285.3,16.11c0,.11-.05.16-.05.22s0,.16.11.11c.05,0,.11-.11.11-.16s-.05-.11-.16-.16M285.69,15.62c.05.38.05.66.05.93.05-.27.16-.55-.05-.93M284.65,16c.05-.11.05-.22.05-.27,0-.11.05-.33-.16-.22-.16.11-.05.27.11.49M280.54,13.32c-.11-.11-.22-.22-.33-.27,0,.05-.05.11-.05.22.05.05.05.16.16.16.05,0,.11-.05.22-.11M281.13,11.35c-.05-.05-.05-.16-.16-.11-.05,0-.05.11-.05.11,0,.05.05.11.11.16,0-.05.05-.11.11-.16M286.5,10.69c-.27.33-.22.66-.11.99.05-.33.33-.66.11-.99M287.1,9.65c0-.11-.05-.11-.05-.05s0,.05.05.11v-.05ZM282.95,1.6c-.11.05-.16.16-.11.27,0,.05.05.05.11.05.05-.11.11-.22,0-.33M285.8,1.16c-.05-.27-.05-.44.05-.6l.16.11c.22.22,0,.33-.22.49M301.24,43.98c-.11.49-.44.66-.82.82-.05-.27.16-.55-.11-.82-.05.22-.11.38-.22.66-.11-.44-.33-.38-.66-.38-.44.05-.71.16-.77.55-.11-.05-.16-.05-.16-.05-.27-.38-.55-.93-.99-.93-.38,0,.05.66-.27.93-.38-.33-.66-.88-1.31-.77-.22.05-.27-.22-.33-.44-.38-2.46-.11-4.93-.05-7.39.11-2.35.22-4.71.16-7.12,0-.27-.05-.44-.44-.44-1.53,0-3.07.05-4.6-.16-.44-.05-.55.16-.55.6,0,1.2.05,2.41,0,3.61-.11,2.52-.11,5.09-.16,7.66,0,1.31.16,2.63-.11,3.94-.05.38-.27.77-.33,1.15-.05.16-.22.44-.66.27-.6-.16-1.26.11-1.92.16-.82.05-1.7-.05-2.41.22-1.37.44-2.63-.16-3.94.22-.77.16-1.2-.16-1.2-.99-.05-2.08,0-4.1.05-6.19v-.49c-.22-2.63-.27-5.26-.11-7.88.27-3.56-.05-7.07.05-10.62.05-3.89,0-7.83,0-11.72-.05-2.35-.22-4.76.16-7.12.05-.49.27-.66.82-.38.49.22,1.15-.05,1.53.55.11.11.11-.27.27-.33l.16.71c.38,0,.16-.38.33-.49.22-.22.38-.6.66-.38.71.6,1.09-.22,1.64-.27.16.38-.16.77,0,1.2.33-.38.44-.77.16-1.42.49.49.27.88.27,1.26.6-.27.49-.38.93-.82.27-.33.88-.27,1.42-.16.49.11.16.38.22.66-.38,0-.22-.38-.44-.49-.22.33-.27.66.05.77.16.11.49-.05.6-.38.11-.22.27-.44.49-.88-.11,1.42.71,2.52.33,3.78.44-.49.05-1.2.6-1.86,0,.33.11.55.11.71,0,1.59.16,3.12.38,4.71.16.99-.38,1.86-.27,2.85.11,1.48.11,2.9.16,4.38.05,1.2,0,2.41.16,3.61.05.38,0,.71.6.49.33-.11.88,0,1.31.22.49.22,1.15,0,1.7-.05,0-.22-.33-.05-.33-.33,0-.16.16-.16.33-.16.49-.05,1.04-.11,1.59-.05.38,0,.55,0,.55-.44.05-.6.11-1.2.05-1.81-.27-2.68,0-5.31-.05-8,0-1.97,0-3.94.05-5.91.05-.71-.05-1.48.44-2.08.49.71.77.71,1.86.11.16-.11.22-.22.44-.16.82.16,1.59.16,2.41-.16.38-.16.88.33,1.37.33.16,0,.27.11.44.05.6-.33,1.2-.05,1.86,0,.66.11.77.49.88,1.04.44,1.7.44,3.45.49,5.2.11,2.63-.05,5.25.16,7.88.16,1.75.16,3.56.16,5.31,0,2.63-.11,5.25-.33,7.83-.16,1.59-.05,3.17-.16,4.76-.16,3.34-.38,6.62-.38,9.91,0,.77-.33,1.48-.22,2.19.05.16,0,.27-.16.27-.33,0-.71-.05-.82-.33-.22-.33-.44-.22-.6-.11-.55.27-.88-.22-1.2-.38-.27-.11-.38-.22-.49.05-.44.77-.55.11-.88-.27M253.51,10.47c-1.26,0-2.52.27-3.78.05-1.7-.27-1.97-.55-2.35-2.14-.33-1.26-.33-2.52-.05-3.78.11-.33,0-.77.05-1.09.16-1.04.66-1.48,2.13-1.48,1.7-.05,3.39-.33,5.09-.33,2.57-.05,5.15-.38,7.72-.33,2.63.11,5.25.11,7.88.11,1.09,0,2.24-.16,3.34.33.27.16.33.22.33.55.05.71-.05,1.37.05,2.08.05.11.16.16.05.27-.6.88-.11,1.92-.44,2.79-.05.11-.05.27.05.33.55.33.22.82.22,1.2,0,.88-.66.99-1.26,1.15-.71.16-1.37.22-2.08.22-1.09-.05-2.19,0-3.29.05-.49,0-.93.05-1.37,0-.99,0-1.04,0-1.04.93.05,1.37,0,2.74.16,4.1.11,1.09.11,2.19-.05,3.29-.22,1.64-.16,3.34-.16,4.98,0,1.97-.16,3.89-.44,5.86-.11.93.16,1.86.22,2.79.05,1.48,0,2.96.05,4.49,0,.55.05,1.04.11,1.59.27,2.13.05,4.27-.22,6.35-.05.66-.6,1.2-1.37,1.26l-1.92.16c-.82.11-1.59-.22-2.41-.16-.33,0-.66-.05-.99,0-.77.05-1.53-.22-2.19-.55-.16-.11-.22-.49-.22-.71-.05-1.31-.38-2.63-.27-3.94.27-2.57.16-5.15.33-7.72.11-1.37-.11-2.74,0-4.1.11-2.02-.11-4,.05-6.02v-.16c-.49-2.3.05-4.6-.33-6.84-.33-1.59,0-3.12.22-4.71.11-.82.05-.88-.82-.88h-1.04ZM230.62,27.99h3.56c.22,0,.38-.05.33-.33-.11-.66-.05-1.42-.27-2.02-.6-1.86-.82-3.78-.93-5.75-.05-.44-.05-.93-.38-1.48-.82,3.28-.99,6.51-2.3,9.58M240.52,18.36c.05-.11.11-.16.11-.27.05-.11-.05-.16-.16-.11-.05,0-.05.11-.05.22,0,.05.05.11.11.16M240.35,17.81c.16-.49,0-.71-.22-.99l.22.99ZM222.33,11.4c.22-.22.22-.33.11-.49-.16.11-.11.27-.11.49M222.66,9.98c.16-.16.33-.27.16-.49-.11.11-.22.22-.16.49M244.42,45.79c-.16-.6-.38-.6-.71-.27-.27.33-.55.77-1.09.33-.05-.05-.55.05-.82.11-.66.16-1.37.44-2.03.33-.71-.11-1.42-.33-2.13-.55-.22-.05-.22-.27-.27-.49-.82-2.52-.88-5.14-1.37-7.72-.05-.33-.11-.38-.38-.44-1.59-.05-3.17-.16-4.76-.27-.66-.05-1.37-.16-2.08-.27-.27,0-.44.05-.49.44-.44,1.7-.82,3.34-1.48,4.98-.33.82-.33,1.81-.71,2.68-.27.6-.88.82-1.53.93-.77.11-1.53-.27-2.24-.11-.6.16-1.09.22-1.64.05-.71-.22-1.26.38-1.92.27-.66-.11-1.26.11-1.86.11-.49-.05-.93-1.09-.82-1.53.16-.88.38-1.7.6-2.57.11-.44.6-.71.71-1.2.27-1.04.6-2.02.82-3.01.05-.38-.22-.88,0-1.26.88-1.48,1.04-3.17,1.75-4.71.22-.44.6-.99.16-1.64-.11-.11.05-.55.16-.82.6-1.09.93-2.3,1.2-3.45.16-.55,0-1.2.22-1.75.44-1.04.44-2.13.71-3.23.27-1.09.66-2.19.82-3.28.27-1.53.71-3.01,1.15-4.49.05-.16-.05-.44.33-.38.22.05.27-.16-.05-.49-.11-.05-.05-.16,0-.22.05-.38.11-.77.22-1.15,0-.16,0-.49.33-.16.11.11.16-.22.11-.27-.6-.6-.05-1.2.11-1.64.93-1.75,1.53-3.67,2.3-5.47.22-.44.11-.99.55-1.37.16-.16.38-.44.6-.44.88-.05,1.75-.22,2.68.05.22.05.44.05.66-.05.44-.27.88.22,1.42.05.49-.16,1.09-.22,1.7-.11.44.11.88.44,1.42.22.16-.05.55.22.66.6.22.6.49,1.2,1.04,1.59.44.33.27.82.49,1.2.77,1.53,1.09,3.23,1.64,4.87.66,1.97.93,3.94,1.26,5.97.38,1.97.88,3.94,1.26,5.97.11.6,0,1.31.27,1.86.38.77.49,1.53.27,2.35-.11.44.33.44.44.77.49,2.08.49,4.16,1.09,6.24.44,1.26.55,2.68.82,4,.27,1.31.6,2.57.77,3.89.11,1.2.49,2.41.27,3.61-.27,1.26-.93,1.64-2.02.99-.55-.33-.55-.05-.6.38M210.04,21.37c0-.22.05-.38.05-.55.05-.11.05-.05.11,0,.16.33.16.66.16.99-.11,3.23.11,6.46.22,9.69.05,1.97-.22,3.94-.05,5.97.16,1.86-.11,3.78-.05,5.64.05.82-.33,1.64-.49,2.41-.05.22-.22.38-.49.44-.99.11-2.02.44-2.96.33-1.1-.11-2.25.11-3.34-.33-.33-.16-.6.27-.99.27-.55,0-.99-.27-1.53-.38-.22-.05-.49-.27-.55-.55-.27-2.02-.27-4,.05-6.02.16-.82.27-1.64-.11-2.46-.27-.6-.05-1.26-.11-1.92,0-1.97-.16-3.89-.22-5.86-.16-2.74-.27-5.47-.11-8.21.11-1.31-.05-2.68-.05-4,.05-1.86.22-3.72.27-5.58,0-1.75-.11-3.5.16-5.2.16-1.15.22-2.3.33-3.45.11-.82.88-1.26,1.53-1.59,1.26-.66,2.57-.44,3.89.11.38.16.77.22,1.15,0,.38-.22.71-.22.99.11.27.27.77-.16.93.22.33.99.82,1.97.93,3.01.22,1.59.22,3.17,0,4.76-.16,1.75.33,3.45.49,5.14.11,1.04.05,2.08-.11,3.12-.11.82-.38,1.7-.27,2.46.05.49-.27.99.16,1.42M179.34,13.92h0v3.34c0,.33.16.44.49.44.49,0,.99-.11,1.48-.16.33-.05.49-.27.49-.6.22-2.08.27-4.16-.33-6.24-.11-.16-.16-.33-.44-.33-.38.05-.77,0-1.15-.11-.49-.05-.6.16-.6.6.05,1.04.05,2.03.05,3.07M180.78,33.8c.05,2.57-.16,4.98-.38,7.39-.16,1.31-.05,2.68-.44,3.94-.22.6-.49.93-1.15.82-1.64-.22-3.29-.11-4.93,0-.38,0-.71-.16-1.04.11-.22.22-.27-.16-.49-.22-.93-.11-1.37-.66-1.37-1.59,0-.82-.11-1.7.05-2.46.33-1.7.05-3.45.38-5.2.11-.6.16-1.31.05-1.92-.22-1.92.11-3.78,0-5.69-.11-2.96-.16-5.86-.22-8.82,0-2.08-.05-4.16-.22-6.18-.11-1.92.22-3.83.22-5.75,0-.93-.22-1.81-.22-2.68,0-.66-.16-1.31.11-1.92.16-.33.11-.66.22-1.04.27-.82,1.09-1.53,1.97-1.48.38.05.82-.05,1.2-.05.6-.05,1.2,0,1.81.05,1.64.05,3.34,0,4.98-.33.71-.11,1.53-.05,2.3.05.82.11,1.64.11,2.46.33,1.92.55,3.67,1.37,4.71,3.29.93,1.7,1.09,3.5,1.37,5.25.38,2.24.33,4.49.27,6.74,0,.27,0,.55.05.77.22.71.22,1.42.05,2.13-.16.77-.22,1.59-.38,2.35-.16.99-.66,1.81-1.48,2.46-.66.55-1.26,1.26-2.13,1.53-.22.11-.27.22-.16.44.11.22.22.49.38.77.49.93.71,1.86.88,2.9.27,1.53.71,3.01,1.15,4.49.38,1.15.49,2.3.6,3.39.27,1.75.33,3.45.71,5.14.22.93.38,1.86-.05,2.79-.16.38-.38.6-.82.49-.38-.11-.71.16-1.04.11-.82-.16-1.64.16-2.35.05-.66-.16-1.42.33-1.97-.27-.6.33-1.15.05-1.7,0-1.04-.05-.99-.05-1.15-1.09-.27-1.26-.55-2.52-.88-3.72-.49-1.81-.88-3.61-.88-5.48-.05-.6-.11-1.2-.49-1.92M145.78,10.47c-1.26,0-2.52.27-3.78.05-1.7-.27-1.97-.55-2.35-2.14-.33-1.26-.33-2.52-.05-3.78.11-.33,0-.77.05-1.09.16-1.04.66-1.48,2.14-1.48,1.7-.05,3.39-.33,5.09-.33,2.57-.05,5.15-.38,7.72-.33,2.63.11,5.25.11,7.88.11,1.09,0,2.24-.16,3.34.33.27.16.33.22.33.55.05.71-.05,1.37.05,2.08.05.11.16.16.05.27-.6.88-.11,1.92-.44,2.79-.05.11-.05.27.05.33.55.33.22.82.22,1.2,0,.88-.66.99-1.26,1.15-.71.16-1.37.22-2.08.22-1.09-.05-2.19,0-3.28.05-.49,0-.93.05-1.37,0-.99,0-1.04,0-1.04.93.05,1.37,0,2.74.16,4.1.11,1.09.11,2.19-.05,3.29-.22,1.64-.16,3.34-.16,4.98,0,1.97-.16,3.89-.44,5.86-.11.93.16,1.86.22,2.79.05,1.48,0,2.96.05,4.49,0,.55.05,1.04.11,1.59.27,2.13.05,4.27-.22,6.35-.05.66-.6,1.2-1.37,1.26l-1.92.16c-.82.11-1.59-.22-2.41-.16-.33,0-.66-.05-.99,0-.77.05-1.53-.22-2.19-.55-.16-.11-.22-.49-.22-.71-.05-1.31-.38-2.63-.27-3.94.27-2.57.16-5.15.33-7.72.11-1.37-.11-2.74,0-4.1.11-2.02-.11-4,.05-6.02v-.16c-.49-2.3.05-4.6-.33-6.84-.33-1.59,0-3.12.22-4.71.11-.82.05-.88-.82-.88h-1.04ZM121.2,32.48c-.11,0-.11.05-.11.11s0,.16.11.11c0-.05.05-.11.05-.16l-.05-.05ZM119.39,26.9c0-.05-.05-.11-.11-.16-.11,0-.05.11-.11.16,0,.05.05.16.11.16.11,0,.11-.11.11-.16M131.87,24.6c0,.05.05.11.11.16v-.16c0-.05,0-.11-.05-.11-.11-.05-.11.05-.05.11M119.33,24.27c-.11,0-.16.05-.16.16,0,.05,0,.16.11.11.05,0,.11-.11.16-.16,0,0-.05-.11-.11-.11M121.14,24.21c.16-.11.22-.27.11-.49-.05.16-.22.27-.11.49M119.22,22.9c-.05.22-.05.38.05.55.05-.22.16-.33-.05-.55M119.81,18.63c-.11.16-.11.33,0,.49.11-.16.11-.33,0-.49M112.92,12.77c-.11.16-.11.27,0,.44.11-.16,0-.27,0-.44M121.31,22.84c.16.11.11.27.11.38.05,1.53.11,3.01.11,4.49v7.78c0,.16-.05.44.16.49.27.16.22-.16.33-.27.11-.05.22-.05.33-.05.71-.16,1.37-.33,2.08-.38.6,0,.77-.38.77-.77,0-1.59.33-3.12.27-4.65-.11-2.79-.16-5.58-.16-8.38,0-.99-.11-1.97-.22-2.96-.16-1.48-.66-2.9-.33-4.38.22-1.09-.38-1.92-.88-2.79-.11-.22-.33-.33-.49-.38l-1.75-.16c-.22,0-.27.11-.33.38,0,.88-.16,1.75-.05,2.68.11.88.22,1.81-.05,2.74,0,.11-.05.22,0,.33.49.77.22,1.53.16,2.35-.05.6-.27,1.2.05,1.86.05.05.05.27,0,.38-.33.44-.16.88-.11,1.31-.16.11-.16.22,0,.33.05-.11.05-.22,0-.33M112.11,8.5c-.38.44-.11,1.04-.6,1.31.16-1.48.05-2.85.05-4.27,0-.88,0-1.75.22-2.63.16-.82.88-1.09,1.59-1.15,2.19-.22,4.33-.82,6.52-.6,1.7.22,3.34.05,4.98,0,2.08-.05,4,.38,5.75,1.42,1.31.77,2.19,2.02,2.74,3.45l.82,2.3c.82,1.97,1.64,4,1.48,6.24-.11.93-.11,1.86,0,2.79.44,4.49.22,9.03.22,13.52-.05,2.85-.38,5.7-1.09,8.43-.27,1.09-.93,1.92-1.64,2.79-1.2,1.48-2.63,2.52-4.38,3.23-1.04.44-2.08.71-3.17.71-2.3.11-4.54.27-6.79.27-1.64-.05-3.28-.11-4.87,0-.6,0-1.04-.33-1.59-.44-.27-.05-.38-.38-.33-.6.22-1.86-.11-3.72-.05-5.64.05-1.2-.11-2.46-.22-3.72-.05-.6.11-1.26.11-1.92-.22-3.45-.05-6.9-.22-10.3-.11-1.53-.16-3.01-.11-4.54.05-1.48.11-3.01,0-4.54-.11-1.09.11-2.24.16-3.34,0-.16,0-.38.27-.27.16.11.16-.05.16-.11,0-.11,0-.16-.16-.22-.49-.11-.49-.27-.16-.66.33-.38.38-.93.33-1.53M81.07,43.16c-.11-1.53-.27-3.23-.27-4.87,0-1.75-.16-3.45-.33-5.2-.11-1.1,0-2.14.22-3.23.05-.16.05-.44.05-.6-.22-3.07.27-6.08.16-9.15-.05-1.97-.11-4-.27-5.97-.11-1.09,0-2.13.22-3.17.16-1.2.16-2.52-.05-3.72-.16-1.48-.22-2.96.05-4.43.11-.55.49-.77.82-.77.71.05,1.26-.27,1.92-.49.66-.16,1.37.05,2.03-.05.38-.11,1.2,0,2.08-.05.88-.05,1.81,0,2.74.11.22.05.55.22.6.6.38,1.81.71,3.61.38,5.47-.11.66-.16,1.37-.05,2.02.11.82.05,1.7-.11,2.57-.33,1.75,0,3.45.22,5.2.27,2.41.33,4.76.11,7.17-.11,1.75,0,3.56-.11,5.31-.05,1.37-.16,2.74-.22,4.05-.05,1.26.55,1.92,1.75,1.86,1.81-.05,3.56.11,5.31-.16.44-.11.82.05,1.26.11,1.26.05,2.52-.05,3.78-.16.82-.11,1.59,0,2.35.38.27.22.66.27,1.04.11.33-.16.77.11.82.38.11.82.44,1.64.6,2.46.22,1.31.16,2.02-.16,3.34-.27,1.04-.27,2.08-.6,3.12-.05.33-.11.49-.49.44-.99-.11-2.03.11-3.01.27-1.31.27-2.68.22-4,0-1.04-.16-2.08-.11-3.12-.05-2.46.11-4.93-.33-7.34-.33-1.64.05-3.28,0-4.93,0-.66.05-1.2-.05-1.81-.27-.16-.11-.38-.16-.49-.22-.33-.16-.77.16-.99-.22-.22-.38-.22-.93-.22-1.37,0-.16,0-.27.05-.49M59.62,27.99h3.56c.22,0,.38-.05.33-.33-.11-.66-.05-1.42-.27-2.02-.6-1.86-.82-3.78-.93-5.75-.05-.44-.05-.93-.38-1.48-.82,3.28-.99,6.51-2.3,9.58M70.08,18.36c.05-.11.11-.16.11-.27.05-.11-.05-.16-.16-.11-.05,0-.05.11-.05.22,0,.05.05.11.11.16M69.92,17.81c.16-.49,0-.71-.22-.99l.22.99ZM52.48,11.4c.22-.22.22-.33.11-.49-.16.11-.11.27-.11.49M52.81,9.98c.16-.16.33-.27.16-.49-.11.11-.22.22-.16.49M73.42,45.79c-.16-.6-.38-.6-.71-.27-.27.33-.55.77-1.09.33-.05-.05-.55.05-.82.11-.66.16-1.37.44-2.02.33-.71-.11-1.42-.33-2.13-.55-.22-.05-.22-.27-.27-.49-.82-2.52-.88-5.14-1.37-7.72-.05-.33-.11-.38-.38-.44-1.59-.05-3.17-.16-4.76-.27-.66-.05-1.37-.16-2.08-.27-.27,0-.44.05-.49.44-.44,1.7-.82,3.34-1.48,4.98-.33.82-.33,1.81-.71,2.68-.27.6-.88.82-1.53.93-.77.11-1.53-.27-2.24-.11-.6.16-1.09.22-1.64.05-.71-.22-1.26.38-1.92.27-.66-.11-1.26.11-1.86.11-.49-.05-.93-1.09-.82-1.53.16-.88.38-1.7.6-2.57.11-.44.6-.71.71-1.2.27-1.04.6-2.02.82-3.01.05-.38-.22-.88,0-1.26.88-1.48,1.04-3.17,1.75-4.71.22-.44.6-.99.16-1.64-.11-.11.05-.55.16-.82.6-1.09.93-2.3,1.2-3.45.16-.55,0-1.2.22-1.75.44-1.04.44-2.13.71-3.23.27-1.09.66-2.19.82-3.28.27-1.53.71-3.01,1.15-4.49.05-.16-.05-.44.33-.38.22.05.27-.16-.05-.49-.11-.05-.05-.16,0-.22.05-.38.11-.77.22-1.15,0-.16,0-.49.33-.16.11.11.16-.22.11-.27-.6-.6-.05-1.2.11-1.64.93-1.75,1.53-3.67,2.3-5.47.22-.44.11-.99.55-1.37.16-.16.38-.44.6-.44.88-.05,1.75-.22,2.68.05.22.05.44.05.66-.05.44-.27.88.22,1.42.05.49-.16,1.09-.22,1.7-.11.44.11.88.44,1.42.22.16-.05.55.22.66.6.22.6.49,1.2,1.04,1.59.44.33.27.82.49,1.2.77,1.53,1.09,3.23,1.64,4.87.66,1.97.93,3.94,1.26,5.97.38,1.97.88,3.94,1.26,5.97.11.6,0,1.31.27,1.86.38.77.49,1.53.27,2.35-.11.44.33.44.44.77.49,2.08.49,4.16,1.09,6.24.44,1.26.55,2.68.82,4,.27,1.31.6,2.57.77,3.89.11,1.2.49,2.41.27,3.61-.27,1.26-.93,1.64-2.02.99-.55-.33-.55-.05-.6.38M24.63,33.74c-2.02,3.34-1.92,6.9-3.89,10.29-.22-.11-.38.6-.49.44-.38.49-.49,0-.77.55-.11.33-.38.44-.71.6-.77.33-3.45.49-4.32.66-.55.05-1.15.11-1.75-.22-.33-.16-.77-.33-1.26-.11-.44.16-.93.05-1.31-.38-.88-.88-1.31-1.92-1.53-3.06-.33-1.64-.82-3.29-1.04-4.93-.22-2.03-.66-4-1.15-5.91-.33-1.53-.77-3.01-1.15-4.54-.55-2.57-1.09-5.15-1.37-7.83-.11-1.2.05-.71-.16-1.92-.05-1.92-.99-3.67-1.26-5.59,0-.16-.05-.33-.05-.49.27-1.2.11-2.3-.11-3.39-.33-1.48-.16-3.01-.33-4.54-.05-.55.49-1.04,1.2-1.1,1.15-.05,2.24-.33,3.34-.6.88-.16,2.52-.33,3.45-.27,1.92,0,2.63.66,3.07,1.59.66,1.59.55,3.23.88,4.82.16.93.27,1.81.33,2.68.44.99.49,2.02.71,3.06.16.88.33,1.81.22,2.74.6,2.24.55,2.79.6,5.2.05,1.42.16,1.92.22,3.34.11.49,0,.16.16.49.27,0,.05.27.33-.16.55-1.15.27-.38.66-1.59.38-1.15.71-2.3,1.09-3.45.11-.33.22-.66.55-.82.33-.22.27-.66.33-.93.16-.6.49-.99.77-1.53.27-.44.44-.88.55-1.37.16-.71.33-.77,1.09-.77.33-.05.55-.33.99-.33,1.86-.11,3.12-.16,4.93,0,.33.05.49.38.88.38,1.48,0,1.53,0,1.86,1.53.16.6.77,2.3.99,2.9.44,1.7.55,3.89,1.09,5.64.16-.49.33-1.48.38-1.97,0-1.2.38-2.41.77-3.23.6-1.26.77-2.57,1.04-3.94,0-.22.05-.44.16-.6.99-1.97.55-3.61,1.26-5.7.44-1.26.33-2.57.99-3.72.49-.77.77-1.53,1.04-2.35.33-1.2,1.97-1.64,3.12-1.59.82,0,1.64.11,2.46-.11.33-.05.33.33.6.27.6-.05,1.15.11,1.75.11.49-.05.88.16,1.26.55.22.22.55.27.6.66.11.99.82,1.92.6,2.96-.38.93-.44,1.86-.88,2.74-.82,1.64-1.09,3.39-1.37,4.49-.05.16-.05.33-.16.49-.82,1.53-.66,3.23-.77,4.87-.22.93-.22,1.97-.55,2.85-.27.44-.27.99-.38,1.53-.27,1.04-.77,2.02-1.15,3.01-.27.88-.44,1.81-.66,2.68-.33,1.7-.93,3.34-1.48,4.93-.33,1.15-.44,2.3-.55,3.45-.11.6-.38,1.15-.77,1.59-.55.6-.82,1.37-1.04,2.13-.22.99-.66,1.92-.99,2.9-.33.93-1.09,1.42-2.08,1.42h-1.15c-.44,0-.93,0-1.26.38-.22.22-.55.22-.82.11-.77-.27-1.48-.44-2.3-.27-.71.05-1.42-.27-2.03-.6-.33-.16-.27-.6-.33-.93-.16-1.04-.66-1.97-1.04-2.96-.49-1.2-1.04-2.41-1.42-3.61-.38-1.15-.6-2.35-.49-3.61"/>
</svg>