<?xml version="1.0" encoding="UTF-8"?>
<svg id="Ebene_1" data-name="Ebene 1" xmlns="http://www.w3.org/2000/svg" viewBox="0 0 57.99 107.1">
  <defs>
    <style>
      .cls-1 {
        fill: #fff;
        stroke-width: 0px;
      }
    </style>
  </defs>
  <path class="cls-1" d="M13.53,75.87c.05.01.11.02.16.03.83.79.8,1.77.97,2.82,1.14,1.57,1.72-4.21,2.72-4.77,1.92,3.42-.6,6.87-.21,10.34.81-.69.8-2.24,1.12-3.11.03,1.06-.16,2.46.27,3.57.07,0,.13,0,.2.01,1.15-2.61,1.46-5.58,2.29-8.32.03,0,.07.02.1.02-.08,1.46-.48,2.97-.21,4.41.05,0,.1.02.14.03,1.07-1.11.29-3.51,2-4.02v3.05c.05,0,.11,0,.16.01.48-1.31.58-2.72.94-4.16.24.63.29,1.26.61,1.72.46.03.26.74.47,1.06h.18c1.09-1.66.99-6.37,2.35-7.18,1.04,11.04,1.18,22.13-.48,33.12-.11.98-.25.7.63,1.11.79.2.73,1.39,1.7,1.32,1.72-.18,3.85-1.45,3.54-3.48-.6-9.5-.97-18.95-1.8-28.45.19.21.3.34.51.56.33-1.57-.13-3.04.14-4.51,1.39,2.17,1.57,5,2.57,7.39.05-.01.11-.03.17-.04-.18-1.51-.37-3.02-.55-4.5,3.45,2.91,2.22,5.44,3.71,8.82.64-1.92-.23-4.18-.32-6.2.9,1.74,3.54,12.47,3.57,4.8.5,1.05.46,2.57,1.54,3.07.04-3.74-2.04-7.41-3.17-10.99,1.89-.94.42-4.69-.93-5.71,2.94,1.21,4.34,1.84,4.83,5.18.12.34.38.64.79.55,1.01-.96-.28-2.9-.38-4.14l.13-.07c1.08,1.34,5.16,8.38,5.33,3.15.2.62,2.52,3.19,2.37,1.33-1.12-2.48-3.12-4.39-4.69-6.59.62.04,1.03-.17,1.33-.75,1.26,5.41,3.1,4.95,1.47-.31,1.22,1.18,5.29,8.4,5.4,3.13.31.58,2.24,2.98,2.47,1.54-.75-2.02-2.33-3.55-3.41-5.41,3.05-.09-6.18-6.34-7.14-6.57-.83-.23-1.64-.53-2.54-.37-.53.1-.7-.09-.79-.64-.41-2.94-2.01-.49-1.76-4.4,1.25,0,1.59,1.89,2.62,1.81.64-.66-.36-1.67-.61-2.39,1.03.68,2.03,1.33,3.08,2.02v-1.5c1.85,1.73,3.76,3.08,6.17,3.87-1.99-2.8-5.27-4.52-8.16-6.22-2.57-.76-5.6-.97-6.56-3.95,1.56.54,3.1,1.09,4.65,1.63-3.3-3.08-10.65-4.59-9.75-10.26.27.88.08,1.88.73,2.68.3-.91.59-1.78.88-2.65-.34,1.33.7,2.15,1.04,3.41.55-1.13.52-2.09.28-3.3.04-.02.09-.04.13-.05,1.42,1.4.98,5.86,3.03,6.16.04-.59.09-1.2.14-1.88.29.5.34,1.06.92,1.43.15-1.18-.32-2.15-.5-3.21,1.64.68,1.56,2.84,2.81,3.91.04-.03.08-.05.12-.08.04-1.03-.38-1.97-.6-3.03,1.11.86,2.36,1.39,2.93,2.73.38.6.75,1.48,1.53,1.61.12-.77-.53-1.45-.77-2.17.05-.03.09-.07.14-.11,1.13.92,1.95,2.85,3.59,2.74,1.29-.36.09-1.25-.55-1.61-3.24-2.57-6.09-5.42-8.32-8.92-1.35-2.11-4.16-1.48-3.9-4.62.79.71,1.48,1.33,2.2,1.98.32-.27.62-.53.96-.81.53,1.16.82,2.44,2.21,2.87v-1.84s.08-.04.12-.06c.84,1.05,1.35,2.42,2.87,2.63-.55-1.11-1.07-2.14-1.59-3.18.95.86,2,2.91,3.51,2.04-.53-3.06-3.21-4.08-5.73-5.29-3.27-1.42-5.08-4.69-7.58-7.08-1.16-1.16-.71-2.63-1.1-4.18,3.78,2,1.04,4.76,6.31,3.18-.53-.89-1.02-1.71-1.53-2.57,1.52.29,2.76,1.29,4.32,1.21-1.47-1.69-3.52-2.64-5.19-4.05-2.03-2.34-3.78-4.92-5.68-7.36-1.19-2.74-1.42-5.85-2.35-8.69-1.57,5.08-1.15,11.1-6.26,14.29-.97.76-2.26,1.12-3.28,1.79-1.38,1-2.24,3-4.21,2.87-2.34,1.34,2.26.49,2.97.18-.58.83-1.1,1.55-1.66,2.35,1.72-.34,2.53-1.77,3.8-2.71-.29,1.06-.55,2.04-.83,3.07,1.99-.17,2.2-2.43,3.27-3.71,1.14,3.03.62,2.51,3.79,2.1-.75,2.44-6.55,6.09-9.07,6.96-2.63.43-4.3,2.11-5.85,4.15-.23.25-.18.53,0,.71.91.51,1.55-.72,2.23-1.23-.39.86-1.07,1.48-1.1,2.36,1.76-.12,2.26-2.28,4.12-2.47-.47,1.11-.89,2.1-1.34,3.15,1.85-.31,2.24-2.29,3.61-3.24,1.08.68-.28,1.8-.46,2.7,1.2-1.18,2.33-1.97,4.07-1.93.02.05.03.09.05.14-.67.95-1.56,1.78-1.53,2.92-1.31,1.33-2.99,1.57-4.64,2.22-1.42.44-2.71,1.57-4.15,1.78-1.39-.81-5.51.56-2.33,1.6-1.53,1.09-3.71,2.65-3.67,4.65,1.24.44,1.74-1.26,2.62-1.98-.02.39.07.6.13.95,1.2-.26,1.74-1.57,2.59-2.35.02.01.04.03.07.05-.21,1.04-.42,2.09-.65,3.22,1.41-.72,1.46-2.33,2.19-3.57.06.01.11.03.17.04v3.06s.09.01.14.02c.36-.98.72-1.96,1.09-2.99.28,1.99,1.53,2.34,1.57.09.07-.68.9-.88,1.38-1.36.41.83.8,1.62,1.21,2.44.38-1.01,1.83-4.02,2.89-2.37.12.22,0,.44-.26.56-1.15.52-1.79,1.47-2.22,2.6-.09.42.06.78-.49.87-4.05,1.46-8.49,2.81-11.66,5.84-.51.88-5.21,5.32-3.16,5.5.61-.16.93-.64,1.18-1.16.29-.79,1.21-1.14,1.81-1.71.02.02.04.03.06.05-.35,1.11-.7,2.22-1.06,3.32.04.02.07.04.11.06,1.6-1.36,1.66-3.77,3.57-4.69-.05,1.31-.11,2.54-.16,3.86,2.23-1.77.89-4.41,4.05-4.75.12,2.32-2.26,2.76-3.19,4.51-1.2,1-3.04,1.51-3.27,3.36-.36.4-1.18.26-1.64.51-.74.39-2.54,2.24-.96,2.44-1.55,2.25-3.28,4.56-4.17,7.15.43,1.45,2.12-1.32,2.38-1.96-.04.74-.18,1.53.59,1.89,2.37.05,2.82-3.97,4.49-5.33,0,1.27-.89,3.09-.07,4.11.62-.01.88-.65.96-1.18.03-3.22,1.92-3.52,4.2-5.13-.15,1.06-.52,2.07-.37,3.16,7.57-13.6-.26,6.12,8.02-7.44,1.91.33,3.93,1.2,1.14,2.5-1.07.38-.41,1.73-1.31,2.21-.28.15-.38.35-.47.62-.28,1.22-1.6,1.66-2.4,2.49-1.11,1-2.86,1.12-3.19,2.82-1,2.02-4.08,1.33-5.19,3.47-1.31,1.83-2.72,3.58-4.49,5.01-.69.32-2.19,3.78-.86,3.25,1.46-.88,2.28-2.31,3.15-3.71.4-.49,1.04-.06,1.61-.04-1.12,1.61-2.71,3-3.25,4.93.04.03.08.07.12.1,2.74-1.11,3.54-4.45,6.11-5.57-.42,1.61-1.61,3.17-1.34,4.84.95-.32,1.23-1.64,1.61-2.41-.05.59-.16,4.02.94,2.07.31-1.09.34-2.27.85-3.29"/>
</svg>