<?xml version="1.0" encoding="UTF-8"?>
<svg id="Ebene_1" data-name="Ebene 1" xmlns="http://www.w3.org/2000/svg" viewBox="0 0 26.7 26.72">
  <defs>
    <style>
      .cls-1 {
        fill: #fff;
        stroke-width: 0px;
      }
    </style>
  </defs>
  <path class="cls-1" d="M24.85,11.61h-9.69l.05-9.74c0-.97-.77-1.75-1.74-1.76h0c-.96,0-1.75.78-1.75,1.74l-.05,9.76H1.85c-.97,0-1.75.78-1.75,1.75s.78,1.75,1.75,1.75h9.79l-.05,9.74c0,.97.77,1.75,1.74,1.76h0c.96,0,1.75-.78,1.75-1.74l.05-9.76h9.71c.97,0,1.75-.78,1.75-1.75s-.78-1.75-1.75-1.75Z"/>
</svg>