<?xml version="1.0" encoding="UTF-8"?>
<svg id="Ebene_1" data-name="Ebene 1" xmlns="http://www.w3.org/2000/svg" viewBox="0 0 300 303.72">
  <defs>
    <style>
      .cls-1 {
        fill: none;
      }

      .cls-1, .cls-2, .cls-3, .cls-4 {
        stroke-width: 0px;
      }

      .cls-2 {
        fill: #bf4c0c;
      }

      .cls-3 {
        fill: #3d503a;
      }

      .cls-4 {
        fill: #fff;
      }
    </style>
  </defs>
  <path class="cls-4" d="M299.79,150.94c-.53-15.56-2.37-30.99-5.53-46.28-4.23-25.31-22.48-48.55-39.87-67.02-8.97-12.13-26.5-22.71-34.75-26.15-14.09-5.87-21.89-6.24-36.13-8.87-9.49-2.11-18.98-2.9-28.47-2.37-9.5.53-18.99,1.33-28.48,2.37-12.13-1.05-23.35.93-33.63,5.93-10.28,5.02-20.7,10.16-31.24,15.42-4.75,2.64-15.83,10.89-18.92,16.77-2.38,4.52-10.32,13.42-12.04,16.86-2.19,4.39-9.25,13.14-11.36,17.89-6.33,12.13-7.62,22.18-12.73,35.1C1.52,123.51-.6,136.84.45,150.54c.71,7.58,1.13,15.1,1.27,22.58-.04.01-.08.02-.12.02.52,11.08,4.44,21.63,5.5,32.96,1.05,11.34,5.01,21.75,11.86,31.24,6.32,8.97,13.18,17.15,20.56,24.53,7.38,7.38,15.56,13.71,24.53,18.98,8.97,5.8,18.59,10.28,28.87,13.45,10.28,3.17,20.71,6.07,31.25,8.7,6.85,1.05,13.84.79,20.95-.78,7.11-1.59,14.11-1.85,20.97-.79,6.32,1.05,12.26.51,17.8-1.58,5.53-2.12,11.21-3.43,17.01-3.96,4.75-.52,9.37-1.97,13.85-4.35,4.48-2.37,8.83-4.61,13.05-6.72,11.6-5.8,21.75-13.06,30.45-21.75,8.7-8.7,16.48-18.33,23.35-28.88,4.22-10.01,7.37-20.3,9.49-30.84,2.11-10.55,4.22-20.83,6.32-30.85.47-2.91.76-5.82.93-8.73.74-4.21,1.59-8.38,1.44-12.81Z"/>
  <g>
    <path class="cls-3" d="M176.05,110.1c-10.25,0-18.58-8.34-18.58-18.58s8.34-18.58,18.58-18.58,18.58,8.34,18.58,18.58-8.34,18.58-18.58,18.58ZM176.05,79.82c-6.45,0-11.7,5.25-11.7,11.7s5.25,11.7,11.7,11.7,11.7-5.25,11.7-11.7-5.25-11.7-11.7-11.7Z"/>
    <g>
      <polygon class="cls-1" points="100.64 153.45 100.37 192.98 139.64 192.45 100.64 153.45"/>
      <path class="cls-3" d="M98.35,199.89l49.53-.67c1.38-.02,2.62-.86,3.14-2.15.52-1.28.22-2.75-.75-3.73l-24.31-24.31,44.46-43.52,24.43,24.43c1.32,1.32,3.46,1.35,4.81.06l37.16-35.44c1.38-1.31,1.43-3.49.12-4.87s-3.49-1.43-4.87-.12l-34.73,33.12-24.46-24.46c-1.33-1.33-3.49-1.35-4.84-.03l-46.79,45.81-19.09-18.82,46.61-45.82c1.32-1.3,1.38-3.42.12-4.79l-24.09-26.15c-.62-.68-1.49-1.08-2.41-1.11-.92-.03-1.81.31-2.48.94l-37.85,35.79c-1.38,1.31-1.44,3.48-.14,4.86,1.31,1.38,3.48,1.44,4.86.14l35.32-33.39,19.47,21.14-46.73,45.93s-.06.06-.08.09c-.03.03-.05.06-.08.09-.1.11-.19.23-.27.35,0,0,0,0,0,0-.08.12-.15.25-.22.38-.02.03-.03.07-.05.1-.06.12-.11.25-.15.38,0,.01,0,.02-.01.04-.04.14-.08.29-.1.43,0,.04-.01.08-.02.11-.02.14-.03.28-.03.42,0,.01,0,.02,0,.03l-.33,49.86-34.44,34.44s-.01.02-.02.02h9.73l29.61-29.61ZM100.64,153.45l39,39-39.27.53.27-39.53Z"/>
      <path class="cls-2" d="M255.74,229.5H44.26c-1.9,0-3.44,1.54-3.44,3.44s1.54,3.44,3.44,3.44h211.47c1.9,0,3.44-1.54,3.44-3.44s-1.54-3.44-3.44-3.44Z"/>
    </g>
  </g>
</svg>