<?xml version="1.0" encoding="UTF-8"?>
<svg id="Ebene_1" data-name="Ebene 1" xmlns="http://www.w3.org/2000/svg" viewBox="0 0 300 303.72">
  <defs>
    <style>
      .cls-1 {
        fill: none;
      }

      .cls-1, .cls-2, .cls-3, .cls-4, .cls-5 {
        stroke-width: 0px;
      }

      .cls-2 {
        fill: #bf4c0c;
      }

      .cls-3 {
        fill: #3d503a;
      }

      .cls-4 {
        fill: #fff;
      }

      .cls-5 {
        fill: #f9fff8;
      }
    </style>
  </defs>
  <path class="cls-2" d="M299.55,150.94c-.53-15.53-2.37-30.94-5.52-46.21-4.22-25.27-22.44-48.47-39.81-66.91-8.95-12.11-26.45-22.67-34.7-26.11-14.07-5.86-21.85-6.23-36.07-8.86C173.97.76,164.5-.03,155.03.49c-9.48.53-18.96,1.32-28.43,2.37-12.11-1.05-23.31.92-33.57,5.92-10.26,5.01-20.66,10.14-31.19,15.4-4.74,2.64-15.8,10.87-18.89,16.74-2.38,4.52-10.31,13.4-12.02,16.83-2.19,4.38-9.23,13.12-11.34,17.86-6.32,12.11-7.61,22.14-12.71,35.04C1.76,123.56-.35,136.86.7,150.54c.71,7.57,1.13,15.08,1.27,22.54-.04.01-.08.02-.12.02.52,11.06,4.43,21.6,5.49,32.91,1.05,11.32,5,21.72,11.84,31.19,6.31,8.95,13.16,17.12,20.53,24.49,7.37,7.37,15.54,13.69,24.49,18.95,8.95,5.79,18.56,10.26,28.82,13.43,10.26,3.16,20.67,6.06,31.2,8.68,6.84,1.05,13.82.79,20.92-.78,7.1-1.59,14.08-1.85,20.94-.79,6.31,1.05,12.24.51,17.77-1.58,5.52-2.11,11.19-3.43,16.98-3.95,4.74-.52,9.35-1.97,13.83-4.34,4.48-2.36,8.82-4.6,13.03-6.71,11.58-5.79,21.72-13.04,30.4-21.72s16.45-18.3,23.31-28.83c4.21-10,7.36-20.26,9.47-30.79,2.1-10.53,4.21-20.8,6.31-30.8.47-2.91.76-5.81.93-8.71.74-4.2,1.59-8.36,1.44-12.79Z"/>
  <path class="cls-4" d="M176.01,110.17c-10.23,0-18.55-8.32-18.55-18.55s8.32-18.55,18.55-18.55,18.55,8.32,18.55,18.55-8.32,18.55-18.55,18.55ZM176.01,79.93c-6.44,0-11.68,5.24-11.68,11.68s5.24,11.68,11.68,11.68,11.68-5.24,11.68-11.68-5.24-11.68-11.68-11.68Z"/>
  <g>
    <polygon class="cls-1" points="100.72 153.45 100.45 192.91 139.66 192.38 100.72 153.45"/>
    <path class="cls-5" d="M98.44,199.81l49.45-.67c1.38-.02,2.62-.86,3.14-2.14.52-1.28.22-2.75-.75-3.72l-24.27-24.27,44.38-43.45,24.39,24.39c1.32,1.32,3.45,1.34,4.8.06l37.1-35.38c1.37-1.31,1.42-3.48.12-4.86s-3.48-1.42-4.86-.12l-34.67,33.07-24.42-24.42c-1.33-1.33-3.49-1.34-4.83-.03l-46.71,45.73-19.06-18.79,46.53-45.74c1.32-1.3,1.37-3.41.12-4.78l-24.05-26.11c-.62-.68-1.49-1.07-2.41-1.11-.92-.03-1.81.31-2.48.94l-37.79,35.73c-1.38,1.3-1.44,3.48-.14,4.86,1.3,1.38,3.48,1.44,4.86.14l35.26-33.34,19.44,21.1-46.65,45.86s-.06.06-.08.09c-.03.03-.05.06-.08.09-.1.11-.19.23-.27.35,0,0,0,0,0,0-.08.12-.15.25-.22.38-.02.03-.03.07-.05.1-.06.12-.11.25-.15.38,0,.01,0,.02-.01.04-.04.14-.08.29-.1.43,0,.04-.01.08-.02.11-.02.14-.03.28-.03.42,0,.01,0,.02,0,.03l-.33,49.78-34.39,34.39s-.01.02-.02.02h9.71l29.56-29.56ZM100.72,153.45l38.94,38.94-39.2.53.26-39.47Z"/>
    <path class="cls-3" d="M255.56,229.37H44.44c-1.9,0-3.44,1.54-3.44,3.44s1.54,3.44,3.44,3.44h211.13c1.9,0,3.44-1.54,3.44-3.44s-1.54-3.44-3.44-3.44Z"/>
  </g>
</svg>