<?xml version="1.0" encoding="UTF-8"?>
<svg id="Ebene_1" data-name="Ebene 1" xmlns="http://www.w3.org/2000/svg" viewBox="0 0 300 303.72">
  <defs>
    <style>
      .cls-1 {
        fill: #bf4c0c;
      }

      .cls-1, .cls-2, .cls-3 {
        stroke-width: 0px;
      }

      .cls-2 {
        fill: #3d503a;
      }

      .cls-3 {
        fill: #fff;
      }
    </style>
  </defs>
  <g>
    <path class="cls-1" d="M241.71,252.4c-7.02.2-10.51,2.06-14.54,4.23-4.22,2.26-9.01,4.83-17.76,5.05-9.68.25-15.23-2.61-20.13-5.13-4.49-2.31-8.73-4.49-16.37-4.49h0c-7.58,0-12.25,2.15-17.19,4.43-5.34,2.46-10.87,5.01-19.86,5.19-10.7.21-21.47-3.1-32.02-9.85-1.6-1.02-2.07-3.15-1.04-4.75,1.02-1.6,3.15-2.07,4.75-1.04,9.39,6,18.87,8.95,28.18,8.77,7.55-.15,12.2-2.29,17.11-4.56,5.4-2.49,10.98-5.06,20.07-5.06h0c9.31,0,14.73,2.79,19.52,5.25,4.77,2.45,8.89,4.58,16.81,4.37,7.12-.18,10.63-2.06,14.69-4.24,4.2-2.25,8.95-4.8,17.6-5.04,9.34-.26,15.22,2.31,20.9,4.8,1.75.77,3.46,1.51,5.27,2.18,2.4-2.83,4.72-5.74,6.96-8.73-6.21-.84-10.82-2.85-14.98-4.67-5.22-2.29-10.15-4.45-17.96-4.23-7.02.2-10.51,2.06-14.54,4.23-4.22,2.26-9.01,4.83-17.76,5.05-9.68.25-15.23-2.61-20.13-5.13-4.49-2.31-8.73-4.49-16.37-4.49h0c-7.58,0-12.25,2.15-17.19,4.43-5.34,2.46-10.87,5.01-19.86,5.19-10.7.21-21.47-3.1-32.02-9.85-1.6-1.02-2.07-3.15-1.04-4.75,1.02-1.6,3.15-2.07,4.75-1.04,9.39,6,18.87,8.95,28.18,8.77,7.55-.15,12.2-2.29,17.11-4.56,5.4-2.49,10.98-5.06,20.07-5.06h0c9.31,0,14.73,2.79,19.52,5.25,4.77,2.45,8.89,4.58,16.81,4.37,7.12-.18,10.63-2.06,14.69-4.24,4.2-2.25,8.95-4.8,17.6-5.04,9.34-.26,15.22,2.31,20.9,4.8,4.95,2.17,9.64,4.22,16.86,4.47.72-1.06,1.44-2.13,2.14-3.21,4.21-10,7.36-20.27,9.48-30.8,2.1-10.53,4.21-20.8,6.31-30.81.47-2.91.76-5.82.93-8.72.74-4.2,1.59-8.37,1.44-12.79-.53-15.53-2.37-30.94-5.52-46.22-4.22-25.28-22.45-48.49-39.82-66.92-8.95-12.11-26.46-22.68-34.71-26.12-14.07-5.86-21.86-6.23-36.08-8.86-9.48-2.1-18.95-2.9-28.43-2.37-9.49.53-18.96,1.32-28.44,2.37-12.11-1.05-23.32.92-33.58,5.92-10.27,5.01-20.67,10.14-31.2,15.4-4.74,2.64-15.8,10.87-18.89,16.74-2.38,4.52-10.31,13.4-12.03,16.84-2.19,4.38-9.23,13.13-11.34,17.87-6.32,12.11-7.61,22.15-12.71,35.05C1.72,123.55-.39,136.86.66,150.54c.71,7.57,1.13,15.08,1.27,22.55-.04.01-.08.02-.12.02.52,11.07,4.43,21.6,5.49,32.92,1.05,11.32,5,21.72,11.85,31.2,6.31,8.95,13.16,17.12,20.53,24.5,7.37,7.37,15.54,13.7,24.5,18.95,8.95,5.79,18.56,10.27,28.83,13.43,10.27,3.16,20.68,6.06,31.21,8.69,6.84,1.05,13.82.79,20.92-.78,7.11-1.59,14.09-1.85,20.94-.79,6.31,1.05,12.24.51,17.77-1.58,5.52-2.11,11.19-3.43,16.98-3.95,4.74-.52,9.35-1.97,13.83-4.34,4.48-2.36,8.82-4.6,13.03-6.71,11.58-5.79,21.72-13.04,30.41-21.72,1.61-1.61,3.18-3.25,4.73-4.92-1.1-.45-2.15-.91-3.17-1.36-5.22-2.29-10.15-4.44-17.96-4.23Z"/>
    <path class="cls-2" d="M241.52,228c-8.65.24-13.4,2.79-17.6,5.04-4.06,2.18-7.57,4.06-14.69,4.24-7.92.2-12.04-1.92-16.81-4.37-4.78-2.46-10.21-5.25-19.52-5.25h0c-9.09,0-14.67,2.58-20.07,5.06-4.92,2.27-9.56,4.41-17.11,4.56-9.31.18-18.8-2.77-28.18-8.77-1.6-1.02-3.72-.55-4.75,1.04-1.02,1.6-.55,3.72,1.04,4.75,10.55,6.75,21.32,10.06,32.02,9.85,8.99-.18,14.52-2.72,19.86-5.19,4.94-2.28,9.61-4.43,17.19-4.43h0c7.64,0,11.88,2.18,16.37,4.49,4.9,2.52,10.46,5.38,20.13,5.13,8.76-.22,13.54-2.79,17.76-5.05,4.04-2.16,7.52-4.03,14.54-4.23,7.81-.22,12.74,1.94,17.96,4.23,4.16,1.82,8.77,3.84,14.98,4.67,1.59-2.13,3.13-4.29,4.64-6.5-7.22-.25-11.91-2.3-16.86-4.47-5.68-2.49-11.56-5.06-20.9-4.8Z"/>
    <path class="cls-2" d="M262.42,250.33c-5.68-2.49-11.56-5.06-20.9-4.8-8.65.24-13.4,2.79-17.6,5.04-4.06,2.18-7.57,4.06-14.69,4.24-7.92.2-12.04-1.92-16.81-4.37-4.78-2.46-10.21-5.25-19.52-5.25h0c-9.09,0-14.67,2.58-20.07,5.06-4.92,2.27-9.56,4.41-17.11,4.56-9.31.18-18.8-2.77-28.18-8.77-1.6-1.02-3.72-.55-4.75,1.04-1.02,1.6-.55,3.72,1.04,4.75,10.55,6.75,21.32,10.06,32.02,9.85,8.99-.18,14.52-2.72,19.86-5.19,4.94-2.28,9.61-4.43,17.19-4.43h0c7.64,0,11.88,2.18,16.37,4.49,4.9,2.52,10.46,5.38,20.13,5.13,8.76-.22,13.54-2.79,17.76-5.05,4.04-2.16,7.52-4.03,14.54-4.23,7.81-.22,12.74,1.94,17.96,4.23,1.02.45,2.08.91,3.17,1.36,1.65-1.79,3.27-3.62,4.85-5.48-1.8-.66-3.52-1.41-5.27-2.18Z"/>
  </g>
  <g>
    <path class="cls-3" d="M166.42,150.63c-10.23,0-18.56-8.32-18.56-18.56s8.32-18.56,18.56-18.56,18.56,8.32,18.56,18.56-8.32,18.56-18.56,18.56ZM166.42,120.39c-6.44,0-11.68,5.24-11.68,11.68s5.24,11.68,11.68,11.68,11.68-5.24,11.68-11.68-5.24-11.68-11.68-11.68Z"/>
    <path class="cls-3" d="M140.99,143.76h-65.02v-26.12h65.02c1.38,0,2.63-.83,3.16-2.1s.26-2.74-.7-3.73l-62.88-64.95c-1.32-1.36-3.5-1.4-4.86-.08-1.36,1.32-1.4,3.5-.08,4.86l57.24,59.12h-60.34c-1.9,0-3.44,1.54-3.44,3.44v32.99c0,.26.03.51.09.75-.08.96.25,1.96.98,2.7l36.24,36.56-36.25,36.96c-1.33,1.35-1.31,3.53.05,4.86.67.66,1.54.98,2.41.98s1.78-.34,2.45-1.03l38.63-39.38c1.32-1.34,1.31-3.49-.01-4.83l-33.84-34.14h61.16c1.9,0,3.44-1.54,3.44-3.44s-1.54-3.44-3.44-3.44Z"/>
  </g>
</svg>