<?xml version="1.0" encoding="UTF-8"?>
<svg id="Ebene_1" data-name="Ebene 1" xmlns="http://www.w3.org/2000/svg" viewBox="0 0 300 303.72">
  <defs>
    <style>
      .cls-1 {
        fill: #bf4c0c;
      }

      .cls-1, .cls-2, .cls-3 {
        stroke-width: 0px;
      }

      .cls-2 {
        fill: #3d503a;
      }

      .cls-3 {
        fill: #fff;
      }
    </style>
  </defs>
  <path class="cls-3" d="M241.84,252.54c-7.03.2-10.52,2.07-14.56,4.23-4.23,2.27-9.02,4.83-17.79,5.06-9.69.25-15.26-2.61-20.16-5.14-4.49-2.31-8.74-4.5-16.39-4.5h0c-7.59,0-12.26,2.16-17.21,4.44-5.35,2.47-10.88,5.02-19.88,5.2-10.71.21-21.5-3.11-32.06-9.86-1.6-1.02-2.07-3.15-1.05-4.75,1.02-1.6,3.15-2.07,4.75-1.05,9.4,6.01,18.9,8.96,28.22,8.78,7.56-.15,12.21-2.29,17.14-4.56,5.4-2.49,10.99-5.07,20.09-5.07h0c9.32,0,14.75,2.79,19.54,5.26,4.78,2.46,8.9,4.58,16.84,4.38,7.13-.18,10.65-2.07,14.71-4.25,4.2-2.25,8.96-4.8,17.62-5.05,9.36-.26,15.24,2.32,20.93,4.81,1.75.77,3.47,1.52,5.28,2.18,2.41-2.83,4.73-5.75,6.97-8.74-6.22-.84-10.84-2.86-15-4.68-5.23-2.29-10.16-4.45-17.98-4.23-7.03.2-10.52,2.07-14.56,4.23-4.23,2.27-9.02,4.83-17.79,5.06-9.69.25-15.26-2.61-20.16-5.14-4.49-2.31-8.74-4.5-16.39-4.5h0c-7.59,0-12.26,2.16-17.21,4.44-5.35,2.47-10.88,5.02-19.88,5.2-10.71.21-21.5-3.11-32.06-9.86-1.6-1.02-2.07-3.15-1.05-4.75,1.02-1.6,3.15-2.07,4.75-1.05,9.4,6.01,18.9,8.97,28.22,8.78,7.56-.15,12.21-2.29,17.14-4.56,5.4-2.49,10.99-5.07,20.09-5.07h0c9.32,0,14.75,2.79,19.54,5.26,4.78,2.46,8.9,4.58,16.84,4.38,7.13-.18,10.65-2.07,14.71-4.25,4.2-2.25,8.96-4.8,17.62-5.05,9.36-.26,15.24,2.32,20.93,4.81,4.96,2.17,9.65,4.22,16.89,4.47.72-1.06,1.44-2.13,2.14-3.21,4.22-10.01,7.37-20.3,9.49-30.84,2.11-10.55,4.22-20.83,6.32-30.85.47-2.91.76-5.82.93-8.73.74-4.21,1.59-8.38,1.44-12.81-.53-15.56-2.37-30.99-5.53-46.28-4.23-25.31-22.48-48.55-39.87-67.02-8.97-12.13-26.5-22.71-34.75-26.15-14.09-5.87-21.89-6.24-36.13-8.87-9.49-2.11-18.98-2.9-28.47-2.37-9.5.53-18.99,1.33-28.48,2.37-12.13-1.05-23.35.92-33.63,5.93-10.28,5.02-20.7,10.16-31.24,15.42-4.75,2.64-15.83,10.89-18.92,16.77-2.38,4.52-10.32,13.42-12.04,16.86-2.19,4.39-9.25,13.14-11.36,17.89-6.33,12.13-7.62,22.18-12.73,35.1C1.52,123.51-.6,136.84.45,150.54c.71,7.58,1.13,15.1,1.27,22.58-.04.01-.08.02-.12.02.52,11.08,4.44,21.63,5.5,32.96,1.05,11.34,5.01,21.75,11.86,31.24,6.32,8.97,13.18,17.15,20.56,24.53s15.56,13.71,24.53,18.98c8.97,5.8,18.59,10.28,28.87,13.45,10.28,3.17,20.71,6.07,31.25,8.7,6.85,1.05,13.84.79,20.95-.78,7.11-1.59,14.11-1.85,20.97-.79,6.32,1.05,12.26.51,17.8-1.58,5.53-2.12,11.21-3.43,17.01-3.96,4.75-.52,9.37-1.97,13.85-4.35,4.48-2.37,8.83-4.61,13.05-6.72,11.6-5.8,21.75-13.06,30.45-21.75,1.61-1.61,3.19-3.25,4.74-4.93-1.1-.45-2.15-.91-3.18-1.36-5.23-2.29-10.16-4.45-17.98-4.23Z"/>
  <path class="cls-1" d="M241.65,228.11c-8.66.24-13.42,2.79-17.62,5.05-4.07,2.18-7.58,4.06-14.71,4.25-7.93.2-12.06-1.92-16.84-4.38-4.79-2.47-10.22-5.26-19.54-5.26h0c-9.1,0-14.69,2.58-20.09,5.07-4.92,2.27-9.57,4.42-17.14,4.56-9.32.18-18.82-2.77-28.22-8.78-1.6-1.02-3.73-.56-4.75,1.05-1.02,1.6-.56,3.73,1.05,4.75,10.57,6.75,21.35,10.07,32.06,9.86,9-.18,14.54-2.73,19.88-5.2,4.95-2.28,9.62-4.44,17.21-4.44h0c7.65,0,11.9,2.18,16.39,4.5,4.91,2.52,10.47,5.38,20.16,5.14,8.77-.22,13.56-2.79,17.79-5.06,4.04-2.17,7.53-4.04,14.56-4.23,7.82-.22,12.75,1.94,17.98,4.23,4.16,1.82,8.78,3.84,15,4.68,1.59-2.13,3.14-4.3,4.64-6.51-7.23-.25-11.92-2.3-16.89-4.47-5.69-2.49-11.58-5.07-20.93-4.81Z"/>
  <path class="cls-1" d="M262.58,250.47c-5.69-2.49-11.58-5.07-20.93-4.81-8.66.24-13.42,2.79-17.62,5.05-4.07,2.18-7.58,4.06-14.71,4.25-7.93.2-12.06-1.92-16.84-4.38-4.79-2.47-10.22-5.26-19.54-5.26h0c-9.1,0-14.69,2.58-20.09,5.07-4.92,2.27-9.57,4.42-17.14,4.56-9.32.18-18.82-2.77-28.22-8.78-1.6-1.02-3.73-.56-4.75,1.05-1.02,1.6-.56,3.73,1.05,4.75,10.57,6.75,21.35,10.07,32.06,9.86,9-.18,14.54-2.73,19.88-5.2,4.95-2.28,9.62-4.44,17.21-4.44h0c7.65,0,11.9,2.18,16.39,4.5,4.91,2.52,10.47,5.38,20.16,5.14,8.77-.22,13.56-2.79,17.79-5.06,4.04-2.17,7.53-4.04,14.56-4.23,7.82-.22,12.75,1.94,17.98,4.23,1.02.45,2.08.91,3.18,1.36,1.66-1.79,3.28-3.62,4.86-5.49-1.81-.66-3.52-1.41-5.28-2.18Z"/>
  <g>
    <path class="cls-2" d="M167.05,150.13c-10.25,0-18.58-8.34-18.58-18.58s8.34-18.58,18.58-18.58,18.58,8.34,18.58,18.58-8.34,18.58-18.58,18.58ZM167.05,119.85c-6.45,0-11.7,5.25-11.7,11.7s5.25,11.7,11.7,11.7,11.7-5.25,11.7-11.7-5.25-11.7-11.7-11.7Z"/>
    <path class="cls-2" d="M141.58,143.25h-65.11v-26.15h65.11c1.38,0,2.63-.83,3.17-2.1.54-1.27.26-2.74-.7-3.74l-62.97-65.04c-1.32-1.37-3.5-1.4-4.87-.08-1.37,1.32-1.4,3.5-.08,4.87l57.32,59.2h-60.43c-1.9,0-3.44,1.54-3.44,3.44v33.03c0,.26.03.51.09.75-.08.97.25,1.96.98,2.7l36.29,36.61-36.3,37.01c-1.33,1.36-1.31,3.54.05,4.87.67.66,1.54.98,2.41.98s1.78-.34,2.46-1.03l38.68-39.43c1.32-1.34,1.31-3.5-.01-4.83l-33.89-34.19h61.24c1.9,0,3.44-1.54,3.44-3.44s-1.54-3.44-3.44-3.44Z"/>
  </g>
</svg>