<?xml version="1.0" encoding="UTF-8"?>
<svg id="Ebene_1" data-name="Ebene 1" xmlns="http://www.w3.org/2000/svg" viewBox="0 0 58.75 37.54">
  <defs>
    <style>
      .cls-1 {
        fill: #fff;
        stroke-width: 0px;
      }
    </style>
  </defs>
  <path class="cls-1" d="M57.23,31.81l-21.97-13.03,21.97-13.03c1.43-.85,1.9-2.69,1.05-4.11s-2.69-1.9-4.11-1.05l-24.79,14.71L4.58.58C3.16-.27,1.32.2.47,1.63S.1,4.89,1.52,5.74l21.97,13.03L1.52,31.81c-1.43.85-1.9,2.69-1.05,4.11.56.95,1.56,1.47,2.58,1.47.52,0,1.05-.14,1.53-.42l24.79-14.71,24.79,14.71c.48.29,1.01.42,1.53.42,1.02,0,2.02-.52,2.58-1.47.85-1.42.38-3.27-1.05-4.11Z"/>
</svg>